<?xml version="1.0" encoding="UTF-8" standalone="no"?>
<!-- Created with Inkscape (http://www.inkscape.org/) -->
<svg
   xmlns:dc="http://purl.org/dc/elements/1.1/"
   xmlns:cc="http://web.resource.org/cc/"
   xmlns:rdf="http://www.w3.org/1999/02/22-rdf-syntax-ns#"
   xmlns:svg="http://www.w3.org/2000/svg"
   xmlns="http://www.w3.org/2000/svg"
   xmlns:xlink="http://www.w3.org/1999/xlink"
   xmlns:sodipodi="http://sodipodi.sourceforge.net/DTD/sodipodi-0.dtd"
   xmlns:inkscape="http://www.inkscape.org/namespaces/inkscape"
   version="1.0"
   width="806"
   height="628"
   id="svg1926"
   sodipodi:version="0.32"
   inkscape:version="0.44.1"
   sodipodi:docname="flame1.svg"
   sodipodi:docbase="/home/skyostil/proj/keyboardhero/data/mods/Chilly">
  <metadata
     id="metadata1698">
    <rdf:RDF>
      <cc:Work
         rdf:about="">
        <dc:format>image/svg+xml</dc:format>
        <dc:type
           rdf:resource="http://purl.org/dc/dcmitype/StillImage" />
      </cc:Work>
    </rdf:RDF>
  </metadata>
  <sodipodi:namedview
     inkscape:window-height="609"
     inkscape:window-width="865"
     inkscape:pageshadow="2"
     inkscape:pageopacity="0.0"
     borderopacity="1.0"
     bordercolor="#666666"
     pagecolor="#ffffff"
     id="base"
     inkscape:zoom="0.2977707"
     inkscape:cx="16.78877"
     inkscape:cy="563.42375"
     inkscape:window-x="242"
     inkscape:window-y="242"
     inkscape:current-layer="svg1926" />
  <defs
     id="defs1929">
    <linearGradient
       id="linearGradient2762">
      <stop
         style="stop-color:#000833;stop-opacity:1;"
         offset="0"
         id="stop2764" />
      <stop
         id="stop4010"
         offset="0.5"
         style="stop-color:#000219;stop-opacity:1;" />
      <stop
         style="stop-color:#01000f;stop-opacity:1;"
         offset="1"
         id="stop2766" />
    </linearGradient>
    <linearGradient
       x1="390.50058"
       y1="60.27673"
       x2="390.50058"
       y2="626.67725"
       id="linearGradient16775"
       xlink:href="#linearGradient2762"
       gradientUnits="userSpaceOnUse"
       gradientTransform="matrix(-2.758657,0,0,2.514118,506.484,-534.4672)" />
  </defs>
  <rect
     width="76.423279"
     height="652.92065"
     x="803.27515"
     y="-14.952381"
     style="opacity:1;color:black;fill:white;fill-opacity:1;fill-rule:nonzero;stroke:none;stroke-width:3;stroke-linecap:butt;stroke-linejoin:miter;marker:none;marker-start:none;marker-mid:none;marker-end:none;stroke-miterlimit:4;stroke-dasharray:none;stroke-dashoffset:0;stroke-opacity:1;visibility:visible;display:inline;overflow:visible"
     id="rect6588" />
  <path
     d="M -137.26104,-384.09772 C -81.911129,-368.81186 -5.2188853,-321.58099 -24.469737,-163.05377 C -33.137538,-91.67623 -19.036198,-18.325194 -42.163709,31.925929 C -54.217664,55.155271 -9.1281693,-129.54373 -168.89762,-179.77505 C -53.527252,-129.38337 -66.571087,-4.614886 -68.423339,34.065204 C -70.430707,75.98544 -43.652421,122.64751 -71.674519,136.48849 C -80.395292,140.79596 -127.42223,71.625527 -90.556434,8.786823 C -155.92003,50.302846 -70.63904,267.90487 -90.744004,273.31482 C -111.97731,279.02838 -244.46335,21.245176 -134.88516,-104.94407 C -196.88743,-46.938882 -186.55363,32.489943 -198.34591,41.268888 C -209.73644,49.748718 -208.98548,-96.87064 -287.37851,-125.59463 C -216.0068,-88.91067 -207.26442,51.341527 -214.78942,293.09221 C -277.37665,293.70792 -333.92149,15.059644 -339.71017,-44.345802 C -350.92642,-159.45111 -257.69038,-260.80763 -131.57145,-276.08612 C -200.44107,-281.08327 -268.13533,-227.13863 -277.12475,-234.65403 C -289.48212,-244.98513 -228.67118,-301.44966 -281.81397,-356.15616 C -244.29455,-295.81574 -319.59172,-200.59233 -343.58658,-190.47143 C -363.51207,-182.06697 -402.97934,-326.7716 -338.77233,-373.48866 C -420.79473,-331.01986 -376.07071,-202.64962 -373.59758,-135.06856 C -371.63497,-81.43691 -383.72876,-69.375461 -389.10326,-81.36837 C -416.80374,-143.18033 -463.27701,-232.99102 -511.21048,-244.34626 C -419.37755,-194.17702 -377.00969,78.972113 -411.73655,85.407823 C -452.63474,92.987238 -524.12865,20.554004 -457.94098,-67.790518 C -536.84697,28.389106 -466.51927,100.30853 -395.35555,159.80223 C -331.1701,213.46204 -413.27032,328.36838 -465.06858,383.90228 L 474.46298,383.90228 C 286.16735,311.49453 407.13301,-1.884323 439.32512,-33.300153 C 366.82248,31.21844 355.42169,127.07376 344.60293,117.19135 C 334.36147,107.83626 333.29455,35.713422 345.29069,-10.728611 C 355.70772,-51.057379 363.49974,-109.64858 399.1229,-146.15787 C 418.96347,-166.49194 462.3667,-168.30451 512.78952,-255.95947 C 471.89965,-204.54414 427.50393,-175.16171 416.69183,-180.95384 C 401.74061,-188.96331 524.44097,-281.54828 499.9098,-366.06668 C 493.59552,-285.43977 452.169,-250.65037 445.0147,-252.64141 C 437.3174,-254.78357 478.15809,-327.9713 379.61575,-374.58012 C 474.90682,-327.31701 437.37634,-237.00646 375.17662,-169.166 C 317.56711,-106.33192 336.8863,-59.253589 317.09285,-59.71366 C 292.88817,-60.276275 313.42885,-114.18068 324.15794,-150.91666 C 333.51057,-182.93965 442.13511,-279.57413 338.53822,-368.6862 C 420.12628,-289.72483 344.73812,-219.75212 335.34954,-205.70832 C 306.09755,-161.95204 342.47807,-310.99946 257.32097,-371.82963 C 325.23665,-307.56975 315.93554,-189.44472 286.90455,-128.21922 C 276.78255,-106.87225 267.88565,-181.10964 202.04146,-218.80892 C 273.85769,-150.86993 278.35399,-65.993343 280.51695,-1.647603 C 281.6071,30.782992 362.41815,308.62009 277.20325,334.87357 C 236.56275,245.23999 186.79866,236.38911 159.28506,192.89551 C 125.17353,138.97201 147.72702,45.729153 167.47555,19.23973 C 199.72115,-24.012454 261.39334,-127.6875 196.7988,-191.06418 C 248.58786,-100.16071 150.0844,9.585445 127.58595,9.94043 C 108.59266,10.240101 90.659402,-147.69708 185.29459,-226.12211 C -20.58763,-89.60654 170.03875,318.49145 31.175642,304.70541 C 11.621583,302.76412 -17.82668,241.87372 -18.405015,152.68587 C -18.612211,120.73034 5.1652017,50.726496 6.0414387,26.686886 C 8.4495589,-37.058723 107.10222,-229.25727 180.04266,-248.93042 C 80.345572,-237.945 27.343383,-88.05329 9.4801944,-87.39327 C -15.650404,-86.46473 72.681843,-290.89292 168.03826,-353.27469 C 48.969382,-296.84858 20.857582,-191.31676 5.4162147,-193.74583 C -11.981545,-196.48265 34.839841,-350.82162 -137.26104,-384.09772 z "
     style="fill:url(#linearGradient16775);fill-opacity:1;fill-rule:evenodd;stroke:none;stroke-width:1px;stroke-linecap:butt;stroke-linejoin:miter;stroke-opacity:1;opacity:1;color:#000000;marker:none;marker-start:none;marker-mid:none;marker-end:none;stroke-miterlimit:4;stroke-dasharray:none;stroke-dashoffset:0;visibility:visible;display:inline;overflow:visible"
     id="path8365" />
</svg>
