<?xml version="1.0" encoding="UTF-8" standalone="no"?>
<!-- Created with Inkscape (http://www.inkscape.org/) -->
<svg
   xmlns:dc="http://purl.org/dc/elements/1.1/"
   xmlns:cc="http://web.resource.org/cc/"
   xmlns:rdf="http://www.w3.org/1999/02/22-rdf-syntax-ns#"
   xmlns:svg="http://www.w3.org/2000/svg"
   xmlns="http://www.w3.org/2000/svg"
   xmlns:xlink="http://www.w3.org/1999/xlink"
   xmlns:sodipodi="http://sodipodi.sourceforge.net/DTD/sodipodi-0.dtd"
   xmlns:inkscape="http://www.inkscape.org/namespaces/inkscape"
   version="1.0"
   width="806"
   height="628"
   id="svg1926"
   sodipodi:version="0.32"
   inkscape:version="0.44.1"
   sodipodi:docname="flame2.svg"
   sodipodi:docbase="/home/skyostil/proj/keyboardhero/data/mods/Chilly">
  <metadata
     id="metadata17645">
    <rdf:RDF>
      <cc:Work
         rdf:about="">
        <dc:format>image/svg+xml</dc:format>
        <dc:type
           rdf:resource="http://purl.org/dc/dcmitype/StillImage" />
      </cc:Work>
    </rdf:RDF>
  </metadata>
  <sodipodi:namedview
     inkscape:window-height="609"
     inkscape:window-width="881"
     inkscape:pageshadow="2"
     inkscape:pageopacity="0.0"
     guidetolerance="10.0"
     gridtolerance="10.0"
     objecttolerance="10.0"
     borderopacity="1.0"
     bordercolor="#666666"
     pagecolor="#ffffff"
     id="base"
     inkscape:zoom="0.60191083"
     inkscape:cx="403"
     inkscape:cy="578.98942"
     inkscape:window-x="433"
     inkscape:window-y="282"
     inkscape:current-layer="svg1926" />
  <defs
     id="defs1929">
    <linearGradient
       id="linearGradient2762">
      <stop
         style="stop-color:#000533;stop-opacity:1;"
         offset="0"
         id="stop2764" />
      <stop
         id="stop4012"
         offset="0.5"
         style="stop-color:#020019;stop-opacity:1;" />
      <stop
         style="stop-color:#01000f;stop-opacity:1;"
         offset="1"
         id="stop2766" />
    </linearGradient>
    <linearGradient
       x1="390.50058"
       y1="60.27673"
       x2="390.50058"
       y2="626.67725"
       id="linearGradient16775"
       xlink:href="#linearGradient2762"
       gradientUnits="userSpaceOnUse"
       gradientTransform="matrix(-2.758657,0,0,2.514118,506.484,-534.4672)" />
  </defs>
  <path
     d="M -511.68755,383.89879 C -511.68755,383.89879 -424.26646,319.10979 -432.39865,225.27747 C -440.53086,131.44519 -497.45622,15.271812 -485.25792,-38.346656 C -473.05964,-91.965136 -456.79524,-123.24259 -381.57244,-188.03163 C -448.66305,-114.30616 -468.99354,-74.092326 -468.99354,-36.112566 C -468.99354,1.8671953 -464.09619,53.088697 -438.4978,75.592608 C -428.33256,84.529017 -447.36435,-80.701226 -403.93599,-127.71079 C -423.13869,-85.929196 -428.33256,-56.219486 -408.00208,-11.537416 C -382.14157,45.298442 -416.13427,84.529017 -414.10122,140.38154 C -412.06818,196.23412 -367.3411,311.29043 -357.17586,294.53466 C -347.01061,277.77888 -407.59476,125.82284 -363.27501,62.18798 C -344.31254,34.961442 -319.36816,23.208292 -314.19135,-7.2656957 C -305.85578,-56.334116 -359.17139,-91.111906 -338.73988,-223.79511 C -330.54632,-65.474246 -303.56119,-35.390666 -293.37156,-94.007556 C -283.55687,-150.46761 -386.12588,-340.03291 -342.94453,-377.9304 C -359.41427,-328.21639 -330.40332,-279.3843 -320.23709,-242.03727 C -328.31303,-274.15508 -322.43771,-330.85799 -269.59838,-378.00267 C -344.05666,-285.71587 -299.51363,-214.48187 -292.66723,-202.45252 C -290.3138,-198.31746 -298.24066,-220.89898 -239.21516,-292.54479 C -309.00839,-190.67115 -267.08363,-139.8253 -267.72172,-112.07207 C -270.43486,8.6154033 -317.57787,52.694153 -330.74623,88.997235 C -359.04398,167.00952 -297.75551,204.75732 -283.98612,254.3208 C -276.31588,227.92477 -310.33298,137.08459 -294.75243,83.200113 C -279.99938,32.177473 -259.48433,-6.9234357 -240.28153,-44.544726 C -226.03049,-72.464716 -264.64073,-113.82238 -255.0265,-214.10557 C -250.9801,-141.53686 -228.88696,-54.619436 -216.41585,-103.14526 C -210.72513,-125.02608 -209.37205,-148.31027 -216.22906,-174.86044 C -183.03519,-110.2708 -214.40752,-42.462906 -242.3112,5.4009593 C -269.28516,51.67006 -250.81166,181.68808 -233.01287,179.6544 C -192.63472,175.04082 -203.52222,14.680695 -175.37452,-82.577746 C -166.006,-114.9487 -179.659,-175.2368 -188.96451,-232.47286 C -169.4515,-181.59555 -162.32764,-93.582926 -148.79267,-116.54499 C -137.43362,-135.81566 -106.99735,-173.13008 -92.611316,-178.97925 C -176.06768,-84.620866 -188.22639,63.945718 -180.1265,193.17293 C -172.0266,322.4002 -114.56908,-20.821896 -150.36376,-67.854246 C -121.34462,-43.613796 -135.33991,11.537087 -124.21393,10.787466 C -115.1141,10.174363 -92.657948,-80.472006 -42.085841,-103.7756 C -93.166144,-57.821996 -124.04821,25.986883 -127.78857,102.50862 C -128.86909,124.61459 -87.387354,13.000221 -72.388779,-2.5113857 C -103.26299,62.445631 -130.49734,220.15276 -114.22659,281.13004 C -97.955774,342.10732 -55.268142,301.23697 -30.871552,167.19078 C -22.727638,102.33747 -46.051691,-11.093756 -69.067524,-46.440516 C -36.920811,-17.850916 -17.741431,107.92328 -11.124317,98.411154 C -4.8603095,89.406598 -4.1883675,19.963026 -11.525597,-24.738866 C -17.897001,-63.556556 -22.670808,-119.96107 -44.459097,-155.10238 C -56.594243,-174.67457 -83.131508,-176.38607 -113.9718,-260.75668 C -88.962188,-211.26784 -61.839058,-183.00508 -55.226019,-188.58019 C -46.081364,-196.28954 -121.09845,-285.40832 -106.09436,-366.7599 C -102.23233,-289.15398 -76.91509,-255.65734 -72.539285,-257.57378 C -67.831363,-259.63567 -92.812579,-330.09199 -32.540845,-374.95443 C -80.65876,-331.69631 -67.847319,-242.53153 -29.803923,-177.23298 C 5.4319559,-116.75324 -6.3830005,-71.415376 5.7233219,-71.858216 C 20.527702,-72.399746 7.9333826,-124.32171 1.3711228,-159.68123 C -4.3492495,-190.50435 -70.783047,-283.48847 -7.4197685,-369.26159 C -36.991236,-299.96114 -11.219962,-225.9008 -5.4775995,-212.3832 C 12.413882,-170.26644 -9.8006745,-313.73155 42.284212,-372.28246 C 0.74474084,-310.43036 8.4371623,-154.29664 26.193472,-95.365196 C 32.384422,-74.818076 37.821612,-126.17192 61.829692,-142.35173 C 42.301112,-110.46989 33.475902,-46.662956 28.086862,-16.005636 C 22.697822,14.651689 -22.000336,282.66948 30.119902,307.93927 C 54.976972,221.66417 85.383022,213.12184 102.21121,171.2579 C 123.07495,119.35487 109.28935,105.5577 97.210488,80.060812 C 77.488052,38.429248 39.775492,-61.341246 79.283642,-122.34326 C 47.607742,-34.845856 107.84627,70.78272 121.60706,71.124403 C 133.22398,71.412848 144.19254,-80.591056 86.310572,-156.07757 C 212.23488,-24.677106 95.632262,292.16542 180.56549,278.89593 C 192.52541,277.02738 210.54139,218.38889 210.89512,132.54283 C 211.02184,101.78464 196.4768,34.429588 195.94087,11.290718 C 194.46798,-50.066406 134.14445,-235.0725 89.531688,-254.00851 C 150.50969,-243.43471 182.91991,-99.174266 193.84562,-98.538976 C 209.21633,-97.645226 155.19292,-294.41115 96.869798,-354.45554 C 169.69624,-300.14368 186.90482,-198.55434 196.34927,-200.8924 C 206.99031,-203.52668 178.32946,-352.07193 283.59202,-384.10121 C 249.73821,-369.38808 202.82481,-323.91665 214.59926,-171.32929 C 219.90076,-102.62619 211.28675,-32.020756 225.4323,16.347502 C 232.8049,38.706464 205.2179,-139.09035 302.93816,-187.43956 C 232.37384,-138.936 240.37234,-18.851006 241.50523,18.379781 C 242.73302,58.729305 226.34848,103.63484 243.48772,116.95721 C 248.82163,121.10329 277.58072,54.528299 255.03239,-5.9558957 C 295.01091,34.004559 242.84361,243.47525 255.14047,248.68249 C 268.12745,254.18197 340.55527,-1.8318357 282.15914,-115.39415 C 320.08178,-59.562356 313.76697,16.863933 320.97952,25.313939 C 327.94633,33.476039 334.66076,-85.523556 375.42061,-135.28777 C 340.39284,-58.904836 277.53076,260.93708 331.0111,267.72542 C 369.2915,268.31805 403.89667,0.077680339 407.43721,-57.101906 C 414.29743,-167.89433 347.21684,-263.84272 280.14143,-280.1285 C 317.95161,-294.4169 363.66146,-233.01713 369.15968,-240.25093 C 376.71787,-250.19494 326.59173,-301.40275 372.03385,-357.21895 C 349.08575,-299.13942 395.12157,-207.49539 409.79762,-197.75371 C 421.9847,-189.66417 430.31956,-339.99439 406.86185,-373.90276 C 457.02943,-333.02521 429.668,-209.46742 428.15535,-144.41855 C 426.95494,-92.796426 434.34891,-81.170346 437.63614,-92.713896 C 454.57866,-152.20983 482.99476,-238.65682 512.31245,-249.58659 C 473.3954,-204.45664 430.23095,61.613955 451.47104,67.808525 C 476.48573,75.103946 495.79985,-40.439056 479.75619,-79.660666 C 528.01771,12.915208 484.99721,82.151465 441.47113,139.41599 C 391.38506,205.31117 486.91681,367.22602 503.82023,383.89879"
     style="fill:url(#linearGradient16775);fill-opacity:1.0;fill-rule:evenodd;stroke:none;stroke-width:1px;stroke-linecap:butt;stroke-linejoin:miter;stroke-opacity:1;opacity:1;color:#000000;marker:none;marker-start:none;marker-mid:none;marker-end:none;stroke-miterlimit:4;stroke-dasharray:none;stroke-dashoffset:0;visibility:visible;display:inline;overflow:visible"
     id="path8365" />
</svg>
