<?xml version="1.0" encoding="UTF-8" standalone="no"?>
<!-- Created with Inkscape (http://www.inkscape.org/) -->
<svg
   xmlns:dc="http://purl.org/dc/elements/1.1/"
   xmlns:cc="http://web.resource.org/cc/"
   xmlns:rdf="http://www.w3.org/1999/02/22-rdf-syntax-ns#"
   xmlns:svg="http://www.w3.org/2000/svg"
   xmlns="http://www.w3.org/2000/svg"
   xmlns:xlink="http://www.w3.org/1999/xlink"
   xmlns:sodipodi="http://sodipodi.sourceforge.net/DTD/sodipodi-0.dtd"
   xmlns:inkscape="http://www.inkscape.org/namespaces/inkscape"
   version="1.0"
   width="744.09448"
   height="1052.3622"
   id="svg2"
   sodipodi:version="0.32"
   inkscape:version="0.44.1"
   sodipodi:docname="neck.svg"
   sodipodi:docbase="/home/skyostil/proj/keyboardhero/data/mods/Chilly">
  <metadata
     id="metadata3009">
    <rdf:RDF>
      <cc:Work
         rdf:about="">
        <dc:format>image/svg+xml</dc:format>
        <dc:type
           rdf:resource="http://purl.org/dc/dcmitype/StillImage" />
      </cc:Work>
    </rdf:RDF>
  </metadata>
  <sodipodi:namedview
     inkscape:window-height="609"
     inkscape:window-width="865"
     inkscape:pageshadow="2"
     inkscape:pageopacity="0.0"
     borderopacity="1.0"
     bordercolor="#666666"
     pagecolor="#ffffff"
     id="base"
     inkscape:zoom="1.0051974"
     inkscape:cx="43.122432"
     inkscape:cy="1068.0203"
     inkscape:window-x="44"
     inkscape:window-y="44"
     inkscape:current-layer="layer1" />
  <defs
     id="defs4">
    <linearGradient
       id="linearGradient3016">
      <stop
         style="stop-color:#00114b;stop-opacity:1;"
         offset="0"
         id="stop3018" />
      <stop
         id="stop3024"
         offset="0.5"
         style="stop-color:#003e84;stop-opacity:1;" />
      <stop
         style="stop-color:#01004b;stop-opacity:1;"
         offset="1"
         id="stop3020" />
    </linearGradient>
    <linearGradient
       inkscape:collect="always"
       xlink:href="#linearGradient3016"
       id="linearGradient3022"
       x1="-196.5988"
       y1="-0.14184041"
       x2="198.18981"
       y2="-0.14184041"
       gradientUnits="userSpaceOnUse" />
    <linearGradient
       inkscape:collect="always"
       xlink:href="#linearGradient3016"
       id="linearGradient3030"
       gradientUnits="userSpaceOnUse"
       x1="-196.5988"
       y1="-0.14184041"
       x2="198.18981"
       y2="-0.14184041" />
    <linearGradient
       inkscape:collect="always"
       xlink:href="#linearGradient3016"
       id="linearGradient3034"
       gradientUnits="userSpaceOnUse"
       x1="-196.5988"
       y1="-0.14184041"
       x2="198.18981"
       y2="-0.14184041"
       gradientTransform="translate(-10.04059,46.96560)" />
    <linearGradient
       inkscape:collect="always"
       xlink:href="#linearGradient3016"
       id="linearGradient1882"
       gradientUnits="userSpaceOnUse"
       gradientTransform="translate(-10.04059,86.1036)"
       x1="-196.5988"
       y1="-0.14184041"
       x2="198.18981"
       y2="-0.14184041" />
  </defs>
  <g
     id="layer1"
     transform="matrix(0.398383,0.000000,0.000000,0.255506,12.04804,-49.43626)">
    <path
       id="path2056"
       style="fill:url(#linearGradient1882);fill-opacity:1"
       d="M -206.63939,112.49064 C -201.66452,73.45459 -193.60045,36.29555 -181.17064,-0.85311 C -139.16904,-86.63951 -123.86811,-102.11683 -80.10814,-186.66561 C -52.28081,-233.81331 -3.80416,-331.15433 5.20436,-376.44686 C 11.07647,-411.59199 6.42959,-413.73757 29.11954,-417.60757 C 54.87357,-416.3641 73.22307,-414.94254 77.23842,-408.50461 C 104.62315,-356.54594 152.46363,-326.62099 165.89204,-216.33201 C 179.32045,-106.04304 156.30946,-130.10391 134.03717,-183.23747 C 103.45582,-206.34356 50.33975,-212.83967 16.18247,-176.99413 C -2.61886,-141.49845 -11.41203,-96.7636 -9.60814,-56.91561 C 2.49664,48.18676 71.53551,131.61054 119.07936,222.20939 C 140.22162,259.15167 167.47816,321.44041 180.94543,361.49063 C 189.59076,475.78956 206.02015,393.79236 119.64186,358.61563 C 76.36924,353.97907 22.92025,391.20534 18.42757,436.51742 C 13.00163,490.5051 29.50855,535.76389 57.07936,580.16921 C 67.94744,600.42439 60.62909,598.67673 33.48561,598.11564 C 3.11693,602.95278 2.48192,588.89015 6.85615,568.8701 C 8.56991,519.24618 -42.03483,494.71825 -85.3001,497.76296 C -129.85656,509.193 -159.97697,532.90718 -175.07689,598.74064 C -183.22074,604.03658 -184.16895,597.2311 -196.03224,598.8076 C -195.7369,566.04995 -184.1451,532.16377 -172.03225,502.32993 C -137.19793,429.60277 -96.94361,361.45267 -60.94296,289.3567 C -37.32424,247.64625 -21.43778,184.66598 -28.58135,136.321 C -45.64707,85.45467 -116.43978,68.31858 -174.97868,135.23171 C -184.80433,159.96708 -197.2186,167.65398 -206.63939,112.49064 z M -188.81795,-428.87097 L -165.1885,-427.4424 L -176.61707,-368.304 L -188.81795,-428.87097 z " />
    <path
       id="path2058"
       style="fill:#000859;fill-opacity:1;stroke:none"
       d="M 233.73789,391.9058 C 228.81746,337.04509 210.02556,284.93381 193.89294,232.49309 C 181.5727,190.48996 153.38715,141.44351 144.35976,92.16948 C 135.33236,42.89545 141.39382,-10.05679 153.32835,-56.32831 C 165.26289,-102.59983 180.97639,-135.27604 178.43414,-176.28006 C 180.87898,-225.11368 140.49236,-309.96153 133.91654,-326.69946 C 127.09832,-344.0544 174.77,-435.58773 145.43485,-424.89217 C 111.83179,-434.1528 124.28897,-382.09359 113.80673,-362.28034 C 96.66217,-372.42854 71.38361,-450.53309 56.59385,-416.87879 C 72.63945,-388.52801 123.13982,-340.8066 101.59397,-306.40132 C 85.77419,-278.36566 72.55774,-233.61285 62.93656,-215.57705 C 17.08547,-208.4267 2.29375,-158.03384 -9.78499,-122.09421 C -26.40799,-37.83226 9.94607,46.15487 53.40847,116.57498 C 95.79004,185.25122 141.61516,253.63419 163.32833,332.24392 C 169.07934,346.82181 189.11771,418.25861 165.5915,372.65451 C 145.89767,336.1194 95.35213,341.47572 64.39638,358.85379 C 27.45429,378.01821 5.46118,419.44458 11.50777,460.84624 C 10.97281,508.80719 38.42409,550.85921 58.22226,592.79861 C 105.95291,616.08022 48.04024,553.33165 45.63301,532.07386 C 27.90389,495.02907 17.12254,448.46748 33.72227,409.62302 C 51.2994,376.95341 91.87579,356.25607 128.36997,364.02937 C 166.2671,379.02443 167.64482,424.36289 164.09334,458.77279 C 161.32826,505.83658 137.10564,547.17736 123.72227,591.56102 C 153.60483,621.48262 161.05218,573.75212 170.72231,550.29625 C 182.39033,511.28616 197.64471,472.28396 194.37724,430.73078 C 196.99688,366.21957 173.51165,304.63362 148.45667,246.35867 C 103.04296,146.10799 20.71694,61.92843 2.21521,-49.59421 C -3.17969,-88.15424 4.74331,-132.63444 17.07383,-155.96695 C 29.7097,-179.87723 43.35865,-194.28671 59.44571,-201.02861 C 56.24705,-188.84193 38.95916,-57.88902 42.03685,-43.24823 C 49.38821,-87.69612 71.6292,-192.78131 79.84395,-201.32335 C 106.23865,-198.72215 141.79266,-180.32715 142.69367,-151.76915 C 144.51049,-88.94134 111.49941,-53.08263 115.01947,32.71729 C 118.53954,119.94579 168.31397,213.24304 201.07091,301.9058 C 222.8477,361.90633 226.56873,426.24983 229.89125,489.41143 C 232.55956,457.85032 233.37972,423.9536 233.73789,391.9058 z M 159.29654,-153.84421 C 153.83678,-178.89225 119.70916,-212.86636 83.7847,-215.98215 C 94.63528,-238.2489 112.16365,-276.49766 122.89573,-302.9397 C 139.68003,-268.33117 161.85988,-235.48621 160.43359,-194.34656 C 160.32437,-180.84505 160.49606,-167.30658 159.29654,-153.84421 z M 5.90069,-422.80849 C -4.36468,-428.64212 0.31952,-347.17406 -18.46011,-317.00046 C -37.23974,-286.82686 -48.03936,-245.10983 -63.4095,-222.05077 C -78.77964,-198.9917 -100.13008,-135.8549 -114.43354,-187.0794 C -137.02276,-246.13888 -162.7519,-306.80159 -157.69332,-371.63226 C -156.91674,-378.91267 -159.3502,-416.33219 -160.11568,-424.51128 C -160.89777,-432.86788 -162.2696,-435.40075 -172.45602,-427.91564 C -175.85947,-401.33167 -186.3475,-411.1147 -181.90787,-430.66564 C -194.56924,-436.76673 -196.11659,-431.06636 -198.75723,-423.00573 C -204.55211,-405.31662 -191.40126,-347.10666 -189.77488,-324.09421 C -183.87957,-258.5469 -143.5139,-203.00683 -127.28106,-140.09421 C -120.26985,-101.14365 -162.46631,-67.15709 -175.03954,-30.12546 C -187.61278,6.90617 -197.9054,33.40526 -206.88564,80.40579 C -215.86589,127.40632 -205.90401,188.23802 -207.90817,250.32214 C -209.91232,312.40626 -204.09009,385.73249 -214.06631,452.57341 C -222.28519,491.02248 -234.07486,528.43134 -245.04456,566.33529 C -263.43802,602.36746 -237.09837,622.7103 -227.66656,578.90579 C -208.71612,513.29911 -188.12094,438.65859 -183.70246,377.08431 C -179.28399,315.51002 -178.29863,263.24257 -178.04158,216.37661 C -177.78453,169.51065 -175.16719,128.57014 -137.16489,107.21312 C -109.60589,120.76692 -117.57172,177.68303 -113.39183,208.90579 C -115.31572,234.35384 -107.77338,237.29016 -106.12221,209.82828 C -97.18981,173.10853 -107.34892,134.76654 -102.55897,97.81989 C -67.67559,83.87825 -34.30695,118.06126 -32.62285,152.06478 C -27.49699,196.6275 -40.98308,239.76029 -62.32915,278.39908 C -97.3403,348.33508 -134.43939,416.81025 -169.96173,486.4375 C -184.73264,520.49112 -198.39739,555.36582 -200.45353,592.90579 C -182.11396,621.16224 -183.98336,572.43816 -178.20973,555.20033 C -163.47208,482.33022 -115.23796,423.01292 -85.07794,356.4683 C -58.48146,305.12857 -26.86662,254.64959 -19.13564,196.25557 C -16.43585,159.61664 -15.74357,111.47896 -48.71591,87.5949 C -84.35238,66.96793 -132.02393,77.3365 -160.90994,104.45644 C -171.84413,118.93129 -196.99314,173.0774 -199.15429,125.40579 C -196.11435,61.08383 -172.32593,0.35077 -143.82985,-56.57361 C -124.86342,-95.25886 -98.90935,-130.21943 -77.9828,-167.95732 C -42.45847,-221.27576 -18.78776,-280.63733 10.44152,-337.23438 C 14.35427,-352.30488 27.08221,-447.47003 5.90069,-422.80849 z M 14.80304,554.90579 C 10.36542,516.24876 -25.81044,484.77798 -65.14972,488.24695 C -120.29686,483.04235 -166.78873,531.93197 -173.51621,585.26293 C -181.15238,634.52511 -158.46835,594.20183 -154.20715,559.79561 C -139.86626,513.69151 -85.06463,492.65034 -41.16527,508.31589 C -3.77734,517.83887 3.11463,560.05662 0.72226,592.90579 C 26.03963,623.42088 14.83892,569.90368 14.80303,554.90579 L 14.80304,554.90579 z M -238.70279,-434.95135 C -265.22551,-432.79852 -247.62261,-363.82351 -251.26708,-333.41024 C -254.92787,-302.86083 -250.1433,-226.43813 -239.71252,-185.84254 C -235.70616,-221.32357 -242.03222,-246.28645 -239.18421,-277.09421 C -236.3362,-307.90196 -237.22347,-381.40692 -228.73436,-424.23707 C -232.05717,-424.23707 -232.52283,-434.95135 -238.70279,-434.95135 z " />
  </g>
</svg>
