<?xml version="1.0" encoding="UTF-8" standalone="no"?>
<!-- Created with Inkscape (http://www.inkscape.org/) -->
<svg
   xmlns:dc="http://purl.org/dc/elements/1.1/"
   xmlns:cc="http://web.resource.org/cc/"
   xmlns:rdf="http://www.w3.org/1999/02/22-rdf-syntax-ns#"
   xmlns:svg="http://www.w3.org/2000/svg"
   xmlns="http://www.w3.org/2000/svg"
   xmlns:xlink="http://www.w3.org/1999/xlink"
   xmlns:sodipodi="http://inkscape.sourceforge.net/DTD/sodipodi-0.dtd"
   xmlns:inkscape="http://www.inkscape.org/namespaces/inkscape"
   width="744.09448819"
   height="1052.3622047"
   id="svg2"
   sodipodi:version="0.32"
   inkscape:version="0.42+0.43pre1"
   sodipodi:docbase="c:\users\proj\keyboardhero\data"
   sodipodi:docname="2x.svg">
  <defs
     id="defs4">
    <linearGradient
       inkscape:collect="always"
       xlink:href="#linearGradient7874"
       id="linearGradient2470"
       x1="-58.830482"
       y1="-48.494114"
       x2="72.739708"
       y2="-48.494114"
       gradientUnits="userSpaceOnUse" />
    <radialGradient
       cx="255.18288"
       cy="176.28802"
       r="12.445148"
       fx="255.18288"
       fy="176.28802"
       id="radialGradient3251"
       xlink:href="#linearGradient2762"
       gradientUnits="userSpaceOnUse"
       gradientTransform="matrix(1.000000,0.000000,0.000000,0.910386,-243.1585,-125.2953)" />
    <radialGradient
       cx="431.67523"
       cy="198.44926"
       r="340.46094"
       fx="431.67523"
       fy="198.44926"
       id="radialGradient3731"
       xlink:href="#linearGradient2762"
       gradientUnits="userSpaceOnUse"
       gradientTransform="matrix(2.428837,4.387884e-3,-5.639633e-5,3.121722e-2,-1045.520,27.69561)" />
    <linearGradient
       id="linearGradient2762">
      <stop
         style="stop-color:#ff6800;stop-opacity:1;"
         offset="0"
         id="stop2764" />
      <stop
         style="stop-color:#ff1100;stop-opacity:0.61403507;"
         offset="1"
         id="stop2766" />
    </linearGradient>
    <linearGradient
       id="linearGradient7874">
      <stop
         style="stop-color:#ffd3d3;stop-opacity:0.79215688;"
         offset="0"
         id="stop7876" />
      <stop
         style="stop-color:#f10;stop-opacity:0"
         offset="1"
         id="stop7878" />
    </linearGradient>
    <radialGradient
       inkscape:collect="always"
       xlink:href="#linearGradient2762"
       id="radialGradient2436"
       gradientUnits="userSpaceOnUse"
       gradientTransform="matrix(2.739384,1.408218,-1.636432,3.183326,-400.3585,-890.8032)"
       cx="255.18288"
       cy="176.28802"
       fx="255.18288"
       fy="176.28802"
       r="12.445148" />
    <radialGradient
       inkscape:collect="always"
       xlink:href="#linearGradient7874"
       id="radialGradient2438"
       gradientUnits="userSpaceOnUse"
       gradientTransform="matrix(1.996297,-2.726133e-2,2.375726e-3,0.173970,-859.4911,7.460510)"
       cx="433.02878"
       cy="49.637108"
       fx="433.02878"
       fy="49.637108"
       r="340.46094" />
    <radialGradient
       inkscape:collect="always"
       xlink:href="#linearGradient7874"
       id="radialGradient2480"
       cx="64.966034"
       cy="-42.52816"
       fx="64.966034"
       fy="-42.52816"
       r="136.6349"
       gradientTransform="matrix(1.000000,2.672043e-7,-2.727883e-7,1.020899,-5.888275e-5,0.888743)"
       gradientUnits="userSpaceOnUse" />
    <radialGradient
       inkscape:collect="always"
       xlink:href="#linearGradient7874"
       id="radialGradient2655"
       cx="-66.071434"
       cy="98.790756"
       fx="-66.071434"
       fy="98.790756"
       r="68.214287"
       gradientTransform="matrix(1.000000,0.000000,0.000000,1.047120,67.85714,-98.94078)"
       gradientUnits="userSpaceOnUse" />
    <radialGradient
       inkscape:collect="always"
       xlink:href="#linearGradient7874"
       id="radialGradient2658"
       gradientUnits="userSpaceOnUse"
       gradientTransform="matrix(0.821990,0.000000,0.000000,0.860722,56.09573,-80.52634)"
       cx="-66.071434"
       cy="98.790756"
       fx="-66.071434"
       fy="98.790756"
       r="68.214287" />
  </defs>
  <sodipodi:namedview
     id="base"
     pagecolor="#ffffff"
     bordercolor="#666666"
     borderopacity="1.0"
     inkscape:pageopacity="0.0"
     inkscape:pageshadow="2"
     inkscape:zoom="1.4"
     inkscape:cx="185.14286"
     inkscape:cy="963.5"
     inkscape:document-units="px"
     inkscape:current-layer="g2482"
     inkscape:window-width="1400"
     inkscape:window-height="1031"
     inkscape:window-x="-4"
     inkscape:window-y="-4" />
  <metadata
     id="metadata7">
    <rdf:RDF>
      <cc:Work
         rdf:about="">
        <dc:format>image/svg+xml</dc:format>
        <dc:type
           rdf:resource="http://purl.org/dc/dcmitype/StillImage" />
      </cc:Work>
    </rdf:RDF>
  </metadata>
  <g
     inkscape:label="Layer 1"
     inkscape:groupmode="layer"
     id="layer1">
    <g
       id="g2482">
      <path
         style="color:#000000;fill:url(#radialGradient2658);fill-opacity:1;fill-rule:evenodd;stroke:none;stroke-width:8;stroke-linecap:butt;stroke-linejoin:miter;marker:none;marker-start:none;marker-mid:none;marker-end:none;stroke-miterlimit:4;stroke-dashoffset:0;stroke-opacity:1;visibility:visible;display:inline;overflow:visible"
         d="M -54.285724,-54.208497 L 57.857135,-54.208497 L 57.857135,63.218583 L -54.285724,63.218583 L -54.285724,-54.208497 z "
         id="rect2647" />
      <path
         id="text1307"
         d="M -10.227076,22.837647 C -10.330693,23.562778 -10.693248,24.529592 -11.314742,25.738089 C -12.212525,25.807166 -13.213867,25.271966 -14.318771,24.132487 C -15.389197,22.958521 -16.32148,22.371527 -17.115624,22.371504 C -20.534022,22.716817 -25.575261,23.49372 -32.239357,24.702217 C -33.413352,25.012998 -34.190256,24.443269 -34.570069,22.993028 C -34.70819,21.266598 -34.328371,18.745978 -33.43061,15.431161 C -32.532862,12.116404 -32.135777,9.6648423 -32.239357,8.07647 C -31.652371,8.352739 -31.410668,9.181436 -31.514247,10.562563 C -31.617842,11.943759 -31.583313,12.634339 -31.410659,12.634307 C -31.272552,12.59981 -31.082642,12.444429 -30.840929,12.168165 C -26.006874,3.9157582 -23.244552,-2.7483454 -22.553953,-7.8241662 C -22.55397,-6.5465392 -22.5885,-4.7337649 -22.65754,-2.3858379 C -22.381326,-1.9369131 -21.984241,-2.0577647 -21.466288,-2.7483931 C -18.911158,-5.1653778 -17.633583,-7.9277007 -17.633561,-11.035369 C -17.633583,-11.86401 -17.73717,-12.709972 -17.944322,-13.573256 C -18.324164,-14.505481 -18.600396,-15.127004 -18.77302,-15.437826 C -19.152861,-16.093817 -19.653532,-16.594488 -20.275035,-16.93984 C -20.862048,-17.285068 -21.552629,-17.457714 -22.346779,-17.457777 C -23.002848,-17.457714 -23.883339,-17.285068 -24.988252,-16.93984 C -26.300371,-16.559959 -27.180862,-16.352785 -27.629726,-16.318317 C -28.113145,-15.903907 -28.717403,-15.196063 -29.442502,-14.194779 C -29.718745,-13.089791 -29.563365,-12.261094 -28.97636,-11.708687 C -28.907313,-11.6741 -28.838255,-11.656836 -28.769185,-11.656893 C -28.562023,-11.656836 -28.216732,-12.209301 -27.733313,-13.314288 C -27.21539,-14.453688 -26.628397,-14.988888 -25.972331,-14.91989 C -26.455752,-14.19472 -26.887364,-12.744501 -27.267171,-10.569227 C -27.612474,-8.6700748 -28.199468,-7.340707 -29.028153,-6.5811197 C -29.269868,-6.442952 -29.632423,-6.373894 -30.115819,-6.3739453 C -31.600578,-6.373894 -33.361559,-6.874565 -35.398767,-7.8759598 C -37.677688,-8.9808362 -39.248759,-10.310204 -40.111984,-11.864067 C -40.250101,-12.658178 -40.042926,-13.538669 -39.490461,-14.505541 C -39.007055,-15.29965 -38.523649,-16.093817 -38.04024,-16.888047 C -37.971185,-17.578566 -37.815804,-18.32094 -37.574098,-19.115171 C -37.505043,-18.424527 -37.660423,-17.682153 -38.04024,-16.888047 C -38.074772,-16.128346 -37.988449,-15.541352 -37.781272,-15.127064 C -37.470513,-14.57454 -36.952578,-14.350101 -36.227465,-14.453748 C -35.4333,-15.144269 -34.570075,-16.71534 -33.637784,-19.166965 C -32.843623,-21.273173 -31.859545,-22.533482 -30.685549,-22.947898 C -31.30708,-21.290437 -31.617842,-20.081921 -31.617834,-19.322346 C -31.617842,-18.631701 -31.376139,-18.389998 -30.892723,-18.597236 C -29.684216,-19.667572 -27.664268,-20.893353 -24.832871,-22.274581 C -22.001506,-23.690205 -20.10241,-24.829662 -19.135575,-25.692959 C -19.066538,-24.795134 -19.480887,-23.914643 -20.378622,-23.051485 C -21.552629,-21.946488 -22.225945,-21.221379 -22.398572,-20.876154 C -22.260474,-20.323623 -21.828861,-19.978334 -21.103732,-19.840282 C -20.482229,-19.771159 -19.843442,-19.702102 -19.187369,-19.633108 C -18.289635,-19.943804 -17.771699,-20.720708 -17.633561,-21.96382 C -17.529996,-22.999624 -17.426409,-24.035495 -17.322799,-25.071436 C -17.150177,-25.658359 -16.753093,-25.865534 -16.131546,-25.692959 C -16.338745,-25.002308 -16.442332,-24.294462 -16.442308,-23.569422 C -16.442332,-22.360837 -15.958925,-20.565327 -14.992087,-18.182886 C -13.99077,-15.80032 -13.524628,-13.935752 -13.59366,-12.589178 C -13.593686,-12.071185 -13.731803,-11.17343 -14.008008,-9.8959103 C -14.284267,-8.6182812 -14.422383,-7.7032614 -14.422358,-7.1508493 C -14.422383,-6.6673908 -14.353325,-6.2703069 -14.215183,-5.9595965 C -14.111622,-5.7869004 -13.956241,-5.7351069 -13.749041,-5.8042157 C -13.231131,-5.9768101 -12.506022,-6.8573004 -11.573709,-8.4456898 C -12.091674,-5.2344358 -15.009377,-2.0577647 -20.326828,1.0843335 C -22.467648,3.2251775 -24.7293,7.0406357 -27.11179,12.530719 C -27.457094,14.602494 -27.284449,15.880069 -26.593854,16.363446 C -25.868758,15.50025 -25.195442,14.015501 -24.573904,11.909197 C -23.952397,9.8029587 -22.951055,7.9901841 -21.569875,6.4708682 C -21.949713,7.2650742 -22.433119,8.4563261 -23.020095,10.044627 C -23.054642,10.320894 -23.330874,11.322236 -23.848793,13.048656 C -24.228629,14.360791 -24.418539,15.413927 -24.418523,16.208066 C -24.418539,17.623785 -23.900603,18.745978 -22.864715,19.574649 C -22.450383,19.850908 -21.880655,19.989023 -21.155525,19.988999 C -19.290977,19.989023 -18.272371,19.384766 -18.099703,18.176222 C -17.92708,16.484326 -17.754435,14.792404 -17.581767,13.100449 C -17.340087,11.166856 -16.822151,9.5785194 -16.027959,8.3354378 C -16.442332,9.3368166 -16.649506,10.217307 -16.649482,10.976912 C -16.649506,11.667526 -16.47686,12.185462 -16.131546,12.530719 C -12.92037,14.015501 -10.952215,17.45114 -10.227076,22.837647 M -30.840929,-11.656893 C -31.048114,-11.933068 -31.30708,-12.036655 -31.617834,-11.967654 C -32.03219,-11.691366 -32.153043,-11.311546 -31.980389,-10.828195 C -31.807752,-10.344733 -31.49699,-10.154823 -31.048104,-10.258465 C -30.633765,-10.741816 -30.564706,-11.207958 -30.840929,-11.656893 M -25.920537,19.108507 C -26.127726,18.487011 -26.697454,18.17625 -27.629726,18.176222 C -28.251261,18.521539 -28.492965,19.022211 -28.354837,19.678237 C -28.285791,19.885436 -27.698797,20.058082 -26.593854,20.196173 C -25.972345,20.09261 -25.747906,19.730056 -25.920537,19.108507 M 43.586476,31.953321 C 42.170735,34.128663 39.822761,37.236276 36.542546,41.276169 C 35.333986,42.035812 33.849238,43.416974 32.088297,45.419657 C 31.466734,46.766289 30.275483,47.232431 28.514538,46.818085 C 27.478631,45.954857 26.960695,44.832664 26.96073,43.4515 C 26.960695,42.760922 27.098812,41.794109 27.375078,40.551059 C 27.720335,39.135373 27.910245,38.16856 27.944808,37.650618 C 27.668541,36.649282 27.495896,35.544353 27.426872,34.335826 C 27.910245,35.233592 28.08289,36.338521 27.944808,37.650618 C 28.324592,38.89367 28.807999,39.756896 29.395029,40.240297 C 30.051044,40.516534 30.482658,40.188509 30.68987,39.256219 C 30.413599,35.181798 28.825264,30.175089 25.924858,24.236074 C 22.333805,16.984998 20.193005,12.116404 19.502451,9.6302776 L 18.673753,9.7856591 C 17.948618,11.235913 16.101314,13.583888 13.131838,16.829589 C 10.542138,19.660998 8.9710674,22.129824 8.4186186,24.236074 C 8.1078418,24.788559 6.9856482,26.083398 5.0520344,28.120594 C 3.5672739,29.674418 2.8248996,31.055579 2.8249095,32.264082 C 2.8248996,32.989205 3.0666028,33.748844 3.55002,34.543001 C 4.3787062,34.335837 4.8103191,33.627992 4.84486,32.419463 C 4.8448481,31.072844 5.1210803,30.192353 5.6735577,29.77799 C 5.8461901,31.400869 6.3986546,33.610727 7.3309529,36.40757 C 7.7107579,38.824612 7.5208482,40.274831 6.7612233,40.758234 C 6.4159191,40.930883 6.0706288,41.017206 5.7253512,41.017201 C 4.8621126,41.017206 3.9988867,40.516534 3.1356711,39.515187 C 2.4105512,38.686495 1.702706,37.857798 1.0121334,37.029094 C -4.4779911,31.36634 -7.2230498,26.756714 -7.2230498,23.200202 C -7.2230498,21.922649 -6.964082,20.645075 -6.4461456,19.367475 C -6.3425593,18.987681 -6.2907657,18.573333 -6.2907649,18.124429 C -6.2907657,17.641049 -6.3943528,16.829617 -6.6015262,15.69013 C -6.774172,14.5507 -6.8604949,13.687475 -6.8604949,13.100449 C -6.8604949,12.478959 -6.7914362,11.891965 -6.6533198,11.339467 C -5.7900943,13.894649 -4.8923396,17.848223 -3.9600525,23.200202 C -3.5457072,24.02892 -2.8896555,24.684972 -1.9918956,25.168359 C -0.95602965,25.341024 -0.12733285,25.064791 0.49419736,24.339661 C 0.94306726,23.510985 1.2883576,21.870856 1.5300694,19.419269 C 1.737235,17.209436 2.2896996,15.603837 3.1874647,14.602463 C 2.8076351,16.605179 2.6177254,17.744636 2.6177351,18.020842 C 2.6177254,19.056739 2.9802803,19.919966 3.7054007,20.610521 C 4.2923835,20.645075 4.8103191,20.420636 5.2592089,19.937205 C 5.7080739,19.453824 6.1396869,18.987681 6.5540489,18.538777 C 8.4531321,16.087243 10.110526,11.926494 11.526234,6.0565194 C 11.664333,5.5040938 11.819714,4.9688937 11.992379,4.4509177 L 11.526234,6.0565194 C 11.146396,7.6448942 11.3881,8.8016168 12.251346,9.5266905 C 13.045495,9.2504938 13.684282,8.5944426 14.16771,7.5585335 C 14.547508,6.6953454 14.927328,5.814855 15.307169,4.9170602 C 15.445263,2.707242 14.892798,0.54917736 13.649773,-1.5571402 C 12.890115,-2.834668 11.491687,-4.5783842 9.4544901,-6.7882942 C 7.4172612,-9.0326297 6.0360998,-10.759081 5.3110024,-11.967654 C 5.7943965,-11.311546 6.243274,-10.759081 6.6576361,-10.310259 C 7.7280224,-9.1707453 8.6775703,-8.5664877 9.5062837,-8.4974833 C 9.9896735,-8.6700748 10.110526,-9.2570682 9.8688394,-10.258465 C 7.6934934,-15.092475 5.0174933,-17.716682 1.840831,-18.131093 C 0.28701555,-18.200088 -1.2840555,-18.269146 -2.8723869,-18.338268 C -4.5988427,-18.579907 -5.7037723,-19.425869 -6.1871778,-20.876154 C -6.4634106,-21.53214 -6.6015271,-22.205456 -6.6015262,-22.896105 C -6.6015271,-24.104553 -6.1526493,-25.485714 -5.2548929,-27.039593 C -4.5297847,-28.213508 -3.804675,-29.370231 -3.0795613,-30.509765 C -2.90692,-30.198928 -2.8205975,-29.870902 -2.8205932,-29.525686 C -2.8205975,-29.111263 -2.9932427,-28.507005 -3.3385292,-27.71291 C -3.6492943,-26.918669 -3.804675,-26.314411 -3.8046717,-25.900134 C -3.804675,-25.347598 -3.6147653,-24.846927 -3.234942,-24.398119 C -2.37172,-23.880114 -1.4567007,-23.776527 -0.48988111,-24.087357 C 1.5127963,-24.985043 3.5327448,-26.849611 5.5699705,-29.681067 C 7.7107579,-32.650489 9.6789122,-34.635909 11.474441,-35.637331 C 9.8860864,-33.87627 9.0919188,-32.374256 9.0919352,-31.131287 C 9.0919188,-30.924037 9.1091838,-30.734127 9.1437288,-30.561558 C 9.3854159,-30.009018 9.955145,-29.698256 10.852918,-29.629273 C 12.165005,-30.216192 13.062759,-31.580089 13.546186,-33.720968 C 14.064101,-36.137921 14.720153,-37.691728 15.514343,-38.382392 C 15.238089,-37.864373 14.927328,-37.104734 14.582058,-36.103473 C 14.236746,-35.136579 14.184953,-33.962592 14.426678,-32.581509 C 14.737418,-30.647805 14.892798,-29.542876 14.892821,-29.266717 C 14.892798,-28.368889 14.685624,-27.574721 14.271297,-26.884212 C 14.064101,-26.469792 13.166347,-25.433921 11.578028,-23.776596 C 10.369494,-22.533482 9.765235,-21.394024 9.7652523,-20.358218 C 9.765235,-19.978334 9.8342928,-19.581249 9.9724265,-19.166965 C 10.766577,-16.784398 12.199534,-13.366024 14.271297,-8.9118318 C 14.754682,-8.5319584 15.151766,-8.4283713 15.46255,-8.6010704 C 15.531585,-8.8427197 15.566115,-9.1016875 15.566137,-9.3779747 C 15.566115,-9.7577396 15.410734,-10.344733 15.099995,-11.138957 C 14.823741,-11.967598 14.685624,-12.58912 14.685645,-13.003526 C 14.685624,-13.348759 14.737418,-13.65952 14.841027,-13.935811 C 13.425314,-12.347417 12.406708,-11.294281 11.785204,-10.776402 C 11.888773,-11.018049 11.99236,-11.277017 12.095966,-11.553306 C 12.993702,-12.623649 14.392127,-14.160191 16.291247,-16.162936 C 16.08405,-15.472295 15.980463,-14.712655 15.980486,-13.884018 C 15.980463,-12.295623 16.394812,-10.172088 17.223532,-7.5134048 C 17.914089,-5.3380229 18.60467,-3.1454293 19.295276,-0.93561701 C 19.985831,-0.5902808 20.469237,-0.57301622 20.745498,-0.88382337 C 21.919457,-2.2304099 22.713624,-4.4920617 23.128003,-7.6687855 C 23.542321,-10.98352 24.215638,-13.245172 25.147954,-14.453748 C 25.216979,-14.108398 25.199715,-13.590462 25.09616,-12.899939 C 24.958012,-12.036655 24.888954,-11.466926 24.888986,-11.19075 C 24.888954,-10.396527 25.113392,-9.7922681 25.562302,-9.3779747 C 27.219663,-10.068501 28.04836,-11.760423 28.048396,-14.453748 C 28.04836,-15.83485 27.582218,-17.733946 26.649968,-20.151043 C 25.717651,-22.60254 25.251509,-24.467108 25.251541,-25.744753 C 25.251509,-26.504321 25.355096,-27.246695 25.562302,-27.971878 C 25.734915,-29.007676 26.062941,-30.544218 26.546381,-32.581509 C 26.44276,-27.160373 27.564954,-23.966437 29.912965,-22.999692 C 30.741625,-22.619804 31.397677,-22.516217 31.881122,-22.68893 C 32.468077,-23.241327 32.778838,-24.225405 32.813407,-25.641166 C 32.882425,-27.056785 33.05507,-27.885482 33.331343,-28.127258 C 33.262245,-26.711495 33.503947,-24.864192 34.056453,-22.585343 C 34.781522,-19.719366 35.195871,-17.872063 35.2995,-17.043427 C 36.680619,-14.798978 38.199896,-13.676785 39.857337,-13.676843 C 40.133522,-14.056604 40.271639,-14.505481 40.271686,-15.023477 C 40.271639,-15.334178 40.185316,-15.83485 40.012718,-16.525492 C 39.874555,-17.216011 39.805497,-17.733946 39.805544,-18.079299 C 39.805497,-18.493585 39.874555,-18.873405 40.012718,-19.218759 C 41.773651,-15.351442 42.654142,-12.105714 42.654191,-9.4815618 C 42.654142,-8.6182812 42.550555,-7.8759072 42.34343,-7.2544365 C 41.790916,-6.4602165 40.996748,-6.0631327 39.960924,-6.0631837 C 39.13218,-6.0631327 38.4416,-6.3048359 37.88918,-6.7882942 C 36.473445,-8.0312878 35.403045,-8.6528106 34.677977,-8.652864 C 34.367174,-8.6528106 34.056412,-8.601017 33.745692,-8.4974833 C 32.019199,-7.8759072 30.603509,-6.4602165 29.498616,-4.2504076 C 27.910245,-1.0391582 26.97796,0.73908703 26.701762,1.0843335 C 25.942089,3.1906484 25.56227,5.4868292 25.562302,7.9728828 C 25.56227,11.632998 26.339174,15.569307 27.893015,19.781824 C 28.100154,20.09261 28.566296,20.247991 29.291442,20.247967 C 29.671225,19.833643 29.912928,19.298443 30.016552,18.642365 C 29.878399,17.2267 29.84387,15.914597 29.912965,14.706051 C 29.912928,17.813695 29.947457,19.125798 30.016552,18.642365 C 30.638038,26.066133 32.968748,30.347734 37.008689,31.487178 C 38.355277,31.55625 39.201238,31.280018 39.546575,30.658481 C 40.375225,29.726211 40.789574,28.586753 40.789622,27.240103 C 40.789574,26.618598 40.668722,25.686314 40.427066,24.443248 C 40.219845,23.165695 40.116258,22.216146 40.116305,21.5946 C 40.116258,20.213463 40.547871,19.056739 41.411145,18.124429 C 43.137548,22.371527 44.000774,26.01434 44.000825,29.052879 C 44.000774,30.157824 43.862658,31.124637 43.586476,31.953321 M 34.677977,-11.19075 C 34.816051,-11.605043 34.66067,-11.812217 34.211834,-11.812274 C 34.211793,-11.190694 34.367174,-10.98352 34.677977,-11.19075 M 30.84525,-15.645 C 30.879741,-16.128346 30.672567,-16.370049 30.223727,-16.370111 C 29.464051,-16.370049 29.222348,-16.042024 29.498616,-15.386033 C 29.567638,-14.764449 29.912928,-14.453688 30.534488,-14.453748 C 30.810683,-14.798978 30.91427,-15.196063 30.84525,-15.645 M 7.5381273,-28.748782 C 7.5381128,-29.473818 7.2100869,-29.767315 6.5540489,-29.629273 C 5.9325126,-29.007676 5.6908094,-28.248037 5.8289384,-27.350355 C 6.0360998,-27.315753 6.346861,-27.246695 6.7612233,-27.14318 C 6.8993256,-27.212166 7.1582934,-27.747366 7.5381273,-28.748782 M 4.4305111,-20.461806 C 3.739919,-21.428553 3.0320738,-21.808372 2.3069734,-21.601265 C 1.9962028,-21.53214 1.8408221,-21.15232 1.840831,-20.461806 C 2.0134673,-20.254566 2.3242286,-20.047391 2.7731159,-19.840282 C 3.2565125,-19.667572 3.6363319,-19.598514 3.9125751,-19.633108 C 4.3959707,-19.667572 4.5686158,-19.943804 4.4305111,-20.461806 M 23.80132,6.3154874 C 24.077521,5.5558873 23.835818,5.1760679 23.07621,5.1760281 C 22.834476,5.1760679 22.661831,5.3487131 22.558273,5.6939641 C 22.316541,6.5227002 22.368334,7.1269586 22.713655,7.50674 C 22.851741,7.6103649 22.989857,7.6621585 23.128003,7.6621207 C 23.473263,7.6621585 23.697702,7.2132807 23.80132,6.3154874 M 36.387165,33.714304 C 36.387122,33.299966 36.128154,33.058263 35.610261,32.989193 C 35.092284,32.885617 34.833316,33.040998 34.833358,33.455335 C 34.971431,33.766108 35.264928,34.025076 35.713849,34.232239 C 36.162683,34.370366 36.387122,34.197721 36.387165,33.714304 M -0.33450027,27.758039 C -0.36903607,27.481824 -0.57621023,27.360972 -0.95602356,27.395484 C -1.370378,27.43003 -1.5602877,27.602676 -1.5257531,27.91342 C -1.4221716,28.362314 -1.1632039,28.517695 -0.74884916,28.379562 C -0.47262319,27.965231 -0.33450701,27.758057 -0.33450027,27.758039"
         style="font-size:129.04458618px;font-style:normal;font-variant:normal;font-weight:normal;font-stretch:normal;text-align:start;line-height:125%;writing-mode:lr-tb;text-anchor:start;color:#000000;fill:url(#radialGradient2438);fill-opacity:1.0;fill-rule:nonzero;stroke:url(#radialGradient2436);stroke-width:0.58596718;stroke-linecap:butt;stroke-linejoin:miter;marker:none;marker-start:none;marker-mid:none;marker-end:none;stroke-miterlimit:4;stroke-dashoffset:0;stroke-opacity:1;visibility:visible;display:inline;overflow:visible;font-family:Seaweed Fire AOE" />
    </g>
  </g>
</svg>
