<?xml version="1.0" encoding="UTF-8" standalone="no"?>
<!-- Created with Inkscape (http://www.inkscape.org/) -->
<svg
   xmlns:dc="http://purl.org/dc/elements/1.1/"
   xmlns:cc="http://web.resource.org/cc/"
   xmlns:rdf="http://www.w3.org/1999/02/22-rdf-syntax-ns#"
   xmlns:svg="http://www.w3.org/2000/svg"
   xmlns="http://www.w3.org/2000/svg"
   xmlns:xlink="http://www.w3.org/1999/xlink"
   xmlns:sodipodi="http://inkscape.sourceforge.net/DTD/sodipodi-0.dtd"
   xmlns:inkscape="http://www.inkscape.org/namespaces/inkscape"
   width="744.09448819"
   height="1052.3622047"
   id="svg2660"
   sodipodi:version="0.32"
   inkscape:version="0.42+0.43pre1"
   sodipodi:docbase="c:\users\proj\keyboardhero\data"
   sodipodi:docname="3x.svg">
  <defs
     id="defs2662">
    <radialGradient
       inkscape:collect="always"
       xlink:href="#linearGradient2762"
       id="radialGradient2436"
       gradientUnits="userSpaceOnUse"
       gradientTransform="matrix(2.739384,1.408218,-1.636432,3.183326,-399.2871,-888.6604)"
       cx="255.18288"
       cy="176.28802"
       fx="255.18288"
       fy="176.28802"
       r="12.445148" />
    <linearGradient
       id="linearGradient2762">
      <stop
         style="stop-color:yellow;stop-opacity:1"
         offset="0"
         id="stop2764" />
      <stop
         style="stop-color:#888100;stop-opacity:0.6156863;"
         offset="1"
         id="stop2766" />
    </linearGradient>
    <radialGradient
       inkscape:collect="always"
       xlink:href="#linearGradient2762"
       id="radialGradient2438"
       gradientUnits="userSpaceOnUse"
       gradientTransform="matrix(1.996297,-2.726133e-2,2.375726e-3,0.173970,-858.4197,9.603343)"
       cx="433.02878"
       cy="49.637108"
       fx="433.02878"
       fy="49.637108"
       r="340.46094" />
    <linearGradient
       id="linearGradient7874">
      <stop
         style="stop-color:#ffffc1;stop-opacity:0.79215688;"
         offset="0"
         id="stop7876" />
      <stop
         style="stop-color:#e6d200;stop-opacity:0;"
         offset="1"
         id="stop7878" />
    </linearGradient>
    <radialGradient
       inkscape:collect="always"
       xlink:href="#linearGradient7874"
       id="radialGradient2658"
       gradientUnits="userSpaceOnUse"
       gradientTransform="matrix(0.821990,0.000000,0.000000,0.860722,57.16717,-78.38346)"
       cx="-66.071434"
       cy="98.790756"
       fx="-66.071434"
       fy="98.790756"
       r="68.214287" />
    <radialGradient
       inkscape:collect="always"
       xlink:href="#linearGradient2762"
       id="radialGradient2691"
       gradientUnits="userSpaceOnUse"
       gradientTransform="matrix(1.996297,-2.726133e-2,2.375726e-3,0.173970,-863.4197,8.174770)"
       cx="433.02878"
       cy="49.637108"
       fx="433.02878"
       fy="49.637108"
       r="340.46094" />
    <radialGradient
       inkscape:collect="always"
       xlink:href="#linearGradient2762"
       id="radialGradient2693"
       gradientUnits="userSpaceOnUse"
       gradientTransform="matrix(2.739384,1.408218,-1.636432,3.183326,-404.2871,-890.0890)"
       cx="255.18288"
       cy="176.28802"
       fx="255.18288"
       fy="176.28802"
       r="12.445148" />
    <radialGradient
       inkscape:collect="always"
       xlink:href="#linearGradient7874"
       id="radialGradient2728"
       gradientUnits="userSpaceOnUse"
       gradientTransform="matrix(1.996297,-2.726133e-2,2.375726e-3,0.173970,-863.4197,8.174770)"
       cx="433.02878"
       cy="49.637108"
       fx="433.02878"
       fy="49.637108"
       r="340.46094" />
  </defs>
  <sodipodi:namedview
     id="base"
     pagecolor="#ffffff"
     bordercolor="#666666"
     borderopacity="1.0"
     inkscape:pageopacity="0.0"
     inkscape:pageshadow="2"
     inkscape:zoom="1.4"
     inkscape:cx="74.550865"
     inkscape:cy="1076.2524"
     inkscape:document-units="px"
     inkscape:current-layer="layer1"
     inkscape:window-width="719"
     inkscape:window-height="538"
     inkscape:window-x="88"
     inkscape:window-y="88" />
  <metadata
     id="metadata2665">
    <rdf:RDF>
      <cc:Work
         rdf:about="">
        <dc:format>image/svg+xml</dc:format>
        <dc:type
           rdf:resource="http://purl.org/dc/dcmitype/StillImage" />
      </cc:Work>
    </rdf:RDF>
  </metadata>
  <g
     inkscape:label="Layer 1"
     inkscape:groupmode="layer"
     id="layer1">
    <path
       style="color:#000000;fill:url(#radialGradient2658);fill-opacity:1;fill-rule:evenodd;stroke:none;stroke-width:8;stroke-linecap:butt;stroke-linejoin:miter;marker:none;marker-start:none;marker-mid:none;marker-end:none;stroke-miterlimit:4;stroke-dashoffset:0;stroke-opacity:1;visibility:visible;display:inline;overflow:visible"
       d="M -53.214291,-52.065647 L 58.928572,-52.065647 L 58.928572,65.361433 L -53.214291,65.361433 L -53.214291,-52.065647 z "
       id="rect2647" />
    <path
       style="font-size:101.10977173px;font-style:normal;font-variant:normal;font-weight:normal;font-stretch:normal;text-align:start;line-height:125%;writing-mode:lr-tb;text-anchor:start;color:#000000;fill:url(#radialGradient2728);fill-opacity:1.0;fill-rule:nonzero;stroke:url(#radialGradient2693);stroke-width:0.58596718;stroke-linecap:butt;stroke-linejoin:miter;stroke-miterlimit:4;stroke-dashoffset:0;stroke-opacity:1;marker:none;marker-start:none;marker-mid:none;marker-end:none;visibility:visible;display:inline;overflow:visible;font-family:Seaweed Fire AOE"
       d="M -11.432902,19.064532 C -11.82789,21.796361 -14.329302,24.001552 -18.937143,25.680113 C -19.661257,25.844697 -20.368893,25.926981 -21.060053,25.926963 C -22.969044,25.926981 -25.305889,25.268714 -28.070594,23.952163 C -30.80241,22.602737 -32.332879,21.928014 -32.662005,21.927992 C -33.320278,21.928014 -33.995001,22.421714 -34.686175,23.409092 C -35.37736,24.363599 -36.019169,24.840841 -36.611605,24.840823 C -36.940742,24.840841 -37.319245,24.742102 -37.747115,24.544603 C -38.86617,23.952182 -39.26113,22.849587 -38.931996,21.236812 C -38.405384,20.381089 -37.993967,18.982273 -37.697745,17.040362 C -37.368615,15.098503 -37.039481,13.880711 -36.710345,13.386981 C -36.907828,15.26307 -36.529325,16.382122 -35.574835,16.744142 C -34.58744,15.954249 -34.093741,14.851654 -34.093735,13.436351 C -34.093741,12.909769 -34.176024,12.152763 -34.340585,11.165331 C -34.505157,10.145051 -34.58744,9.4045018 -34.587435,8.9436808 C -34.58744,7.4297035 -33.945631,6.3600211 -32.662005,5.7346304 C -33.122798,6.4916744 -33.353191,7.265137 -33.353185,8.0550207 C -33.353191,8.9766288 -32.875948,10.326074 -31.921455,12.103361 C -30.966977,13.880711 -30.489734,15.26307 -30.489725,16.250442 C -30.489734,17.204955 -30.818867,18.142984 -31.477125,19.064532 C -31.115087,19.722823 -30.456821,20.167152 -29.502324,20.397522 C -28.745329,20.463372 -28.202259,20.019042 -27.873114,19.064532 C -27.774386,18.208811 -27.675646,17.369521 -27.576894,16.546662 C -27.445253,15.55929 -27.033837,14.933937 -26.342644,14.670601 C -26.671791,15.822596 -26.836357,16.859365 -26.836344,17.780912 C -26.836357,19.39369 -26.408484,20.545655 -25.552724,21.236812 C -23.87416,22.125494 -22.458888,22.29006 -21.306903,21.730512 C -20.681569,21.401401 -19.661257,20.381089 -18.245963,18.669572 C -18.081418,18.241724 -17.999135,17.797394 -17.999113,17.336582 C -17.999135,16.842909 -18.163701,16.118816 -18.492813,15.164301 C -18.789054,14.209844 -18.937164,13.469295 -18.937143,12.942651 C -18.937164,12.646462 -18.904251,12.350243 -18.838403,12.053991 C -18.575118,13.930081 -17.785198,14.999763 -16.468643,15.263041 C -16.00788,14.933937 -15.826857,14.423781 -15.925573,13.732571 C -16.024337,13.173075 -16.123077,12.613549 -16.221793,12.053991 C -17.867482,9.1905653 -21.586685,6.6562409 -27.379414,4.4510102 C -28.663046,3.6940435 -29.140288,2.2952281 -28.811144,0.25455976 C -28.416196,-0.89736245 -27.675646,-2.3620045 -26.589494,-4.1393708 C -26.655334,-2.5923976 -26.457854,-1.3746054 -25.997054,-0.48599033 C -25.371715,0.20523324 -24.598252,0.2546032 -23.676664,-0.33788031 C -23.018414,-0.63405601 -22.360148,-1.2100388 -21.701864,-2.0658305 C -20.747396,-3.2506637 -20.18787,-3.9418431 -20.023283,-4.1393708 C -18.871338,-5.1925487 -18.295355,-6.5255375 -18.295333,-8.1383412 C -18.295355,-9.6852147 -18.953621,-11.775209 -20.270133,-14.408332 C -20.599286,-15.06654 -21.372749,-15.445043 -22.590524,-15.543842 C -26.276831,-14.786777 -28.432652,-13.322135 -29.057994,-11.149912 C -29.058005,-10.491591 -28.432652,-10.409307 -27.181934,-10.903062 C -27.8073,-10.277654 -28.350369,-8.961122 -28.811144,-6.9534611 C -29.206115,-5.2090053 -29.897294,-4.0241263 -30.884685,-3.3988207 L -32.612635,-3.3988207 C -33.962088,-4.6823924 -36.068539,-6.3938843 -38.931996,-8.5333013 C -39.853569,-9.3231683 -40.281442,-10.162458 -40.215616,-11.051172 C -40.182702,-11.775209 -39.870026,-12.647412 -39.277586,-13.667782 C -38.783887,-14.490557 -38.290187,-15.31339 -37.796485,-16.136282 C -37.664834,-16.991968 -37.500268,-17.831257 -37.302785,-18.654152 C -37.204048,-17.864171 -37.368615,-17.024882 -37.796485,-16.136282 C -38.026881,-14.655124 -38.059794,-13.470245 -37.895225,-12.581642 C -37.566094,-12.054973 -37.088851,-11.923319 -36.463495,-12.186682 C -35.673579,-13.042372 -34.83429,-14.753864 -33.945625,-17.321162 C -33.155712,-19.592119 -32.118942,-21.171958 -30.835315,-22.060683 C -32.217682,-20.447865 -32.908862,-19.164246 -32.908855,-18.209822 C -33.040515,-17.386928 -32.612642,-16.761575 -31.625235,-16.333762 C -30.078318,-16.432442 -28.679502,-17.502124 -27.428784,-19.542813 C -26.046438,-21.780854 -24.828646,-23.097386 -23.775404,-23.492413 C -24.433686,-22.504947 -24.828646,-21.715027 -24.960284,-21.122653 C -25.453998,-20.168102 -25.124865,-19.427553 -23.972884,-18.901002 C -22.656368,-18.637633 -20.665113,-18.60472 -17.999113,-18.802262 C -17.011736,-19.460466 -16.797799,-20.645345 -17.357303,-22.356903 C -17.916852,-24.101242 -17.768742,-25.302578 -16.912973,-25.960913 C -16.814256,-25.039271 -16.715516,-24.298722 -16.616753,-23.739263 C -16.45221,-22.620143 -15.744574,-20.036449 -14.493843,-15.988172 C -13.539382,-12.795522 -13.111509,-10.096631 -13.210223,-7.8914912 C -13.308989,-6.3445143 -14.164735,-4.5671959 -15.777463,-2.5595306 C -17.752285,-0.1238998 -18.920707,1.5053088 -19.282733,2.3281 C -19.513147,3.1180607 -19.463777,3.8915233 -19.134623,4.6484903 C -18.805511,5.372622 -18.311811,5.6688417 -17.653523,5.5371504 C -16.731973,5.372622 -16.15599,4.3358529 -15.925573,2.42684 C -15.66229,0.51790963 -14.971111,-0.60114271 -13.852033,-0.93032038 C -14.247018,-0.10744315 -14.493868,0.55082294 -14.592583,1.0444798 C -14.888828,1.8344418 -15.036938,2.6572744 -15.036913,3.5129801 C -15.036938,4.7966392 -14.543238,6.6397842 -13.555813,9.0424208 C -12.56844,11.445127 -12.07474,13.271815 -12.074712,14.522491 C -12.07474,15.641573 -12.32159,16.711255 -12.815262,17.731542 C -12.848203,17.764481 -13.193793,18.324007 -13.852033,19.410122 C -14.279932,20.101326 -14.477411,20.627939 -14.444473,20.989962 C -14.411585,21.187465 -14.296388,21.286205 -14.098883,21.286182 C -13.605209,21.286205 -12.71655,20.545655 -11.432902,19.064532 M -29.699804,-9.6688114 C -30.75304,-8.9446653 -30.95052,-8.2205726 -30.292245,-7.4965311 C -29.996034,-7.8914396 -29.798555,-8.6155323 -29.699804,-9.6688114 M 39.220723,31.308293 C 37.871229,33.381844 35.633124,36.344041 32.506402,40.194894 C 31.354395,40.918991 29.939123,42.235523 28.260582,44.144495 C 27.668105,45.428113 26.532596,45.872443 24.854051,45.477485 C 23.866618,44.654651 23.372919,43.584968 23.372951,42.268435 C 23.372919,41.61017 23.504572,40.688597 23.767911,39.503714 C 24.097011,38.154273 24.278034,37.232701 24.310981,36.738994 C 24.047641,35.784515 23.883075,34.731289 23.817281,33.579314 C 24.278034,34.43507 24.442601,35.488295 24.310981,36.738994 C 24.672994,37.92388 25.13378,38.746713 25.693341,39.207494 C 26.318659,39.470805 26.730076,39.158129 26.927591,38.269464 C 26.664249,34.3857 25.150237,29.613271 22.385551,23.952163 C 18.962536,17.040388 16.921911,12.399612 16.26367,10.029821 L 15.47375,10.177931 C 14.782546,11.560323 13.021684,13.798428 10.191159,16.892252 C 7.7226424,19.591169 6.225087,21.944471 5.6984889,23.952163 C 5.4022544,24.478795 4.332572,25.713044 2.4894386,27.654913 C 1.0741549,29.136028 0.36651889,30.45256 0.36652832,31.604513 C 0.36651889,32.295705 0.59691202,33.019798 1.0577084,33.776794 C 1.8476176,33.579324 2.2590339,32.904601 2.2919585,31.752623 C 2.2919472,30.469016 2.5552536,29.629727 3.0818786,29.234753 C 3.246433,30.781693 3.7730459,32.888144 4.6617188,35.554114 C 5.0237514,37.858053 4.8427283,39.240412 4.1186488,39.701194 C 3.7895025,39.865765 3.4603695,39.948048 3.1312486,39.948044 C 2.3084038,39.948048 1.4855712,39.470805 0.66274835,38.516314 C -0.028440763,37.7264 -0.7031635,36.936481 -1.3614219,36.146554 C -6.594645,30.74878 -9.2112526,26.354853 -9.2112528,22.964762 C -9.2112526,21.746991 -8.9644029,20.529199 -8.4707027,19.311382 C -8.3719634,18.94936 -8.3225934,18.5544 -8.3225927,18.126502 C -8.3225934,17.665741 -8.4213333,16.892278 -8.6188127,15.806112 C -8.7833797,14.72 -8.865663,13.897168 -8.8656628,13.337611 C -8.865663,12.745202 -8.7998363,12.185676 -8.6681827,11.659031 C -7.8453505,14.094648 -6.9896046,17.863221 -6.1009424,22.964762 C -5.7059857,23.754702 -5.080633,24.380055 -4.2248822,24.840823 C -3.2374879,25.005408 -2.4475686,24.742102 -1.8551219,24.050903 C -1.4272562,23.261003 -1.0981232,21.697621 -0.86772183,19.360752 C -0.6702502,17.254325 -0.14363733,15.723856 0.71211836,14.769341 C 0.35006224,16.678342 0.16903906,17.764481 0.16904829,18.027762 C 0.16903906,19.015187 0.51462876,19.838019 1.2058184,20.496262 C 1.7653343,20.529199 2.2590339,20.315262 2.6869186,19.854452 C 3.1147798,19.39369 3.5261961,18.94936 3.9211687,18.521462 C 5.7313875,16.184642 7.3112261,12.218589 8.6606893,6.6232905 C 8.7923248,6.0967147 8.9404346,5.5865585 9.1050193,5.0928203 L 8.6606893,6.6232905 C 8.2986252,8.1373396 8.5290183,9.2399353 9.3518694,9.9310809 C 10.108857,9.6678082 10.717753,9.0424554 11.17856,8.0550207 C 11.540586,7.2322237 11.902632,6.3929344 12.2647,5.5371504 C 12.396332,3.4307371 11.869719,1.3736555 10.68486,-0.63410035 C 9.9607471,-1.8518483 8.6277583,-3.5139701 6.6858891,-5.6204709 C 4.7439884,-7.7597864 3.4274562,-9.4054516 2.7362886,-10.557471 C 3.1970631,-9.9320645 3.624936,-9.4054516 4.0199087,-8.9776313 C 5.0402081,-7.8914396 5.945324,-7.3154568 6.7352591,-7.2496811 C 7.1960295,-7.4141967 7.3112261,-7.9737229 7.0808491,-8.9282613 C 5.0072948,-13.536071 2.4565137,-16.037482 -0.57150179,-16.432502 C -2.052609,-16.498269 -3.5501643,-16.564095 -5.0641723,-16.629982 C -6.7098415,-16.860315 -7.7630673,-17.666691 -8.2238527,-19.049112 C -8.48716,-19.674403 -8.6188132,-20.316212 -8.6188127,-20.974543 C -8.6188132,-22.126444 -8.1909402,-23.442976 -7.3351926,-24.924143 C -6.6440149,-26.043127 -5.9528355,-27.145723 -5.2616523,-28.231934 C -5.0970896,-27.935642 -5.0148064,-27.622965 -5.0148023,-27.293903 C -5.0148064,-26.898873 -5.1793729,-26.32289 -5.5085024,-25.565953 C -5.8047257,-24.808878 -5.9528355,-24.232895 -5.9528324,-23.838003 C -5.9528355,-23.311323 -5.7718124,-22.83408 -5.4097624,-22.406273 C -4.5869334,-21.912507 -3.7147308,-21.813767 -2.793152,-22.110053 C -0.88418667,-22.965733 1.0412416,-24.743051 2.9831386,-27.442013 C 5.0237514,-30.272486 6.8998098,-32.165001 8.6113193,-33.119564 C 7.0972896,-31.440909 6.3402836,-30.00918 6.340299,-28.824374 C 6.3402836,-28.626821 6.3567403,-28.445798 6.389669,-28.281304 C 6.6200467,-27.754619 7.1631162,-27.458399 8.0188792,-27.392643 C 9.2695677,-27.952099 10.125314,-29.252174 10.58612,-31.292874 C 11.079799,-33.59673 11.705152,-35.077829 12.46218,-35.736174 C 12.198852,-35.242395 11.902632,-34.518303 11.57352,-33.563894 C 11.244366,-32.642244 11.194996,-31.523192 11.42541,-30.206734 C 11.721609,-28.363515 11.869719,-27.310289 11.86974,-27.047053 C 11.869719,-26.191237 11.672239,-25.434231 11.2773,-24.776033 C 11.079799,-24.381005 10.224054,-23.393606 8.7100593,-21.813833 C 7.5580759,-20.628888 6.982093,-19.542749 6.9821091,-18.555412 C 6.982093,-18.193304 7.0479196,-17.814801 7.1795891,-17.419902 C 7.9365789,-15.148823 9.302481,-11.890406 11.2773,-7.6446412 C 11.738066,-7.2825435 12.116569,-7.1838036 12.41281,-7.3484211 C 12.478615,-7.5787632 12.511528,-7.825613 12.51155,-8.0889712 C 12.511528,-8.4509658 12.363418,-9.0104919 12.06722,-9.7675514 C 11.803892,-10.557417 11.672239,-11.149857 11.67226,-11.544872 C 11.672239,-11.873949 11.721609,-12.170169 11.82037,-12.433532 C 10.470903,-10.919464 9.4999608,-9.9156078 8.9075393,-9.4219614 C 9.0062613,-9.6523014 9.1050012,-9.8991512 9.2037593,-10.162511 C 10.059487,-11.18277 11.392476,-12.647412 13.20273,-14.556442 C 13.005228,-13.898118 12.906488,-13.174025 12.90651,-12.384162 C 12.906488,-10.870094 13.301447,-8.8459254 14.09139,-6.311651 C 14.749633,-4.2380628 15.407899,-2.148068 16.06619,-0.041660279 C 16.724431,0.28751651 17.185217,0.30397316 17.44855,0.0077097267 C 18.567576,-1.2758654 19.324582,-3.4316869 19.719571,-6.459761 C 20.114501,-9.6193881 20.756311,-11.775209 21.645001,-12.927232 C 21.710797,-12.598042 21.69434,-12.104343 21.595631,-11.446132 C 21.463947,-10.623244 21.39812,-10.080174 21.398151,-9.8169214 C 21.39812,-9.0598619 21.612057,-8.4838791 22.039961,-8.0889712 C 23.619768,-8.7471855 24.409688,-10.359937 24.409721,-12.927232 C 24.409688,-14.243707 23.965358,-16.053939 23.076731,-18.357932 C 22.18804,-20.694715 21.74371,-22.472033 21.743741,-23.689893 C 21.74371,-24.413918 21.84245,-25.121554 22.039961,-25.812803 C 22.204496,-26.800133 22.517173,-28.264775 22.977991,-30.206734 C 22.879219,-25.039271 23.948901,-21.99479 26.187041,-21.073283 C 26.976925,-20.711172 27.602278,-20.612432 28.063102,-20.777063 C 28.622591,-21.303611 28.91881,-22.24164 28.951762,-23.591153 C 29.01755,-24.940531 29.182117,-25.73045 29.445462,-25.960913 C 29.379597,-24.611398 29.60999,-22.850536 30.136642,-20.678323 C 30.827782,-17.946454 31.222742,-16.185592 31.321522,-15.395732 C 32.638014,-13.256308 34.086199,-12.186626 35.666082,-12.186682 C 35.929344,-12.548672 36.060997,-12.976545 36.061042,-13.470302 C 36.060997,-13.766464 35.978714,-14.243707 35.814192,-14.902032 C 35.682494,-15.560239 35.616668,-16.053939 35.616712,-16.383132 C 35.616668,-16.778032 35.682494,-17.140078 35.814192,-17.469272 C 37.492726,-13.782921 38.332015,-10.68907 38.332063,-8.1877112 C 38.332015,-7.3648267 38.233275,-6.6571907 38.035843,-6.064801 C 37.509183,-5.3077452 36.752177,-4.9292422 35.764822,-4.9292908 C 34.974858,-4.9292422 34.316592,-5.1596353 33.790022,-5.6204709 C 32.440534,-6.8053006 31.420221,-7.39774 30.729082,-7.3977911 C 30.432822,-7.39774 30.136603,-7.3483701 29.840422,-7.2496811 C 28.194718,-6.6571907 26.845272,-5.3077452 25.792081,-3.2013406 C 24.278034,-0.14035645 23.389375,1.5546787 23.126101,1.8837699 C 22.401976,3.8915233 22.03993,6.0802581 22.039961,8.4499807 C 22.03993,11.938826 22.780479,15.690943 24.261611,19.706342 C 24.459058,20.002586 24.903387,20.150696 25.594601,20.150672 C 25.956613,19.755736 26.187006,19.24558 26.285781,18.620202 C 26.154093,17.270781 26.121179,16.020076 26.187041,14.868081 C 26.187006,17.830308 26.219919,19.081013 26.285781,18.620202 C 26.878185,25.696587 29.099833,29.777837 32.950732,30.863963 C 34.234309,30.929803 35.040685,30.666496 35.369862,30.074043 C 36.159737,29.185398 36.554697,28.099259 36.554743,26.815623 C 36.554697,26.2232 36.4395,25.334541 36.209152,24.149643 C 36.011627,22.93187 35.912887,22.026754 35.912932,21.434292 C 35.912887,20.117782 36.324304,19.015187 37.147183,18.126502 C 38.792802,22.174864 39.615634,25.647217 39.615683,28.543573 C 39.615634,29.596814 39.483981,30.518386 39.220723,31.308293 M 30.729082,-9.8169214 C 30.860695,-10.211828 30.712585,-10.409307 30.284752,-10.409361 C 30.284712,-9.8168679 30.432822,-9.6193881 30.729082,-9.8169214 M 27.075701,-14.062742 C 27.108579,-14.52347 26.911099,-14.753864 26.483261,-14.753922 C 25.759133,-14.753864 25.52874,-14.441187 25.792081,-13.815892 C 25.857873,-13.223395 26.187006,-12.927175 26.779481,-12.927232 C 27.042752,-13.256308 27.141492,-13.634811 27.075701,-14.062742 M 4.8591988,-26.553353 C 4.8591849,-27.244462 4.5465085,-27.524226 3.9211687,-27.392643 C 3.3287163,-26.800133 3.0983231,-26.07604 3.2299886,-25.220363 C 3.4274562,-25.187381 3.7236759,-25.121554 4.1186488,-25.022883 C 4.2502888,-25.088641 4.4971386,-25.598797 4.8591988,-26.553353 M 1.8969985,-18.654152 C 1.2387214,-19.575663 0.56399871,-19.937709 -0.12717174,-19.740293 C -0.42340041,-19.674403 -0.57151028,-19.312356 -0.57150179,-18.654152 C -0.40694376,-18.45661 -0.11072402,-18.25913 0.31715831,-18.061712 C 0.77793519,-17.897084 1.1399815,-17.831257 1.4032984,-17.864232 C 1.8640742,-17.897084 2.0286408,-18.160391 1.8969985,-18.654152 M 20.361381,6.8701405 C 20.624658,6.1460847 20.394265,5.7840383 19.670201,5.7840004 C 19.439779,5.7840383 19.275212,5.9486048 19.1765,6.2777005 C 18.946079,7.0676572 18.995449,7.64364 19.324611,8.0056507 C 19.456235,8.1044263 19.587889,8.1537962 19.719571,8.1537607 C 20.048675,8.1537962 20.262611,7.7259233 20.361381,6.8701405 M 32.358292,32.986874 C 32.358251,32.591925 32.111401,32.361531 31.617742,32.295693 C 31.124002,32.196965 30.877152,32.345075 30.877192,32.740024 C 31.008805,33.036254 31.288568,33.283104 31.716482,33.480574 C 32.144314,33.612237 32.358251,33.447671 32.358292,32.986874 M -2.645042,27.309323 C -2.6779618,27.046033 -2.8754416,26.930836 -3.2374821,26.963733 C -3.6324476,26.996663 -3.8134708,27.161229 -3.7805522,27.457433 C -3.6818175,27.885322 -3.4349678,28.033432 -3.0400021,27.901763 C -2.7767017,27.506819 -2.6450485,27.309339 -2.645042,27.309323"
       id="text2679" />
  </g>
</svg>
