<?xml version="1.0" encoding="UTF-8" standalone="no"?>
<!-- Created with Inkscape (http://www.inkscape.org/) -->
<svg
   xmlns:dc="http://purl.org/dc/elements/1.1/"
   xmlns:cc="http://web.resource.org/cc/"
   xmlns:rdf="http://www.w3.org/1999/02/22-rdf-syntax-ns#"
   xmlns:svg="http://www.w3.org/2000/svg"
   xmlns="http://www.w3.org/2000/svg"
   xmlns:xlink="http://www.w3.org/1999/xlink"
   xmlns:sodipodi="http://inkscape.sourceforge.net/DTD/sodipodi-0.dtd"
   xmlns:inkscape="http://www.inkscape.org/namespaces/inkscape"
   version="1.0"
   width="744.09448"
   height="1052.3622"
   id="svg3777"
   sodipodi:version="0.32"
   inkscape:version="0.42+0.43pre1"
   sodipodi:docname="pose.svg"
   sodipodi:docbase="c:\users\proj\keyboardhero\data">
  <metadata
     id="metadata2390">
    <rdf:RDF>
      <cc:Work
         rdf:about="">
        <dc:format>image/svg+xml</dc:format>
        <dc:type
           rdf:resource="http://purl.org/dc/dcmitype/StillImage" />
      </cc:Work>
    </rdf:RDF>
  </metadata>
  <sodipodi:namedview
     inkscape:window-height="1031"
     inkscape:window-width="1400"
     inkscape:pageshadow="2"
     inkscape:pageopacity="0.0"
     borderopacity="1.0"
     bordercolor="#666666"
     pagecolor="#ffffff"
     id="base"
     inkscape:zoom="2.0103948"
     inkscape:cx="-146.69939"
     inkscape:cy="1096.0074"
     inkscape:window-x="-4"
     inkscape:window-y="-4"
     inkscape:current-layer="svg3777" />
  <defs
     id="defs3779">
    <linearGradient
       id="linearGradient2355">
      <stop
         style="stop-color:#000000;stop-opacity:0.41520467;"
         offset="0"
         id="stop2357" />
      <stop
         style="stop-color:#000000;stop-opacity:0;"
         offset="1"
         id="stop2359" />
    </linearGradient>
    <radialGradient
       inkscape:collect="always"
       xlink:href="#linearGradient2355"
       id="radialGradient2361"
       cx="-294.96695"
       cy="34.651642"
       fx="-294.96695"
       fy="34.651642"
       r="165.6391"
       gradientTransform="matrix(0.297297,0.000000,0.000000,0.138138,-10.29781,142.2806)"
       gradientUnits="userSpaceOnUse" />
    <radialGradient
       inkscape:collect="always"
       xlink:href="#linearGradient2355"
       id="radialGradient2365"
       gradientUnits="userSpaceOnUse"
       gradientTransform="matrix(0.297297,0.000000,0.000000,0.138138,11.09105,136.3116)"
       cx="-294.96695"
       cy="34.651642"
       fx="-294.96695"
       fy="34.651642"
       r="165.6391" />
    <radialGradient
       inkscape:collect="always"
       xlink:href="#linearGradient2355"
       id="radialGradient2369"
       gradientUnits="userSpaceOnUse"
       gradientTransform="matrix(0.297297,0.000000,0.000000,0.138138,50.88422,131.3168)"
       cx="-294.96695"
       cy="34.651642"
       fx="-294.96695"
       fy="34.651642"
       r="165.6391" />
    <radialGradient
       inkscape:collect="always"
       xlink:href="#linearGradient2355"
       id="radialGradient2373"
       gradientUnits="userSpaceOnUse"
       gradientTransform="matrix(0.459459,0.000000,0.000000,0.231231,134.5513,133.5729)"
       cx="-294.96695"
       cy="34.651642"
       fx="-294.96695"
       fy="34.651642"
       r="165.6391" />
    <radialGradient
       inkscape:collect="always"
       xlink:href="#linearGradient2355"
       id="radialGradient2377"
       gradientUnits="userSpaceOnUse"
       gradientTransform="matrix(0.297297,0.000000,0.000000,0.138138,193.1448,169.1410)"
       cx="-294.96695"
       cy="34.651642"
       fx="-294.96695"
       fy="34.651642"
       r="165.6391" />
    <radialGradient
       inkscape:collect="always"
       xlink:href="#linearGradient2355"
       id="radialGradient2381"
       gradientUnits="userSpaceOnUse"
       gradientTransform="matrix(0.297297,0.000000,0.000000,0.138138,171.2585,163.1720)"
       cx="-294.96695"
       cy="34.651642"
       fx="-294.96695"
       fy="34.651642"
       r="165.6391" />
    <radialGradient
       inkscape:collect="always"
       xlink:href="#linearGradient2355"
       id="radialGradient2385"
       gradientUnits="userSpaceOnUse"
       gradientTransform="matrix(0.297297,0.000000,0.000000,0.138138,148.3775,150.2393)"
       cx="-294.96695"
       cy="34.651642"
       fx="-294.96695"
       fy="34.651642"
       r="165.6391" />
  </defs>
  <path
     d="M 27.601635,-150.91609 L 37.458459,-147.63048 L 56.761406,-70.418696 L 43.208273,-45.776636 L -36.87843,-29.348587 L -38.880597,-51.834475 L -37.340469,-61.793975 L 27.601635,-150.91609 z "
     style="fill:#ffff80;fill-rule:evenodd;stroke:none;stroke-width:0.82140201;stroke-linecap:butt;stroke-linejoin:miter;stroke-miterlimit:4;stroke-dasharray:none;stroke-opacity:1;fill-opacity:1"
     id="path2099" />
  <path
     d="M -18.807578,-175.86618 L -15.316619,-159.13011 L 16.820734,-155.63915 L 23.494625,-174.42872 L -18.807578,-175.86618 z "
     style="fill:#ffff80;fill-rule:evenodd;stroke:none;stroke-width:0.82140201;stroke-linecap:butt;stroke-linejoin:miter;stroke-miterlimit:4;stroke-dasharray:none;stroke-opacity:1;fill-opacity:1"
     id="path2986" />
  <path
     d="M 89.388118,176.92199 C 86.788808,176.67397 84.52748,174.47749 82.85651,172.60583 C 82.726326,172.08716 84.215717,169.21219 85.547612,167.41121 C 88.962246,161.09485 99.78512,152.85774 100.38393,151.29262 C 100.81485,150.16631 90.314323,137.29439 82.939488,133.62766 C 81.389379,130.48864 80.38239,127.09084 78.655581,124.01189 C 72.405204,118.20942 65.515391,113.01873 58.647813,107.94942 C 53.376343,104.34309 48.748367,99.876421 43.564129,96.163421 C 39.736733,93.421655 36.7626,89.726923 33.809299,86.108105 C 28.51082,77.755358 24.612726,67.425916 23.021144,57.700804 C 23.018992,57.410085 22.862852,56.832097 22.674168,56.41641 C 20.76017,49.489223 20.514505,42.246618 18.701851,35.297664 C 17.64727,30.588936 15.449543,26.288264 13.777275,21.810251 C 11.365286,16.335007 8.0781746,10.877604 3.3852832,7.1097428 C -1.4349748,9.3223534 -5.1543652,13.546602 -8.5421145,17.513489 C -16.098693,26.653065 -21.85847,37.076114 -27.941634,47.213061 C -28.580693,48.37026 -28.81025,48.217948 -29.796984,48.14803 C -30.547934,48.09482 -34.371404,55.218001 -37.790909,58.688162 C -39.687912,60.613273 -40.882141,62.986082 -42.166493,65.317903 C -47.971776,74.879203 -54.899275,83.782272 -59.503242,94.042265 C -59.599592,94.464786 -59.980263,95.225059 -60.349179,95.731766 C -64.019105,101.06576 -66.822467,106.92804 -70.151158,112.48099 C -71.312694,114.21473 -71.962333,116.19536 -72.797559,118.083 C -73.258489,119.0248 -73.156052,118.98902 -73.937912,119.02259 C -74.441899,119.04424 -78.461331,123.64982 -81.133656,126.28777 C -82.570838,127.70646 -82.50727,127.68089 -82.441279,129.85325 C -82.418452,130.60484 -82.488813,131.48956 -82.597641,131.81931 C -82.85152,132.58856 -88.079669,137.82344 -88.594064,137.82344 C -89.631594,137.32381 -90.146251,137.09612 -91.285026,137.54942 C -91.823004,137.88621 -92.674765,138.61233 -92.908922,138.71482 C -93.891779,139.14498 -94.81147,140.13309 -96.218728,142.27082 C -99.011651,145.71827 -106.35821,150.35536 -107.85975,150.62805 C -109.43233,150.91364 -113.92393,150.83347 -116.90299,150.25218 C -118.93564,149.6122 -124.35989,149.18513 -123.8464,146.13068 C -123.08338,144.35872 -122.45258,142.54143 -121.73664,140.75783 C -118.09565,132.80294 -110.46805,127.45953 -103.86505,122.08907 C -101.51432,120.25973 -101.41587,120.14021 -101.55956,119.28975 C -101.65567,118.72084 -101.59731,118.50255 -101.21509,118.00144 C -98.849892,114.05894 -96.941956,109.86128 -94.865657,105.76209 C -94.22489,103.4075 -93.912429,100.97142 -93.100292,98.652581 C -92.811035,97.857513 -92.618992,97.05971 -92.305339,96.270696 C -91.82748,95.278278 -91.359741,94.281359 -90.971522,93.253251 C -89.392935,91.217069 -88.018771,89.047475 -86.773082,86.782854 C -85.739224,84.393001 -84.757205,81.994877 -83.613592,79.654727 C -79.898169,72.619066 -76.117609,65.618889 -72.457195,58.550955 C -70.364254,55.08592 -67.638522,52.065428 -65.276531,48.785306 C -62.836179,44.554626 -59.19929,41.052382 -56.693357,36.89824 C -53.665776,30.76603 -51.91467,24.113947 -49.355452,17.785143 C -46.902705,11.108952 -44.061139,4.5541148 -41.531508,-2.1023299 C -42.290607,-3.8239967 -43.603314,-5.2450961 -44.138359,-7.0286719 C -43.837709,-8.9398526 -43.062076,-10.72209 -42.849078,-12.185483 C -42.182683,-16.76383 -41.87023,-21.562953 -41.717991,-26.235589 C -41.581761,-31.250215 -40.422336,-36.07228 -40.286616,-41.111089 C -40.594962,-44.298547 -39.46091,-47.273838 -39.041724,-50.380471 C -38.963083,-52.076337 -38.26264,-53.154822 -36.816488,-51.926743 C -36.752501,-51.72513 -36.79109,-49.66351 -36.902251,-47.345366 C -37.248357,-40.127673 -37.403084,-33.545697 -37.234352,-33.217974 C -36.428827,-32.607919 -35.552063,-31.372908 -34.560105,-31.698602 C -18.207872,-37.067655 -6.767147,-40.680592 10.162359,-46.2432 C 14.308525,-47.605528 9.0234933,-51.655623 11.545961,-56.35185 C 14.78231,-62.377154 17.085365,-63.099141 20.760695,-65.238737 C 24.097781,-67.181427 35.432734,-63.033462 32.986435,-60.354829 C 31.499828,-58.72704 28.726167,-60.453529 28.180313,-59.627913 C 26.688647,-57.371743 28.137247,-56.594344 32.051449,-53.3468 C 36.079202,-54.712684 42.281543,-56.256493 47.687083,-58.085796 C 44.965622,-71.715698 44.897601,-72.193745 42.955249,-82.61594 C 43.393475,-84.004044 44.966262,-85.513239 45.051705,-86.655045 C 45.199417,-88.628817 39.220128,-125.47298 39.022565,-126.59936 C 39.28014,-128.75758 40.265535,-130.66873 40.123884,-131.65577 C 39.983679,-132.63281 38.423878,-141.92269 37.776654,-146.51967 C 43.133435,-143.75846 52.615166,-138.88707 58.056954,-132.53791 C 60.824208,-126.94596 60.396094,-120.32979 60.994189,-114.26725 C 62.455348,-107.19666 61.955706,-100.27706 61.444326,-93.193011 C 61.125597,-85.969224 58.830033,-78.91145 59.026636,-71.674159 C 59.162849,-67.324179 58.955075,-64.261269 58.41787,-62.699841 C 58.115019,-61.819643 58.060067,-61.204676 58.061119,-58.708329 C 58.239314,-54.45253 56.67166,-50.429632 55.455114,-46.420623 C 55.154218,-44.660276 53.201614,-44.606852 53.277799,-42.915274 C 53.821288,-40.317491 54.933236,-37.776344 55.333752,-35.142839 C 54.622837,-34.534493 53.764472,-34.103503 53.020544,-33.538962 C 54.84073,-25.12576 55.503807,-16.470047 56.742079,-7.943722 L 57.134011,2.6887766 C 55.237541,4.7307244 53.575204,6.9465385 52.178747,9.3527042 C 51.994465,12.72773 52.249346,16.163342 52.277471,19.558665 C 52.028759,32.755039 55.709083,45.812299 56.280212,58.932849 C 56.187936,61.369744 57.586463,63.462799 58.558519,65.619686 C 60.3159,69.586606 60.485191,69.831548 61.577122,69.987548 C 67.212999,72.215133 72.543208,76.070392 76.85556,80.367745 C 93.314124,96.979286 109.32888,114.52932 123.59456,133.13652 C 125.02869,135.07709 125.407,135.38795 126.88463,135.84017 C 127.61823,136.06469 128.68638,136.46114 129.25832,136.7212 C 131.45035,138.16653 132.05198,141.34575 132.86379,143.78114 C 133.93611,148.24772 135.94088,152.65446 136.24113,157.28146 C 136.14021,157.68358 131.5457,162.01186 129.49182,163.6397 L 128.63111,164.32186 C 126.56245,164.30244 124.83029,163.91602 123.67859,165.84493 C 118.88815,171.90561 111.27134,175.36451 103.87102,177.25133 C 98.999523,178.23872 94.23209,177.12392 89.388118,176.92199 z M -23.491319,-55.299749 C -24.628813,-54.952632 -24.977925,-55.146565 -25.98788,-56.686612 C -27.563945,-58.286218 -26.805126,-62.902588 -28.740275,-63.744418 C -29.976197,-63.076733 -33.493564,-61.364234 -35.408523,-60.247825 C -36.384094,-59.674733 -36.580532,-59.652054 -36.949194,-60.069983 C -36.765422,-64.196452 -35.877732,-67.620187 -37.476296,-72.029843 C -38.274789,-74.06186 -38.525612,-74.050549 -39.133737,-74.598096 C -41.433942,-76.669171 -45.877513,-91.914498 -47.635601,-100.21776 C -47.543473,-101.46771 -45.249609,-104.49549 -44.512581,-106.84903 C -44.823934,-107.64288 -46.684812,-107.57264 -46.005562,-108.41505 C -45.362757,-109.21226 -42.592234,-111.23397 -42.509642,-111.82027 C -42.425013,-112.42103 -42.508065,-116.68066 -42.3318,-119.24682 C -42.17621,-120.33952 -39.61627,-123.45271 -38.508198,-125.69418 C -39.560858,-127.17995 -41.014854,-128.21599 -41.533274,-129.94718 C -41.003634,-134.26126 -40.126319,-138.55221 -39.234433,-142.80817 C -38.824479,-144.52204 -38.550008,-144.40381 -38.890413,-145.58129 C -39.211302,-146.69126 -34.145067,-152.94189 -33.199025,-153.7758 C -32.365738,-154.51033 -21.38057,-154.75539 -15.435706,-155.00784 C -14.916588,-155.69261 -15.720273,-159.81476 -16.781631,-162.8914 C -17.676318,-166.00723 -17.937072,-169.17928 -19.066689,-172.22294 C -20.273452,-174.14859 -18.916438,-183.66454 -19.047296,-189.2792 C -20.199033,-192.72028 -14.147707,-200.75551 -11.832043,-206.3356 C -9.7987282,-209.16342 -7.2986269,-212.14195 -4.4295847,-214.14744 C -3.4402471,-214.14744 0.77422694,-211.74489 1.0807495,-211.24893 C 5.9578485,-213.18476 10.758598,-215.92791 16.130165,-215.84284 C 19.905115,-213.90964 22.791234,-206.72104 23.396049,-206.12253 C 25.034943,-204.5007 26.415679,-208.35193 28.262765,-208.64348 C 29.787624,-208.23458 30.611572,-201.8371 31.669826,-198.29749 C 32.299332,-196.70629 32.291471,-195.01403 32.902767,-193.44394 C 33.906774,-188.99986 32.297673,-183.11943 31.195211,-178.7349 C 30.866059,-176.11586 29.954944,-173.73469 29.079042,-171.26554 C 26.760339,-167.7585 27.809803,-162.88656 25.696845,-159.42344 C 25.303295,-158.86163 24.981305,-158.2173 24.981305,-157.99161 C 25.524408,-156.14602 26.298571,-154.28599 27.388539,-152.68481 C 30.312311,-145.30773 30.447005,-137.01108 32.718863,-129.38381 C 33.561219,-128.35657 34.416454,-127.38053 35.01487,-126.19914 C 36.466567,-118.4115 37.769771,-110.84359 39.212202,-103.033 C 21.712643,-92.623705 2.4620027,-81.707642 -15.202781,-71.528878 L -17.784316,-70.050584 L -17.410012,-69.395179 C -16.426785,-67.335588 -16.243982,-65.019702 -15.733768,-62.815289 C -15.377444,-61.425009 -15.070815,-58.334566 -14.992354,-55.342839 C -14.944672,-53.524822 -14.949379,-53.501133 -15.443148,-53.075359 C -18.458285,-51.918743 -20.461964,-56.162344 -23.491319,-55.299749 z M 9.9379601,-158.13353 C 11.611665,-158.63372 12.94568,-159.21508 14.052815,-160.32084 C 15.149304,-161.41596 15.0635,-162.92253 15.58652,-165.03377 C 15.773496,-165.78851 16.185585,-165.88681 18.235509,-167.81488 C 19.496738,-169.00114 20.35659,-169.72277 20.855247,-170.39635 C 21.128897,-170.766 20.821323,-170.90985 20.452177,-170.90985 C 20.33263,-170.90985 19.564233,-170.03623 18.565375,-169.05809 C 17.132481,-167.65494 16.496724,-167.35302 16.100906,-167.35302 C 15.824998,-167.35302 15.4955,-167.47802 15.368709,-167.6308 C 15.096036,-167.95935 14.474407,-168.39721 13.692753,-168.84156 C 13.687734,-168.84441 13.682715,-168.84726 13.677697,-168.85011 C 12.714406,-169.39639 11.511175,-169.95148 10.418883,-170.32443 C 9.5247292,-170.62974 8.4852532,-170.78787 7.3445476,-170.79831 C 6.2232928,-170.80858 5.0042255,-170.67616 3.7292124,-170.40057 C 0.25272702,-169.64914 0.37362918,-169.66068 -1.0073776,-169.94862 C -2.4329618,-170.24587 -3.6389935,-170.85788 -5.6544676,-172.30683 C -7.6063159,-173.71003 -8.9014943,-173.48745 -12.601064,-173.87606 C -14.425521,-174.06771 -15.860346,-174.88023 -16.756093,-175.07697 C -17.413576,-175.22138 -17.965049,-174.84154 -17.809492,-174.35142 C -17.317661,-173.777 -16.464652,-173.88261 -15.961215,-173.32273 C -15.907331,-173.10801 -15.840403,-171.7088 -15.991762,-170.84082 C -16.535506,-167.72275 -16.300708,-164.90097 -15.220343,-163.53387 C -14.145916,-162.17428 -11.73699,-160.92268 -9.3421519,-160.92093 C -8.0445667,-160.91999 -7.6772768,-160.84564 -6.748534,-161.28502 C -5.1298381,-162.0508 -4.2042167,-163.65938 -3.1535203,-166.64165 C -2.929524,-167.27744 -2.8690852,-167.86336 -2.3555857,-168.31329 C -1.8706382,-168.7382 -1.234717,-168.52569 -0.35271196,-168.2807 C 0.47655907,-168.05036 0.67186382,-167.71484 0.9343264,-164.94189 C 1.2637907,-161.46117 2.0921582,-159.73566 3.8743624,-158.8177 C 5.8020286,-157.82481 7.9041852,-157.52574 9.9379601,-158.13353 z M 6.3546596,-158.54153 C 2.3983523,-159.66521 2.1050625,-161.53756 1.6704751,-164.9005 C 1.3852761,-167.06177 2.0951317,-168.61844 2.6933259,-168.9321 C 3.3797552,-169.29202 5.8880294,-169.85747 8.6703644,-169.34771 C 11.523685,-168.82495 12.222821,-168.66772 14.23303,-166.91879 C 14.620765,-166.47034 14.715776,-165.31041 14.604246,-164.06099 C 14.456361,-162.40432 13.634064,-161.01346 12.229647,-159.84149 C 10.534052,-158.24876 8.5228241,-158.21695 6.3546596,-158.54153 z M -11.507869,-161.95257 C -13.561604,-162.53227 -14.328251,-163.18311 -14.959548,-164.37461 C -15.468579,-165.33535 -15.836821,-165.56814 -15.733563,-167.95989 C -15.580133,-171.51349 -14.566236,-172.54127 -13.370455,-172.7787 C -12.915563,-172.86902 -11.243829,-173.32292 -9.2887936,-172.63022 C -7.0157771,-171.82486 -5.3744599,-171.35623 -3.9035507,-169.49321 C -3.3473712,-168.78876 -4.2406376,-165.57868 -4.5632186,-164.4543 C -4.8719097,-163.3783 -6.1119639,-162.37574 -7.5573768,-161.90528 C -8.6545727,-161.38676 -10.393473,-161.64044 -11.507869,-161.95257 z "
     style="fill:#000000;stroke:#ffff80;stroke-width:0.82140201;stroke-miterlimit:4;stroke-dasharray:none;stroke-opacity:1"
     id="path2095" />
  <path
     d="M -27.040835,-40.395508 C -27.071038,-41.175963 -27.047439,-41.91626 -26.988364,-42.040612 C -26.875462,-42.278334 -25.217791,-43.009078 -25.039095,-42.899905 C -24.900795,-42.815407 -24.909289,-40.062372 -25.048516,-39.84314 C -25.137047,-39.703748 -26.713301,-38.976503 -26.926915,-38.976503 C -26.95936,-38.976503 -27.010632,-39.615053 -27.040835,-40.395508 z M -36.624526,-39.913624 C -36.727719,-40.016833 -36.721978,-41.679039 -36.616214,-42.318582 C -36.531289,-42.832123 -36.478884,-42.875173 -35.35284,-43.356432 L -34.902909,-43.548722 L -34.902909,-42.046707 L -34.902909,-40.544666 L -35.724664,-40.1901 C -36.176632,-39.995083 -36.581575,-39.870673 -36.624526,-39.913624 z M -24.489347,-41.615224 L -24.450725,-43.423311 L -23.48184,-43.83186 C -22.948955,-44.056562 -22.434996,-44.210493 -22.339713,-44.173932 C -22.095157,-44.080096 -22.094985,-40.869432 -22.339524,-40.666546 C -22.48888,-40.542621 -24.313205,-39.807138 -24.471219,-39.807138 C -24.502448,-39.807138 -24.510597,-40.620777 -24.489347,-41.615224 z M -34.403587,-40.8768 C -34.531348,-41.004561 -34.499707,-43.44999 -34.367609,-43.658338 C -34.213958,-43.900636 -32.83374,-44.535013 -32.674429,-44.436559 C -32.522831,-44.342862 -32.51019,-41.882944 -32.660095,-41.64707 C -32.799068,-41.428405 -34.294505,-40.76771 -34.403587,-40.8768 z M -21.691225,-41.235038 C -21.729617,-41.335118 -21.743244,-42.093485 -21.721485,-42.920317 L -21.681934,-44.423647 L -20.721716,-44.816893 C -20.193587,-45.033185 -19.717872,-45.162555 -19.664555,-45.104384 C -19.491025,-44.915042 -19.427441,-42.171831 -19.591688,-41.960804 C -19.711424,-41.806997 -21.35592,-41.053098 -21.571702,-41.053098 C -21.599047,-41.053098 -21.652832,-41.134967 -21.691225,-41.235038 z M -32.134119,-43.274809 L -32.134119,-44.80803 L -31.26887,-45.201005 C -30.654642,-45.479962 -30.374117,-45.547768 -30.301916,-45.434735 C -30.180899,-45.245279 -30.164799,-43.190764 -30.280946,-42.757688 C -30.325605,-42.591157 -30.527227,-42.394751 -30.728988,-42.321227 C -30.93074,-42.247704 -31.329441,-42.087202 -31.614968,-41.964566 L -32.134119,-41.74158 L -32.134119,-43.274809 z M -18.56993,-42.402883 C -18.571515,-42.459987 -18.605562,-43.16084 -18.645597,-43.960319 C -18.685632,-44.759806 -18.668761,-45.484258 -18.608109,-45.570193 C -18.547456,-45.656136 -18.043937,-45.919083 -17.48917,-46.154505 L -16.480513,-46.582562 L -16.347043,-46.231503 C -16.191626,-45.822716 -16.169711,-43.404969 -16.319518,-43.19437 C -16.414004,-43.061557 -18.242609,-42.29905 -18.466638,-42.29905 C -18.521861,-42.29905 -18.568344,-42.345771 -18.56993,-42.402883 z M -29.780646,-44.347413 L -29.780646,-45.860665 L -28.96731,-46.225671 C -28.519975,-46.42643 -28.081781,-46.590678 -27.993546,-46.590678 C -27.87947,-46.590678 -27.84447,-46.16129 -27.872414,-45.104211 L -27.91171,-43.617745 L -28.534686,-43.323609 C -29.863567,-42.696189 -29.780646,-42.628046 -29.780646,-44.347413 z M -15.584454,-43.579878 C -15.701594,-43.953485 -15.795792,-46.668424 -15.696321,-46.804144 C -15.530184,-47.030818 -13.526168,-47.826937 -13.408149,-47.71314 C -13.263435,-47.573609 -13.107442,-45.050713 -13.216623,-44.615682 C -13.270162,-44.402364 -13.454205,-44.211265 -13.686218,-44.128106 C -13.896062,-44.052874 -14.39683,-43.859869 -14.799013,-43.699211 C -15.344531,-43.481302 -15.544024,-43.450984 -15.584454,-43.579878 z M -36.564186,-46.71779 C -36.564186,-48.386682 -36.52526,-49.853566 -36.477684,-49.977548 C -36.394378,-50.194637 -35.200963,-50.882306 -34.907509,-50.882306 C -34.750867,-50.882306 -34.697903,-44.987079 -34.850963,-44.588198 C -34.93427,-44.37111 -36.127693,-43.68344 -36.421147,-43.68344 C -36.515231,-43.68344 -36.564186,-44.722103 -36.564186,-46.71779 z M -27.066849,-44.06145 C -27.177303,-44.171928 -27.174674,-46.642952 -27.063777,-46.931913 C -26.99027,-47.123488 -25.22998,-48.045537 -25.136028,-47.941679 C -25.098145,-47.899804 -25.024244,-45.221729 -25.053724,-44.959094 C -25.07108,-44.804449 -25.636262,-44.50504 -26.686137,-44.094298 C -26.849621,-44.030335 -27.020949,-44.01555 -27.066849,-44.06145 z M -34.395299,-44.744815 C -34.512127,-44.861643 -34.513063,-45.614154 -34.397771,-46.717215 L -34.307951,-47.576566 L -33.514575,-47.977057 C -33.078205,-48.197332 -32.682553,-48.338925 -32.635314,-48.291678 C -32.506222,-48.162587 -32.536179,-45.718423 -32.669435,-45.508267 C -32.733093,-45.407867 -33.112105,-45.174244 -33.5117,-44.989116 C -34.339181,-44.605735 -34.274191,-44.623716 -34.395299,-44.744815 z M -12.533964,-44.811201 C -12.633789,-45.119966 -12.713128,-47.953671 -12.625789,-48.090747 C -12.463085,-48.346121 -10.382137,-49.120982 -10.240207,-48.979052 C -10.074982,-48.813835 -9.9090835,-46.353424 -10.030536,-45.869536 C -10.111994,-45.544984 -10.442937,-45.371077 -12.232271,-44.712526 C -12.377536,-44.659069 -12.497461,-44.698291 -12.533964,-44.811201 z M -24.43865,-45.171131 C -24.483359,-45.21584 -24.519944,-45.931223 -24.519944,-46.760872 L -24.519944,-48.269311 L -23.623129,-48.675955 C -23.129877,-48.899598 -22.669366,-49.08259 -22.599761,-49.08259 C -22.418215,-49.08259 -22.246919,-46.392843 -22.40991,-46.101582 C -22.554912,-45.842479 -24.306601,-45.039082 -24.43865,-45.171131 z M -32.134119,-47.122339 L -32.134119,-48.607844 L -31.248845,-49.044386 C -30.76195,-49.28449 -30.325868,-49.443218 -30.279771,-49.397129 C -30.115113,-49.232471 -30.191938,-46.78728 -30.369016,-46.556738 C -30.464192,-46.432829 -30.900274,-46.175163 -31.338098,-45.984146 L -32.134119,-45.636841 L -32.134119,-47.122339 z M -9.3443943,-46.140747 C -9.4817327,-46.606391 -9.4925095,-49.352371 -9.3575121,-49.483951 C -9.0665962,-49.767508 -7.0339548,-50.479737 -6.899442,-50.345241 C -6.7307014,-50.1765 -6.6037619,-47.130503 -6.7568877,-46.924586 C -6.8452541,-46.805754 -9.0274399,-45.898482 -9.2248721,-45.898482 C -9.251313,-45.898482 -9.3050902,-46.007491 -9.3443943,-46.140747 z M -21.812669,-46.283005 C -21.927747,-46.398108 -21.901331,-49.267643 -21.783649,-49.434142 C -21.674583,-49.58845 -20.075543,-50.328542 -19.85121,-50.328542 C -19.703974,-50.328542 -19.506731,-47.767928 -19.620979,-47.339723 C -19.692318,-47.07243 -21.655518,-46.125871 -21.812669,-46.283005 z M -29.780646,-48.248103 L -29.780646,-49.770801 L -28.932935,-50.198727 C -28.420413,-50.457444 -28.03515,-50.57658 -27.958579,-50.500001 C -27.888924,-50.430346 -27.849883,-49.759187 -27.871823,-49.008549 C -27.916244,-47.48893 -27.901763,-47.510451 -29.261939,-46.942131 L -29.780646,-46.725404 L -29.780646,-48.248103 z M -18.757398,-47.992376 C -18.876633,-48.588533 -18.862513,-50.642514 -18.737972,-50.817793 C -18.682043,-50.896525 -18.111859,-51.194784 -17.470919,-51.480599 C -16.570843,-51.881944 -16.279828,-51.959649 -16.19248,-51.821974 C -16.050033,-51.597468 -16.042903,-48.932281 -16.184151,-48.710125 C -16.264797,-48.583292 -18.442079,-47.559752 -18.631223,-47.559752 C -18.653031,-47.559752 -18.709806,-47.754432 -18.757398,-47.992376 z M -27.070356,-48.079715 C -27.187324,-48.196683 -27.164013,-50.785693 -27.044342,-50.968282 C -26.89764,-51.192131 -25.261629,-51.993162 -25.159578,-51.891111 C -24.98857,-51.720103 -25.066636,-48.983874 -25.246753,-48.835479 C -25.539583,-48.594225 -26.985596,-47.994947 -27.070356,-48.079715 z M -3.9627409,-48.115225 C -4.0841195,-48.31163 -4.259111,-51.249366 -4.1653397,-51.516659 C -4.0554197,-51.830007 -1.5819072,-52.832914 -1.4192696,-52.630077 C -1.2506522,-52.419782 -1.0846304,-49.334711 -1.2302979,-49.118551 C -1.3149269,-48.992958 -3.6457701,-47.975077 -3.8487221,-47.975077 C -3.8637866,-47.975077 -3.9150914,-48.038144 -3.9627409,-48.115225 z M -34.319385,-49.803814 L -34.279933,-51.217241 L -33.493358,-51.659131 C -33.060742,-51.902175 -32.671381,-52.065618 -32.62811,-52.022346 C -32.512136,-51.906364 -32.53645,-49.454907 -32.655381,-49.273796 C -32.750729,-49.128588 -34.108449,-48.390394 -34.280163,-48.390394 C -34.323443,-48.390394 -34.341086,-49.02643 -34.319385,-49.803814 z M -15.444241,-49.114033 C -15.551672,-49.457946 -15.629976,-52.090966 -15.53724,-52.241012 C -15.389051,-52.480804 -13.324555,-53.377249 -13.239072,-53.238933 C -13.107319,-53.025755 -13.005531,-50.128719 -13.124314,-49.972916 C -13.186363,-49.891531 -13.486314,-49.725255 -13.790882,-49.603408 C -14.095457,-49.481561 -14.579657,-49.28196 -14.866926,-49.159843 C -15.27518,-48.98628 -15.401216,-48.976292 -15.444241,-49.114033 z M -24.557071,-50.625298 C -24.599628,-51.397646 -24.604483,-52.107633 -24.567873,-52.203047 C -24.478677,-52.435462 -22.680316,-53.238177 -22.542082,-53.107254 C -22.482177,-53.050504 -22.45103,-52.355367 -22.472862,-51.562493 L -22.512577,-50.120891 L -23.343204,-49.674845 C -23.800051,-49.429525 -24.242655,-49.227058 -24.326759,-49.224922 C -24.423635,-49.222458 -24.50805,-49.735744 -24.557071,-50.625298 z M -0.37357558,-49.546723 C -0.47427125,-49.80912 -0.66638896,-52.711692 -0.6007918,-52.979617 C -0.51801912,-53.317697 2.0755248,-54.372016 2.2982562,-54.158123 C 2.4085623,-54.052195 2.480361,-53.398039 2.5059148,-52.266204 L 2.5449807,-50.536208 L 2.0604357,-50.302544 C 1.79394,-50.174036 1.1527536,-49.911048 0.63555785,-49.718174 C -0.086536647,-49.448853 -0.32075121,-49.409064 -0.37357558,-49.546723 z M -32.132,-50.847692 C -32.130833,-51.590067 -32.084112,-52.267174 -32.028174,-52.352369 C -31.871032,-52.591668 -30.479207,-53.256043 -30.329211,-53.163348 C -30.182657,-53.072772 -30.144075,-50.901749 -30.282605,-50.540726 C -30.354165,-50.354235 -31.814495,-49.497907 -32.060948,-49.497907 C -32.101189,-49.497907 -32.133166,-50.105317 -32.132,-50.847692 z M -12.400774,-50.501595 C -12.498176,-50.809029 -12.573942,-53.492434 -12.488869,-53.6216 C -12.354323,-53.825899 -10.199663,-54.753886 -10.105316,-54.648163 C -10.057601,-54.594706 -9.9784756,-53.894658 -9.9295118,-53.092526 C -9.8634957,-52.01129 -9.8858625,-51.575783 -10.015964,-51.40862 C -10.155783,-51.228971 -12.048992,-50.328542 -12.286886,-50.328542 C -12.319389,-50.328542 -12.370628,-50.406411 -12.400774,-50.501595 z M -21.939091,-51.31792 C -22.07615,-52.629116 -22.045676,-53.336935 -21.843578,-53.537373 C -21.570643,-53.808083 -19.968473,-54.544905 -19.869035,-54.445466 C -19.737388,-54.313828 -19.625415,-52.066045 -19.729774,-51.650235 C -19.801975,-51.362572 -20.021101,-51.192673 -20.730373,-50.874445 C -21.229859,-50.650342 -21.68614,-50.466989 -21.744345,-50.466989 C -21.802533,-50.466989 -21.890176,-50.84991 -21.939091,-51.31792 z M -29.779537,-52.099525 L -29.778412,-53.58186 L -28.926314,-54.026017 C -28.457663,-54.270294 -28.02209,-54.437942 -27.958358,-54.398556 C -27.809027,-54.306263 -27.810653,-51.839026 -27.960206,-51.6033 C -28.022599,-51.504937 -28.457737,-51.24282 -28.92716,-51.020819 L -29.780646,-50.617182 L -29.779537,-52.099525 z M 3.4720397,-51.057174 C 3.2933437,-51.272505 3.1087746,-54.495514 3.2637239,-54.695032 C 3.4511925,-54.936426 5.9292966,-55.898608 6.1476992,-55.814792 C 6.2600998,-55.771661 6.3521215,-55.656541 6.352179,-55.558983 C 6.3522529,-55.461409 6.4160676,-54.709087 6.4940105,-53.887134 C 6.5750911,-53.032121 6.5843647,-52.300884 6.5156626,-52.178142 C 6.4314279,-52.027603 3.9037932,-50.89112 3.6348415,-50.88284 C 3.6251244,-50.882544 3.5518717,-50.960996 3.4720397,-51.057174 z M -36.423628,-54.0318 C -36.422453,-55.687886 -36.375732,-57.110094 -36.319795,-57.192267 C -36.167876,-57.415409 -34.792135,-58.154967 -34.700105,-58.062937 C -34.656291,-58.019123 -34.668423,-56.588134 -34.727071,-54.882953 L -34.833689,-51.782612 L -35.525885,-51.404915 C -35.906596,-51.197174 -36.26481,-51.025756 -36.321914,-51.023973 C -36.379018,-51.022199 -36.424786,-52.375714 -36.423628,-54.0318 z M -9.1968952,-51.816766 C -9.3157027,-52.022084 -9.4452214,-54.69638 -9.3485752,-54.948271 C -9.2197876,-55.283863 -6.9285771,-56.351546 -6.7963478,-56.137595 C -6.6435095,-55.890296 -6.5247348,-53.07554 -6.6567177,-52.828906 C -6.7231691,-52.704751 -7.2653273,-52.402368 -7.8615173,-52.156933 C -9.0244007,-51.67822 -9.1048653,-51.657718 -9.1968952,-51.816766 z M -18.891796,-52.993506 C -18.940694,-53.621674 -18.981074,-55.27187 -18.981534,-56.660606 L -18.982372,-59.185588 L -17.859885,-59.749957 C -17.24252,-60.060356 -16.66008,-60.284648 -16.565569,-60.248384 C -16.438901,-60.199781 -16.367792,-59.278283 -16.295065,-56.742804 C -16.240795,-54.851 -16.233476,-53.206553 -16.278785,-53.088493 C -16.346707,-52.911489 -18.441717,-51.849195 -18.719573,-51.850871 C -18.765399,-51.85115 -18.842898,-52.365331 -18.891796,-52.993506 z M -34.347025,-53.408824 C -34.345867,-54.113127 -34.299146,-54.759094 -34.2432,-54.844281 C -34.149404,-54.987123 -32.791405,-55.727683 -32.623264,-55.727683 C -32.582654,-55.727683 -32.549436,-55.109274 -32.549436,-54.353444 L -32.549436,-52.979214 L -33.293092,-52.553736 C -33.70211,-52.319719 -34.107044,-52.128258 -34.192955,-52.128258 C -34.297815,-52.128258 -34.348454,-52.549095 -34.347025,-53.408824 z M 7.4786415,-52.594313 C 7.2903186,-52.827936 7.0150751,-55.976978 7.1602989,-56.2365 C 7.2277442,-56.357016 7.930084,-56.72383 8.7210449,-57.051668 C 9.816368,-57.50564 10.195396,-57.608628 10.311197,-57.483733 C 10.525271,-57.252829 10.822052,-54.113143 10.657574,-53.819262 C 10.468783,-53.481896 7.6414023,-52.392429 7.4786415,-52.594313 z M -5.8760326,-53.201165 C -5.9099893,-53.258269 -5.9805231,-53.99027 -6.0327725,-54.827829 C -6.1058198,-55.998877 -6.085449,-56.402867 -5.9445704,-56.576667 C -5.6731216,-56.911586 -3.5720575,-57.816147 -3.4196381,-57.663719 C -3.2389954,-57.483076 -3.0536871,-54.617139 -3.204439,-54.335472 C -3.2726811,-54.207966 -3.8555644,-53.87722 -4.4997407,-53.60049 C -5.7756655,-53.05236 -5.7857687,-53.049428 -5.8760326,-53.201165 z M -32.073639,-53.416274 C -32.113206,-53.519401 -32.127433,-54.156669 -32.105247,-54.832412 L -32.064908,-56.061024 L -31.274941,-56.529256 C -30.840476,-56.786782 -30.419951,-56.957297 -30.340473,-56.908177 C -30.184899,-56.812024 -30.137471,-54.656813 -30.282605,-54.27859 C -30.330254,-54.154402 -30.736544,-53.867404 -31.185465,-53.640779 C -31.814971,-53.323012 -32.018137,-53.271658 -32.073639,-53.416274 z M -15.566728,-53.474035 C -15.625713,-53.569465 -15.710252,-55.888842 -15.67282,-56.384279 C -15.653205,-56.643801 -12.066537,-58.404328 -11.998886,-58.18765 C -11.894593,-57.853561 -11.812149,-55.213148 -11.901493,-55.068795 C -11.986606,-54.931317 -14.664172,-53.627621 -15.230857,-53.447758 C -15.377822,-53.401119 -15.528968,-53.412939 -15.566728,-53.474035 z M -29.780646,-55.933353 L -29.780646,-57.384976 L -28.953962,-57.802289 C -28.499284,-58.031806 -28.063201,-58.219595 -27.984881,-58.219595 C -27.829397,-58.219595 -27.781592,-55.909015 -27.92914,-55.52455 C -28.000701,-55.338067 -29.46103,-54.481731 -29.707484,-54.481731 C -29.747724,-54.481731 -29.780646,-55.134959 -29.780646,-55.933353 z M -2.4129771,-54.724003 C -2.5303883,-54.928229 -2.6492452,-58.014803 -2.5450996,-58.15518 C -2.3633398,-58.400221 0.046612618,-59.442711 0.16831154,-59.328939 C 0.35092563,-59.158252 0.56771005,-56.181006 0.41789454,-55.901311 C 0.34635042,-55.767742 -0.26413197,-55.424848 -0.93874122,-55.139321 C -2.2501834,-54.584242 -2.3211361,-54.564257 -2.4129771,-54.724003 z M 14.036362,-55.194166 C 13.99751,-55.297252 13.882883,-56.150811 13.781678,-57.09098 C 13.616872,-58.621663 13.620511,-58.826027 13.816546,-59.045909 C 14.134528,-59.402561 16.979265,-60.52265 17.145336,-60.356587 C 17.305295,-60.196619 17.703511,-56.932055 17.607736,-56.565808 C 17.548644,-56.339824 16.679551,-55.947662 14.348117,-55.094948 C 14.204519,-55.042412 14.078442,-55.082545 14.036362,-55.194166 z M -11.194192,-55.555927 C -11.245447,-55.688461 -11.289992,-56.451034 -11.293179,-57.250521 L -11.298978,-58.70414 L -10.142575,-59.305915 C -9.5065555,-59.636907 -8.9381864,-59.85494 -8.8795136,-59.79046 C -8.6853588,-59.577027 -8.6004587,-56.747519 -8.7810522,-56.508614 C -8.8714967,-56.388952 -9.4304855,-56.071431 -10.023242,-55.802997 C -10.99809,-55.361551 -11.109891,-55.337944 -11.194192,-55.555927 z M -34.263275,-55.826399 C -34.310514,-55.873629 -34.349153,-56.431419 -34.349153,-57.065935 C -34.349153,-58.026861 -34.30386,-58.264895 -34.078016,-58.490723 C -33.832023,-58.736725 -32.805779,-59.327115 -32.624176,-59.327115 C -32.583073,-59.327115 -32.549436,-58.705035 -32.549436,-57.944712 L -32.549436,-56.562301 L -33.363413,-56.151411 C -33.81111,-55.925419 -34.216036,-55.779168 -34.263275,-55.826399 z M 1.3067583,-56.268937 C 1.1703398,-56.489664 0.94335361,-59.41793 1.0425954,-59.676581 C 1.150503,-59.957788 3.6526085,-61.144648 3.920673,-61.041792 C 4.1288163,-60.961919 4.3795492,-58.073385 4.2215526,-57.575591 C 4.1664365,-57.401946 3.6910994,-57.117027 2.8615408,-56.760431 C 2.1601292,-56.458911 1.5429114,-56.19336 1.4899391,-56.170303 C 1.4369669,-56.147247 1.354531,-56.191635 1.3067583,-56.268937 z M -7.9871096,-57.020808 C -8.0262905,-57.122891 -8.0710569,-57.88604 -8.0866061,-58.716691 L -8.1148623,-60.22697 L -6.9630021,-60.826412 C -6.3294876,-61.156107 -5.7313098,-61.395225 -5.6337272,-61.357786 C -5.4473018,-61.286241 -5.2303613,-58.501853 -5.3806861,-58.11011 C -5.4411002,-57.95268 -7.61085,-56.835204 -7.8561207,-56.835204 C -7.8889932,-56.835204 -7.9479452,-56.918724 -7.9871096,-57.020808 z M 18.553079,-57.146687 C 18.344681,-57.719812 18.103329,-60.561198 18.24116,-60.818732 C 18.402787,-61.120745 21.460111,-62.410256 21.750403,-62.298858 C 22.037286,-62.188781 22.504737,-58.791775 22.288585,-58.387892 C 22.198223,-58.219044 21.527392,-57.876232 20.504615,-57.476242 C 19.603069,-57.123664 18.820651,-56.835204 18.765896,-56.835204 C 18.711133,-56.835204 18.615366,-56.975376 18.553079,-57.146687 z M -32.134119,-58.267359 C -32.134119,-59.328126 -32.090502,-59.598441 -31.891846,-59.768586 C -31.393576,-60.19537 -28.117595,-61.972703 -27.982794,-61.88938 C -27.822982,-61.790623 -27.793001,-59.478475 -27.948451,-59.240827 C -28.06523,-59.062271 -31.798001,-56.973643 -32.000321,-56.973643 C -32.076884,-56.973643 -32.134119,-57.527095 -32.134119,-58.267359 z M -24.581664,-57.219948 C -24.62386,-57.262152 -24.658383,-57.936244 -24.658383,-58.717947 L -24.658383,-60.139227 L -23.73001,-60.632192 C -23.21941,-60.903328 -22.749798,-61.073326 -22.686427,-61.009963 C -22.623072,-60.9466 -22.589189,-60.278513 -22.611113,-59.52532 L -22.651016,-58.155895 L -23.577977,-57.649558 C -24.087813,-57.371078 -24.539469,-57.177753 -24.581664,-57.219948 z M -15.704765,-57.633187 C -15.823334,-57.838374 -15.939168,-60.508398 -15.835745,-60.652218 C -15.656647,-60.90125 -13.608982,-61.972712 -13.536452,-61.855342 C -13.47856,-61.761677 -13.394859,-59.31693 -13.432175,-58.809509 C -13.44701,-58.607633 -15.618378,-57.483709 -15.704765,-57.633187 z M 5.1341548,-57.981199 C 4.9480826,-58.209532 4.7825208,-61.284024 4.9435156,-61.521327 C 5.1326434,-61.800094 7.7622716,-62.956111 7.8981479,-62.820226 C 8.0960812,-62.622301 8.339594,-59.614803 8.1851376,-59.275803 C 8.1016338,-59.092556 7.7036892,-58.832221 7.165523,-58.608791 C 6.680058,-58.407252 6.0554147,-58.145529 5.7774358,-58.027198 C 5.3827275,-57.859163 5.241816,-57.849101 5.1341548,-57.981199 z M -4.6226963,-58.452429 C -4.745882,-58.663702 -4.8688705,-61.610391 -4.7610369,-61.766942 C -4.5916391,-62.01287 -2.3584442,-63.090311 -2.1688811,-63.017568 C -1.9894951,-62.948726 -1.7539088,-60.064973 -1.8971613,-59.691637 C -1.9381657,-59.584806 -2.4817449,-59.265864 -3.1051315,-58.982866 C -4.6014795,-58.303583 -4.5470041,-58.322623 -4.6226963,-58.452429 z M 23.432445,-58.879304 C 23.22486,-59.015221 22.811974,-62.502524 22.968788,-62.795535 C 23.124,-63.085539 26.451525,-64.483943 26.731105,-64.376651 C 27.004755,-64.271643 27.510262,-60.648505 27.298176,-60.31228 C 27.172075,-60.112368 24.060637,-58.770739 23.73408,-58.77547 C 23.653624,-58.776637 23.517887,-58.823358 23.432445,-58.879304 z M -12.827615,-59.223093 C -12.868119,-59.328668 -12.883388,-60.064964 -12.861531,-60.859301 L -12.821808,-62.303564 L -11.714287,-62.882644 C -11.105152,-63.201159 -10.567873,-63.419192 -10.520313,-63.367198 C -10.387706,-63.222146 -10.248544,-60.386371 -10.365389,-60.210221 C -10.475793,-60.043781 -11.925872,-59.287976 -12.441778,-59.127967 C -12.651342,-59.062961 -12.778159,-59.094232 -12.827615,-59.223093 z M 9.1655794,-59.777038 C 9.1050421,-59.872223 8.9890437,-60.659183 8.9077824,-61.525844 C 8.7286018,-63.436976 8.696986,-63.383034 10.454318,-64.164245 C 11.802641,-64.763639 11.963135,-64.804914 12.097787,-64.587045 C 12.261,-64.322956 12.522994,-61.294899 12.404975,-61.036749 C 12.336347,-60.886629 11.701937,-60.537336 10.871377,-60.192356 C 9.2800336,-59.53139 9.3162081,-59.540195 9.1655794,-59.777038 z M -27.120527,-61.152024 L -27.081076,-62.561616 L -26.319652,-63.015564 C -25.900877,-63.265245 -25.478192,-63.471943 -25.380346,-63.474908 C -25.244256,-63.479032 -25.211721,-63.149132 -25.241907,-62.070713 L -25.281359,-60.661105 L -26.042782,-60.207166 C -26.461566,-59.957484 -26.884251,-59.750778 -26.982088,-59.747821 C -27.118195,-59.74369 -27.150714,-60.073589 -27.120527,-61.152024 z M -1.0998099,-60.261575 C -1.2553178,-60.564623 -1.4231877,-63.121763 -1.3073864,-63.423546 C -1.2036105,-63.693976 1.3739325,-64.915319 1.521867,-64.764156 C 1.5795212,-64.705237 1.6707872,-63.894357 1.7246794,-62.962189 L 1.8226644,-61.267349 L 0.47817723,-60.643322 C -0.26129814,-60.300115 -0.89088634,-60.019319 -0.92090037,-60.019319 C -0.95092261,-60.019319 -1.0314364,-60.128327 -1.0998099,-60.261575 z M -19.120803,-61.601931 C -19.120803,-63.020558 -19.114068,-63.050843 -18.7401,-63.312443 C -18.007245,-63.825096 -15.128477,-65.289763 -15.066355,-65.181568 C -14.935949,-64.954401 -14.831959,-62.433937 -14.945806,-62.259455 C -15.081674,-62.05123 -18.684047,-60.160255 -18.94775,-60.158744 C -19.075199,-60.158013 -19.120803,-60.538347 -19.120803,-61.601931 z M -9.6181512,-60.679882 C -9.7438092,-60.883212 -9.8598405,-63.688604 -9.7490005,-63.843545 C -9.6877732,-63.929094 -9.1223283,-64.257565 -8.4924279,-64.573468 C -7.5584857,-65.041847 -7.332444,-65.109498 -7.2674547,-64.940117 C -7.2236083,-64.825876 -7.1782997,-64.061323 -7.1667673,-63.241104 L -7.1457804,-61.749808 L -8.2533014,-61.166185 C -9.4355946,-60.54316 -9.5159523,-60.514526 -9.6181512,-60.679882 z M 28.544514,-60.820318 C 28.325931,-60.960161 27.804103,-64.585337 27.959906,-64.881723 C 28.024863,-65.005311 28.932701,-65.458684 29.977335,-65.889222 C 31.505085,-66.518868 31.909215,-66.637421 32.043038,-66.495162 C 32.134534,-66.397892 32.315004,-65.571915 32.444087,-64.659657 C 32.573163,-63.7474 32.70549,-62.95777 32.738149,-62.904929 C 32.770817,-62.85208 32.730601,-62.661942 32.648805,-62.482408 C 32.535427,-62.233589 32.098803,-62.001658 30.812709,-61.507075 C 28.615418,-60.662066 28.735195,-60.698331 28.544514,-60.820318 z M -24.711651,-61.20438 C -24.831099,-61.515675 -24.814211,-63.656093 -24.690878,-63.837804 C -24.579668,-64.001632 -22.844481,-65.039761 -22.791238,-64.974304 C -22.695701,-64.856835 -22.601009,-62.280861 -22.687536,-62.153207 C -22.743588,-62.070508 -23.202777,-61.773251 -23.707955,-61.492635 C -24.489848,-61.058302 -24.63913,-61.015425 -24.711651,-61.20438 z M 13.358393,-61.51768 C 13.227453,-61.729536 12.964227,-64.714584 13.047279,-65.045536 C 13.112252,-65.304417 13.45899,-65.523403 14.685647,-66.080297 C 15.740122,-66.559026 16.293591,-66.743538 16.402944,-66.652789 C 16.597575,-66.491252 16.948651,-63.521786 16.829318,-63.046342 C 16.760386,-62.771681 16.457173,-62.589092 15.182489,-62.054655 C 13.518074,-61.356816 13.467081,-61.341801 13.358393,-61.51768 z M 2.6339714,-61.806805 C 2.5310333,-61.870423 2.4627666,-62.513391 2.4406873,-63.627204 L 2.4065416,-65.349232 L 3.7217212,-66.006141 C 4.4450643,-66.367442 5.0983088,-66.642883 5.1733603,-66.618241 C 5.4202738,-66.537169 5.7577057,-63.416383 5.5531684,-63.10554 C 5.378793,-62.840523 2.81031,-61.697821 2.6339714,-61.806805 z M -6.4466934,-62.407389 C -6.5333102,-62.686814 -6.6313528,-65.194743 -6.5630121,-65.382672 C -6.5286447,-65.477199 -5.9712002,-65.843068 -5.324264,-66.19572 C -4.4636236,-66.664856 -4.1068477,-66.795738 -3.9946031,-66.683493 C -3.9084791,-66.597377 -3.8148721,-65.842024 -3.7811536,-64.961136 L -3.7211009,-63.392176 L -4.9275925,-62.813252 C -6.242074,-62.182514 -6.3666724,-62.149231 -6.4466934,-62.407389 z M -22.16648,-63.952866 L -22.16648,-65.394516 L -21.185241,-65.960241 C -20.645555,-66.271388 -20.186359,-66.525973 -20.164797,-66.525973 C -20.073112,-66.525973 -19.938763,-64.015193 -20.017224,-63.768009 C -20.098378,-63.512315 -21.690436,-62.511223 -22.015925,-62.511223 C -22.114723,-62.511223 -22.16648,-63.006717 -22.16648,-63.952866 z M -14.222668,-62.676292 C -14.352367,-62.88616 -14.46278,-65.066259 -14.363694,-65.461025 C -14.299412,-65.717147 -13.99583,-65.960528 -13.215859,-66.381242 C -12.606502,-66.709918 -12.103656,-66.901502 -12.033763,-66.8316 C -11.96686,-66.764689 -11.929913,-66.03029 -11.951647,-65.199581 L -11.991165,-63.689204 L -13.064417,-63.113976 C -13.69095,-62.77817 -14.173039,-62.596 -14.222668,-62.676292 z M 17.888499,-63.448968 C 17.700184,-63.56877 17.337117,-66.783671 17.472171,-67.135593 C 17.521907,-67.265202 18.170692,-67.654645 18.913913,-68.00103 C 20.673339,-68.821019 20.813939,-68.872472 20.992988,-68.761813 C 21.20463,-68.631005 21.631455,-65.20819 21.471709,-64.922744 C 21.402416,-64.79891 20.639046,-64.392554 19.775325,-64.019728 C 18.069224,-63.283267 18.123272,-63.299621 17.888499,-63.448968 z M 6.429054,-63.638983 C 6.3011946,-64.01466 6.0831781,-66.801036 6.1649733,-67.014181 C 6.2675007,-67.281351 8.9441623,-68.646874 9.1845374,-68.554622 C 9.3704946,-68.483267 9.7447664,-65.346497 9.6093008,-64.994707 C 9.5671136,-64.885132 8.9571404,-64.534623 8.253815,-64.215804 C 6.5093789,-63.425041 6.5026023,-63.422881 6.429054,-63.638983 z M -3.1305621,-65.03774 C -3.1820476,-65.665916 -3.2032151,-66.428177 -3.1776038,-66.73166 C -3.1320488,-67.271494 -3.1043101,-67.297894 -1.8973749,-67.95035 C -0.89441837,-68.492565 -0.632194,-68.583536 -0.49509379,-68.436874 C -0.30292679,-68.231286 -0.099629795,-65.434979 -0.25931034,-65.193659 C -0.39075109,-64.995011 -2.5753683,-63.895622 -2.8386605,-63.895622 C -2.9871782,-63.895622 -3.0604637,-64.182324 -3.1305621,-65.03774 z M -19.175221,-64.391478 C -19.29379,-64.700481 -19.275982,-66.840274 -19.15329,-67.026158 C -18.969049,-67.305286 -15.600323,-69.152209 -15.485278,-69.037155 C -15.423393,-68.975271 -15.390611,-68.278442 -15.412452,-67.488664 L -15.452159,-66.052689 L -17.113436,-65.122567 C -18.027131,-64.610997 -18.845913,-64.187951 -18.93294,-64.182456 C -19.019976,-64.176985 -19.129001,-64.271036 -19.175221,-64.391478 z M -11.30844,-64.354909 C -11.34694,-64.455235 -11.360558,-65.185289 -11.338701,-65.977268 L -11.298978,-67.417219 L -10.217536,-68.012793 C -9.622751,-68.34036 -9.0834595,-68.575823 -9.0190945,-68.53605 C -8.863447,-68.439856 -8.6816625,-65.951969 -8.8024743,-65.571331 C -8.8639973,-65.377472 -9.2815324,-65.079336 -9.9912402,-64.722511 C -11.224674,-64.102344 -11.212796,-64.105663 -11.30844,-64.354909 z M 39.605251,-65.120866 C 39.50628,-65.184007 39.338106,-65.759605 39.231554,-66.39997 C 39.124985,-67.040327 38.969445,-67.921132 38.885892,-68.357313 C 38.786872,-68.874263 38.780432,-69.23715 38.867394,-69.399631 C 39.030729,-69.704823 43.072052,-71.402924 43.366319,-71.290006 C 43.480658,-71.246135 43.634187,-70.919422 43.707488,-70.563977 C 44.145509,-68.439889 44.31048,-67.340524 44.235822,-67.043054 C 44.153551,-66.715306 43.665063,-66.490546 39.923651,-65.059015 C 39.847515,-65.02988 39.70423,-65.057709 39.605251,-65.120866 z M 22.575443,-65.46229 C 22.393807,-65.689293 21.971483,-68.932024 22.085009,-69.227876 C 22.168168,-69.444595 22.760325,-69.754461 24.989043,-70.747585 C 25.37902,-70.921361 25.761777,-71.023773 25.839613,-70.975171 C 26.072562,-70.829725 26.54831,-67.33061 26.373442,-67.048836 C 26.292025,-66.917634 25.912282,-66.675287 25.529575,-66.510284 C 22.796212,-65.331819 22.705562,-65.299661 22.575443,-65.46229 z M 10.441948,-65.591497 C 10.31744,-65.986024 10.101698,-68.748991 10.179551,-68.951885 C 10.291138,-69.242678 13.177676,-70.685832 13.387873,-70.555919 C 13.551423,-70.454846 13.96338,-67.278796 13.85507,-66.953891 C 13.793802,-66.770077 11.007007,-65.418452 10.68928,-65.418452 C 10.583286,-65.418452 10.471986,-65.496329 10.441948,-65.591497 z M 0.55523295,-65.865878 C 0.4009408,-66.284013 0.2419338,-68.669372 0.34964424,-68.95007 C 0.47377451,-69.27353 3.1576809,-70.59441 3.2359523,-70.370553 C 3.3457984,-70.056424 3.5518799,-67.297426 3.4795719,-67.108996 C 3.4409578,-67.008358 2.7932495,-66.61682 2.040221,-66.238942 C 0.67553549,-65.554115 0.67072207,-65.552907 0.55523295,-65.865878 z M -8.1084554,-66.006822 C -8.1382312,-66.101998 -8.2011916,-66.771769 -8.2483812,-67.495227 C -8.3120234,-68.470954 -8.2879892,-68.8677 -8.1552999,-69.031783 C -8.0569206,-69.153441 -7.495977,-69.511892 -6.9087649,-69.828329 C -5.9200844,-70.361107 -5.8311512,-70.385076 -5.7065527,-70.152282 C -5.5701671,-69.897426 -5.4392274,-67.14425 -5.5582486,-67.033624 C -5.6576875,-66.941183 -7.8907263,-65.833769 -7.9776964,-65.833769 C -8.0198507,-65.833769 -8.0786795,-65.911646 -8.1084554,-66.006822 z M -14.765196,-66.697359 C -14.806225,-66.804289 -14.82184,-67.50768 -14.799875,-68.260445 L -14.759963,-69.629123 L -13.747084,-70.225847 C -13.190001,-70.554054 -12.676042,-70.786634 -12.604966,-70.742698 C -12.533865,-70.698761 -12.47571,-69.98893 -12.47571,-69.165294 L -12.47571,-67.667771 L -13.479389,-67.131478 C -14.031421,-66.83652 -14.529774,-66.574427 -14.586837,-66.549071 C -14.643899,-66.523689 -14.724158,-66.590428 -14.765196,-66.697359 z M 14.750431,-67.460441 C 14.618793,-67.678096 14.351698,-70.67802 14.436836,-70.982539 C 14.504068,-71.223004 14.902497,-71.480957 16.046201,-72.024487 C 16.882216,-72.421783 17.653052,-72.71352 17.759177,-72.672812 C 17.890717,-72.622328 18.003011,-72.150145 18.112044,-71.189031 C 18.199991,-70.413669 18.2986,-69.649198 18.331153,-69.490199 C 18.42871,-69.013737 18.118746,-68.762963 16.542418,-68.043061 C 14.979356,-67.32923 14.854355,-67.288587 14.750431,-67.460441 z M -4.7665485,-67.591783 C -4.8889127,-67.789774 -5.0370608,-70.235687 -4.9481276,-70.589958 C -4.8844607,-70.843656 -4.5542243,-71.101125 -3.6842117,-71.575377 C -3.0364541,-71.928465 -2.4512873,-72.18324 -2.383842,-72.141553 C -2.2256974,-72.043815 -2.0355511,-69.416174 -2.1585725,-69.028547 C -2.2356693,-68.78565 -3.2216392,-68.179504 -4.6065722,-67.52359 C -4.6567024,-67.499852 -4.72869,-67.530539 -4.7665485,-67.591783 z M 4.2245014,-67.87575 C 4.0768051,-68.646274 3.9747705,-70.524418 4.065133,-70.809141 C 4.171217,-71.143394 6.7632414,-72.517887 6.9970781,-72.363882 C 7.1954796,-72.23323 7.4582543,-69.287124 7.2987544,-68.981825 C 7.1657284,-68.727224 4.8436824,-67.495047 4.4969029,-67.495047 C 4.3872129,-67.495047 4.2646351,-67.666358 4.2245014,-67.87575 z M 27.564311,-67.612433 C 27.354566,-67.744309 26.902146,-70.905721 27.023738,-71.389913 C 27.136368,-71.838464 30.760057,-73.522527 30.997352,-73.236606 C 31.079878,-73.137175 31.270698,-72.26345 31.421393,-71.294992 C 31.647443,-69.842334 31.664331,-69.48748 31.517899,-69.267345 C 31.420276,-69.120601 30.631311,-68.694532 29.764658,-68.320523 C 27.848154,-67.493478 27.785564,-67.473337 27.564311,-67.612433 z M -11.853309,-69.329369 C -12.00894,-71.207012 -12.012932,-71.197582 -10.745213,-71.94491 C -10.136078,-72.303994 -9.5986182,-72.555458 -9.5508619,-72.503718 C -9.4282266,-72.370872 -9.3009504,-69.640606 -9.409589,-69.473163 C -9.4984811,-69.336154 -11.526153,-68.187242 -11.679057,-68.187242 C -11.722838,-68.187242 -11.801249,-68.701193 -11.853309,-69.329369 z M -1.3336877,-69.437022 C -1.4789034,-69.671992 -1.6501329,-72.397453 -1.5334856,-72.617301 C -1.4728907,-72.731525 -0.86539002,-73.121174 -0.1834703,-73.483207 C 0.77559868,-73.992394 1.0880025,-74.102117 1.1960661,-73.967752 C 1.3708441,-73.750425 1.5538935,-70.942668 1.4070761,-70.731108 C 1.2136688,-70.452398 -1.2440317,-69.291962 -1.3336877,-69.437022 z M 8.2237927,-69.428668 C 8.0982168,-69.631875 7.8467446,-72.486296 7.9264534,-72.80385 C 7.9799021,-73.016798 8.423607,-73.311986 9.4799628,-73.837338 C 10.293241,-74.241813 11.00658,-74.522133 11.065137,-74.460265 C 11.220694,-74.295951 11.499347,-71.445128 11.396639,-71.068786 C 11.330713,-70.827269 10.938502,-70.571025 9.8037923,-70.02816 C 8.9758356,-69.632039 8.2648382,-69.362266 8.2237927,-69.428668 z M 19.261062,-69.606247 C 19.054988,-69.864257 18.746314,-72.940498 18.899111,-73.213532 C 18.969086,-73.338574 19.762396,-73.799841 20.662012,-74.238568 C 22.185253,-74.981403 22.309991,-75.019409 22.476768,-74.791331 C 22.683179,-74.509048 23.049507,-71.514873 22.919184,-71.175256 C 22.845175,-70.982391 19.807623,-69.433202 19.503474,-69.433202 C 19.446156,-69.433202 19.337083,-69.511071 19.261062,-69.606247 z M 32.821735,-69.828453 C 32.66557,-69.927514 32.520815,-70.639152 32.155545,-73.103464 C 32.092314,-73.530117 32.132694,-73.725603 32.329798,-73.946905 C 32.667147,-74.325661 36.041935,-75.82136 36.319175,-75.714981 C 36.566975,-75.619887 36.579387,-75.573889 36.930413,-73.449324 C 37.149095,-72.125791 37.162853,-71.815293 37.012405,-71.600471 C 36.912941,-71.458476 35.970169,-70.975048 34.917345,-70.526184 C 33.864513,-70.077329 33.002789,-69.711033 33.002394,-69.7122 C 33.002,-69.713366 32.920706,-69.765681 32.821735,-69.828453 z M -8.6407403,-69.948476 C -8.761971,-70.157473 -8.8805979,-72.827022 -8.7753352,-72.977199 C -8.5908073,-73.240441 -6.4689534,-74.419079 -6.3728658,-74.311698 C -6.3224974,-74.255423 -6.2426079,-73.582128 -6.1953444,-72.815514 C -6.13277,-71.800787 -6.1562046,-71.363505 -6.281493,-71.207858 C -6.5232563,-70.907487 -8.5648756,-69.817668 -8.6407403,-69.948476 z M 2.2708296,-71.36693 C 2.1199134,-71.611117 1.9391557,-74.333826 2.0595814,-74.549001 C 2.2255703,-74.845609 4.7359966,-76.219395 4.8716512,-76.087856 C 5.019331,-75.944669 5.2884798,-73.226494 5.1927536,-72.845076 C 5.1401593,-72.635495 4.7260412,-72.352563 3.795056,-71.890089 C 2.3265371,-71.160602 2.3857848,-71.18094 2.2708296,-71.36693 z M 12.34774,-71.544394 C 12.166974,-71.82372 11.908865,-74.737701 12.042335,-74.992508 C 12.108425,-75.118676 12.848803,-75.572969 13.687652,-76.002044 C 15.21118,-76.781341 15.212938,-76.781851 15.34111,-76.464847 C 15.517613,-76.028305 15.782884,-73.376285 15.677515,-73.101682 C 15.609823,-72.92527 12.777013,-71.371358 12.523101,-71.371358 C 12.488257,-71.371358 12.409353,-71.449227 12.34774,-71.544394 z M -5.4776198,-71.821272 C -5.6322733,-72.320249 -5.6554204,-74.689296 -5.5074038,-74.870128 C -5.3026365,-75.120277 -3.3732043,-76.216734 -3.1377658,-76.216734 C -3.0122309,-76.216734 -2.9335981,-75.805212 -2.8658078,-74.793302 C -2.8133695,-74.010416 -2.8056237,-73.278415 -2.8485994,-73.166639 C -2.9147387,-72.994612 -5.1333209,-71.648236 -5.3506556,-71.648236 C -5.3909865,-71.648236 -5.448115,-71.726105 -5.4776198,-71.821272 z M 23.937024,-71.986062 C 23.752701,-72.470886 23.457309,-75.165192 23.559327,-75.431071 C 23.663924,-75.703662 26.915888,-77.356815 27.228908,-77.296533 C 27.402568,-77.263085 27.509063,-76.871761 27.708935,-75.532769 C 27.850191,-74.586333 27.932644,-73.679982 27.892157,-73.51865 C 27.837583,-73.301201 27.370205,-73.021333 26.085483,-72.436782 C 25.132287,-72.003073 24.287861,-71.648236 24.208949,-71.648236 C 24.130037,-71.648236 24.007673,-71.800253 23.937024,-71.986062 z M 38.37429,-72.311107 C 38.283566,-72.368794 38.140592,-72.819498 38.056579,-73.312676 C 37.63511,-75.786706 37.614665,-75.983095 37.747938,-76.275604 C 37.947711,-76.714052 41.919764,-78.507854 42.146283,-78.261927 C 42.313265,-78.080635 42.903229,-75.173701 42.898498,-74.555465 C 42.897044,-74.365105 42.850093,-74.139343 42.794147,-74.053769 C 42.701903,-73.912652 38.844164,-72.199101 38.629984,-72.204103 C 38.580084,-72.20527 38.465013,-72.25342 38.37429,-72.311107 z M 6.0055309,-73.344111 C 5.883717,-73.689789 5.6661687,-76.348963 5.7432573,-76.549854 C 5.7868162,-76.663347 6.4547557,-77.104316 7.22758,-77.52977 C 8.4722751,-78.215033 8.6512257,-78.278034 8.7948643,-78.081596 C 8.9638184,-77.850527 9.2050971,-75.113082 9.084236,-74.798173 C 9.0226719,-74.637704 6.3845012,-73.171066 6.1574492,-73.171066 C 6.1074176,-73.171066 6.0390606,-73.248935 6.0055309,-73.344111 z M -2.1461693,-74.313193 C -2.2495674,-75.193867 -2.2939642,-76.757718 -2.2173684,-76.820374 C -1.7748299,-77.182309 0.33587755,-78.273558 0.42364435,-78.185791 C 0.48877331,-78.120654 0.55662112,-77.358171 0.57443733,-76.491362 L 0.60682521,-74.915354 L -0.56990708,-74.253715 C -1.2171061,-73.889809 -1.8173374,-73.590794 -1.9037407,-73.589225 C -1.9907436,-73.587656 -2.0989058,-73.910648 -2.1461693,-74.313193 z M 16.533366,-74.036306 C 16.290815,-75.476552 16.185117,-76.934319 16.306758,-77.161585 C 16.483557,-77.491969 19.416496,-79.010339 19.681447,-78.908674 C 19.916877,-78.818328 20.293162,-75.905324 20.140405,-75.355724 C 20.07443,-75.118372 19.666695,-74.858587 18.497675,-74.309135 C 17.642432,-73.907149 16.867644,-73.580091 16.77591,-73.582325 C 16.684184,-73.584551 16.575036,-73.788851 16.533366,-74.036306 z M 29.060437,-73.999056 C 28.867941,-74.118027 28.33219,-77.415258 28.44634,-77.778556 C 28.524267,-78.026578 31.908271,-79.816167 32.299332,-79.816167 C 32.597304,-79.816167 32.623925,-79.731998 32.930505,-77.820973 C 33.115608,-76.667109 33.168079,-75.983012 33.08359,-75.825139 C 32.91816,-75.516037 29.278749,-73.864124 29.060437,-73.999056 z M 9.9455253,-75.609455 C 9.8698741,-75.808456 9.7935412,-76.622934 9.7759057,-77.419415 L 9.7438382,-78.867563 L 11.234165,-79.694838 C 12.053851,-80.14982 12.777613,-80.489257 12.842544,-80.449131 C 13.001305,-80.351015 13.319368,-77.408276 13.208849,-77.060051 C 13.155375,-76.891557 12.564385,-76.485604 11.68891,-76.016008 C 10.90107,-75.593413 10.217459,-75.24766 10.169768,-75.24766 C 10.122094,-75.24766 10.021176,-75.410471 9.9455253,-75.609455 z M 1.4570091,-75.631346 C 1.3311539,-75.834988 1.215402,-78.640199 1.3262912,-78.799452 C 1.5326356,-79.095806 15.953711,-87.297965 16.067804,-87.183855 C 16.129894,-87.121766 16.274543,-86.359513 16.389235,-85.489968 C 16.584967,-84.005843 16.582872,-83.89414 16.354909,-83.666883 C 16.087789,-83.400585 1.8693201,-75.524539 1.6557063,-75.524539 C 1.5827247,-75.524539 1.4933233,-75.572599 1.4570091,-75.631346 z M 21.194609,-75.974462 C 20.953487,-76.26661 20.66883,-79.344148 20.861457,-79.576252 C 21.118071,-79.885452 24.050024,-81.36359 24.308142,-81.313879 C 24.492349,-81.278402 24.590244,-80.928378 24.785138,-79.608237 C 24.920012,-78.694674 24.996887,-77.836276 24.955973,-77.700663 C 24.890187,-77.482613 21.796524,-75.801409 21.461056,-75.801409 C 21.393068,-75.801409 21.27316,-75.879286 21.194609,-75.974462 z M 34.343111,-76.473792 C 34.132578,-76.608066 33.569548,-79.854641 33.680281,-80.295816 C 33.786521,-80.719142 40.740494,-84.089511 41.073844,-83.87924 C 41.372021,-83.691156 41.998184,-80.298897 41.81106,-79.885378 C 41.726981,-79.699594 40.558266,-79.092216 38.258636,-78.039212 C 34.22064,-76.190203 34.569227,-76.329562 34.343111,-76.473792 z M 14.09869,-77.4973 C 13.90663,-78.60662 13.744329,-80.767712 13.839685,-80.945899 C 13.90879,-81.075023 14.448344,-81.443208 15.038694,-81.764081 C 15.629044,-82.08497 16.300786,-82.459825 16.531461,-82.597097 C 16.762135,-82.73437 17.020885,-82.803368 17.106459,-82.75042 C 17.192049,-82.697489 17.349824,-81.914627 17.45709,-81.01074 C 17.63186,-79.537917 17.629659,-79.341701 17.435833,-79.12076 C 17.075492,-78.709993 14.136294,-77.280121 14.09869,-77.4973 z M 25.962708,-78.258715 C 25.821632,-78.487212 25.440551,-81.532585 25.515611,-81.831649 C 25.576904,-82.07586 26.026786,-82.370366 27.411078,-83.072492 C 28.555989,-83.653199 29.274691,-83.944624 29.357554,-83.861753 C 29.429805,-83.789502 29.61177,-82.974261 29.761914,-82.050109 C 29.972168,-80.756056 29.998995,-80.302716 29.878635,-80.077808 C 29.78479,-79.902455 29.032945,-79.459925 27.99705,-78.970328 C 26.227331,-78.133886 26.073105,-78.079937 25.962708,-78.258715 z M 18.58352,-79.788223 C 18.392035,-79.909322 18.050923,-82.708463 18.169878,-83.182453 C 18.23748,-83.451783 18.60845,-83.722024 19.804312,-84.373084 C 20.655162,-84.836305 21.432816,-85.2153 21.532444,-85.2153 C 21.743511,-85.2153 21.790536,-85.028316 22.008224,-83.323759 C 22.097314,-82.626052 22.133119,-81.907374 22.087769,-81.726715 C 22.025129,-81.477149 21.612736,-81.193165 20.371228,-80.54466 C 19.472482,-80.075188 18.66801,-79.734791 18.58352,-79.788223 z M 31.003669,-80.958285 C 30.758948,-81.577228 30.423102,-84.23963 30.559068,-84.482609 C 30.631549,-84.612103 32.768221,-85.791645 35.30724,-87.103793 C 38.840394,-88.929704 39.960836,-89.450958 40.08214,-89.325177 C 40.377779,-89.018646 40.918903,-85.776498 40.730604,-85.440019 C 40.617686,-85.23825 31.544127,-80.646802 31.258312,-80.646802 C 31.185979,-80.646802 31.071385,-80.786966 31.003669,-80.958285 z M 23.088738,-82.204237 C 23.080754,-82.223286 22.966193,-82.986426 22.834169,-83.90012 C 22.656976,-85.126342 22.633582,-85.62619 22.744849,-85.808779 C 22.945707,-86.138391 26.097476,-87.856707 26.334434,-87.765769 C 26.616585,-87.6575 27.076891,-84.322658 26.847793,-84.046609 C 26.493038,-83.61916 23.176948,-81.993893 23.088738,-82.204237 z M 17.502169,-84.375416 C 17.345142,-84.629484 16.990436,-87.325933 17.071533,-87.649048 C 17.162207,-88.010301 20.289983,-89.884633 20.480367,-89.691809 C 20.626388,-89.543908 21.02775,-86.48674 20.933412,-86.240919 C 20.89437,-86.139172 20.260831,-85.732479 19.525537,-85.337138 C 18.790242,-84.941806 18.054242,-84.531236 17.889986,-84.424766 C 17.691469,-84.296102 17.561417,-84.27955 17.502169,-84.375416 z M 27.954567,-84.992035 C 27.73554,-85.568125 27.416672,-88.174187 27.537188,-88.403169 C 27.69226,-88.69779 38.861274,-94.768172 39.088113,-94.681136 C 39.189572,-94.642202 39.302186,-94.412119 39.338377,-94.169838 C 39.374568,-93.927558 39.508432,-93.169108 39.635864,-92.484363 C 39.763305,-91.799634 39.835621,-91.112104 39.796564,-90.956506 C 39.744133,-90.747598 38.237452,-89.896577 34.03493,-87.702193 C 30.905084,-86.067899 28.286808,-84.710121 28.216545,-84.684904 C 28.146266,-84.659679 28.028386,-84.797888 27.954567,-84.992035 z M 21.796878,-87.672598 C 21.746107,-88.110422 21.638955,-88.818758 21.558794,-89.246708 C 21.454797,-89.801811 21.456291,-90.10564 21.564043,-90.306957 C 21.647095,-90.462169 22.443272,-91.007276 23.333294,-91.51832 C 25.243456,-92.615113 25.207117,-92.627796 25.45035,-90.778927 C 25.537378,-90.117394 25.635371,-89.446054 25.668104,-89.287047 C 25.700853,-89.128032 25.651109,-88.899255 25.557568,-88.778624 C 25.34526,-88.504834 22.38455,-86.876585 22.099006,-86.876585 C 21.946578,-86.876585 21.863953,-87.094298 21.796878,-87.672598 z M 26.564237,-89.834889 C 26.564237,-90.015277 26.467838,-90.715679 26.350007,-91.391348 C 26.232177,-92.067008 26.169061,-92.75246 26.209745,-92.914564 C 26.260195,-93.115536 26.834577,-93.523223 28.015318,-94.196123 C 28.967684,-94.738873 29.811067,-95.182947 29.889494,-95.182947 C 30.09974,-95.182947 30.252981,-94.678426 30.36484,-93.617963 C 30.419488,-93.099855 30.519107,-92.484469 30.586232,-92.250444 C 30.767376,-91.618827 30.527305,-91.382797 28.692588,-90.38867 C 26.899033,-89.416845 26.564237,-89.329719 26.564237,-89.834889 z M 31.630464,-92.448763 C 31.338957,-93.514187 31.083189,-95.755629 31.230064,-95.957891 C 31.458758,-96.272857 37.920112,-99.879724 38.118957,-99.803416 C 38.231768,-99.760128 38.362478,-99.497115 38.409429,-99.218931 C 38.456372,-98.940755 38.588799,-98.227901 38.703713,-97.6348 C 38.970504,-96.257785 38.896594,-95.981022 38.15955,-95.597304 C 37.835401,-95.428538 36.343094,-94.612147 34.843304,-93.783089 C 33.343531,-92.954032 32.017755,-92.275718 31.897132,-92.275718 C 31.776501,-92.275718 31.656494,-92.353587 31.630464,-92.448763 z "
     style="fill:#000000"
     id="path1932" />
  <path
     d="M 40.3144,-57.233452 C 44.437394,-45.088375 32.531411,-33.746817 38.260887,-20.563726 C 49.796295,5.9783684 31.72573,19.56614 32.980455,40.748077 C 33.638406,51.855584 41.926254,72.338688 55.512563,79.495728"
     style="fill:none;fill-rule:evenodd;stroke:#ffff80;stroke-width:0.82140201;stroke-linecap:butt;stroke-linejoin:miter;stroke-opacity:1"
     id="path2015" />
  <path
     d="M 55.792694,77.905034 C 54.728486,77.247773 53.096212,79.593295 54.329572,80.36924 C 55.528753,81.123681 58.472329,82.7339 59.951042,83.654848 C 61.515377,84.629121 62.959098,82.096115 61.388495,81.164973 C 59.850995,80.253464 56.8806,78.576933 55.792694,77.905034 z "
     style="fill:#ffff80;fill-opacity:1;fill-rule:evenodd;stroke:none;stroke-width:3.5;stroke-linecap:butt;stroke-linejoin:miter;stroke-miterlimit:4;stroke-dasharray:none;stroke-opacity:1"
     id="path2907" />
  <path
     style="color:#000000;fill:url(#radialGradient2373);fill-opacity:1;fill-rule:nonzero;stroke:none;stroke-width:10;stroke-linecap:butt;stroke-linejoin:miter;stroke-miterlimit:4;stroke-dashoffset:0;stroke-opacity:1;marker:none;marker-start:none;marker-mid:none;marker-end:none;visibility:visible;display:inline;overflow:visible"
     d="M -77.07859,103.28453 L 75.130302,103.28453 L 75.130302,179.88639 L -77.07859,179.88639 L -77.07859,103.28453 z "
     id="rect2371" />
  <path
     style="color:#000000;fill:url(#radialGradient2361);fill-opacity:1;fill-rule:nonzero;stroke:none;stroke-width:10;stroke-linecap:butt;stroke-linejoin:miter;stroke-miterlimit:4;stroke-dashoffset:0;stroke-opacity:1;marker:none;marker-start:none;marker-mid:none;marker-end:none;visibility:visible;display:inline;overflow:visible"
     d="M -147.23477,124.18631 L -48.746666,124.18631 L -48.746666,169.94846 L -147.23477,169.94846 L -147.23477,124.18631 z "
     id="rect2353" />
  <path
     style="color:#000000;fill:url(#radialGradient2365);fill-opacity:1;fill-rule:nonzero;stroke:none;stroke-width:10;stroke-linecap:butt;stroke-linejoin:miter;stroke-miterlimit:4;stroke-dashoffset:0;stroke-opacity:1;marker:none;marker-start:none;marker-mid:none;marker-end:none;visibility:visible;display:inline;overflow:visible"
     d="M -125.84592,118.21732 L -27.357811,118.21732 L -27.357811,163.97947 L -125.84592,163.97947 L -125.84592,118.21732 z "
     id="rect2363" />
  <path
     style="color:#000000;fill:url(#radialGradient2369);fill-opacity:1;fill-rule:nonzero;stroke:none;stroke-width:10;stroke-linecap:butt;stroke-linejoin:miter;stroke-miterlimit:4;stroke-dashoffset:0;stroke-opacity:1;marker:none;marker-start:none;marker-mid:none;marker-end:none;visibility:visible;display:inline;overflow:visible"
     d="M -86.05275,113.2225 L 12.435356,113.2225 L 12.435356,158.98465 L -86.05275,158.98465 L -86.05275,113.2225 z "
     id="rect2367" />
  <path
     style="color:#000000;fill:url(#radialGradient2377);fill-opacity:1;fill-rule:nonzero;stroke:none;stroke-width:10;stroke-linecap:butt;stroke-linejoin:miter;stroke-miterlimit:4;stroke-dashoffset:0;stroke-opacity:1;marker:none;marker-start:none;marker-mid:none;marker-end:none;visibility:visible;display:inline;overflow:visible"
     d="M 56.20787,151.04669 L 154.69598,151.04669 L 154.69598,196.80884 L 56.20787,196.80884 L 56.20787,151.04669 z "
     id="rect2375" />
  <path
     style="color:#000000;fill:url(#radialGradient2381);fill-opacity:1;fill-rule:nonzero;stroke:none;stroke-width:10;stroke-linecap:butt;stroke-linejoin:miter;stroke-miterlimit:4;stroke-dashoffset:0;stroke-opacity:1;marker:none;marker-start:none;marker-mid:none;marker-end:none;visibility:visible;display:inline;overflow:visible"
     d="M 34.321621,145.07771 L 132.80973,145.07771 L 132.80973,190.83986 L 34.321621,190.83986 L 34.321621,145.07771 z "
     id="rect2379" />
  <path
     style="color:#000000;fill:url(#radialGradient2385);fill-opacity:1;fill-rule:nonzero;stroke:none;stroke-width:10;stroke-linecap:butt;stroke-linejoin:miter;stroke-miterlimit:4;stroke-dashoffset:0;stroke-opacity:1;marker:none;marker-start:none;marker-mid:none;marker-end:none;visibility:visible;display:inline;overflow:visible"
     d="M 11.440545,132.14494 L 109.92865,132.14494 L 109.92865,177.90709 L 11.440545,177.90709 L 11.440545,132.14494 z "
     id="rect2383" />
</svg>
