<?xml version="1.0" encoding="UTF-8" standalone="no"?>
<!-- Created with Inkscape (http://www.inkscape.org/) -->
<svg
   xmlns:dc="http://purl.org/dc/elements/1.1/"
   xmlns:cc="http://web.resource.org/cc/"
   xmlns:rdf="http://www.w3.org/1999/02/22-rdf-syntax-ns#"
   xmlns:svg="http://www.w3.org/2000/svg"
   xmlns="http://www.w3.org/2000/svg"
   xmlns:xlink="http://www.w3.org/1999/xlink"
   xmlns:sodipodi="http://inkscape.sourceforge.net/DTD/sodipodi-0.dtd"
   xmlns:inkscape="http://www.inkscape.org/namespaces/inkscape"
   width="744.09448819"
   height="1052.3622047"
   id="svg2696"
   sodipodi:version="0.32"
   inkscape:version="0.42+0.43pre1"
   sodipodi:docbase="c:\users\proj\keyboardhero\data"
   sodipodi:docname="4x.svg">
  <defs
     id="defs2698">
    <radialGradient
       inkscape:collect="always"
       xlink:href="#linearGradient2762"
       id="radialGradient2693"
       gradientUnits="userSpaceOnUse"
       gradientTransform="matrix(2.739384,1.408218,-1.636432,3.183326,-406.4300,-888.6718)"
       cx="255.18288"
       cy="176.28802"
       fx="255.18288"
       fy="176.28802"
       r="12.445148" />
    <radialGradient
       inkscape:collect="always"
       xlink:href="#linearGradient2762"
       id="radialGradient2691"
       gradientUnits="userSpaceOnUse"
       gradientTransform="matrix(1.996297,-2.726133e-2,2.375726e-3,0.173970,-865.5625,9.591943)"
       cx="433.02878"
       cy="49.637108"
       fx="433.02878"
       fy="49.637108"
       r="340.46094" />
    <linearGradient
       id="linearGradient7874">
      <stop
         style="stop-color:#fdfdff;stop-opacity:0.79215688;"
         offset="0"
         id="stop7876" />
      <stop
         style="stop-color:#0016ff;stop-opacity:0;"
         offset="1"
         id="stop7878" />
    </linearGradient>
    <radialGradient
       inkscape:collect="always"
       xlink:href="#linearGradient7874"
       id="radialGradient2658"
       gradientUnits="userSpaceOnUse"
       gradientTransform="matrix(0.821990,0.000000,0.000000,0.860722,51.99383,-78.98657)"
       cx="-66.071434"
       cy="98.790756"
       fx="-66.071434"
       fy="98.790756"
       r="68.214287" />
    <radialGradient
       inkscape:collect="always"
       xlink:href="#linearGradient2762"
       id="radialGradient2436"
       gradientUnits="userSpaceOnUse"
       gradientTransform="matrix(2.739384,1.408218,-1.636432,3.183326,-390.8536,-859.8749)"
       cx="255.18288"
       cy="176.28802"
       fx="255.18288"
       fy="176.28802"
       r="12.445148" />
    <linearGradient
       id="linearGradient2762">
      <stop
         style="stop-color:#9499ff;stop-opacity:1;"
         offset="0"
         id="stop2764" />
      <stop
         style="stop-color:#060032;stop-opacity:0.6156863;"
         offset="1"
         id="stop2766" />
    </linearGradient>
    <radialGradient
       inkscape:collect="always"
       xlink:href="#linearGradient2762"
       id="radialGradient2438"
       gradientUnits="userSpaceOnUse"
       gradientTransform="matrix(1.996297,-2.726133e-2,2.375726e-3,0.173970,-849.9862,38.38880)"
       cx="433.02878"
       cy="49.637108"
       fx="433.02878"
       fy="49.637108"
       r="340.46094" />
    <radialGradient
       inkscape:collect="always"
       xlink:href="#linearGradient2762"
       id="radialGradient2724"
       gradientUnits="userSpaceOnUse"
       gradientTransform="matrix(1.996297,-2.726133e-2,2.375726e-3,0.173970,-868.5930,6.561490)"
       cx="433.02878"
       cy="49.637108"
       fx="433.02878"
       fy="49.637108"
       r="340.46094" />
    <radialGradient
       inkscape:collect="always"
       xlink:href="#linearGradient2762"
       id="radialGradient2726"
       gradientUnits="userSpaceOnUse"
       gradientTransform="matrix(2.739384,1.408218,-1.636432,3.183326,-409.4605,-891.7022)"
       cx="255.18288"
       cy="176.28802"
       fx="255.18288"
       fy="176.28802"
       r="12.445148" />
    <radialGradient
       inkscape:collect="always"
       xlink:href="#linearGradient2762"
       id="radialGradient2731"
       gradientUnits="userSpaceOnUse"
       gradientTransform="matrix(1.996297,-2.726133e-2,2.375726e-3,0.173970,-864.5524,10.60209)"
       cx="433.02878"
       cy="49.637108"
       fx="433.02878"
       fy="49.637108"
       r="340.46094" />
    <radialGradient
       inkscape:collect="always"
       xlink:href="#linearGradient2762"
       id="radialGradient2733"
       gradientUnits="userSpaceOnUse"
       gradientTransform="matrix(2.739384,1.408218,-1.636432,3.183326,-405.4199,-887.6616)"
       cx="255.18288"
       cy="176.28802"
       fx="255.18288"
       fy="176.28802"
       r="12.445148" />
  </defs>
  <sodipodi:namedview
     id="base"
     pagecolor="#ffffff"
     bordercolor="#666666"
     borderopacity="1.0"
     inkscape:pageopacity="0.0"
     inkscape:pageshadow="2"
     inkscape:zoom="0.98994949"
     inkscape:cx="31.786954"
     inkscape:cy="1172.3798"
     inkscape:document-units="px"
     inkscape:current-layer="layer1"
     inkscape:window-width="719"
     inkscape:window-height="538"
     inkscape:window-x="110"
     inkscape:window-y="110" />
  <metadata
     id="metadata2701">
    <rdf:RDF>
      <cc:Work
         rdf:about="">
        <dc:format>image/svg+xml</dc:format>
        <dc:type
           rdf:resource="http://purl.org/dc/dcmitype/StillImage" />
      </cc:Work>
    </rdf:RDF>
  </metadata>
  <g
     inkscape:label="Layer 1"
     inkscape:groupmode="layer"
     id="layer1">
    <path
       style="color:#000000;fill:url(#radialGradient2658);fill-opacity:1;fill-rule:evenodd;stroke:none;stroke-width:8;stroke-linecap:butt;stroke-linejoin:miter;marker:none;marker-start:none;marker-mid:none;marker-end:none;stroke-miterlimit:4;stroke-dashoffset:0;stroke-opacity:1;visibility:visible;display:inline;overflow:visible"
       d="M -58.387602,-52.668742 L 53.755258,-52.668742 L 53.755258,64.758338 L -58.387602,64.758338 L -58.387602,-52.668742 z "
       id="rect2647" />
    <path
       style="font-size:108.15953064px;font-style:normal;font-variant:normal;font-weight:normal;font-stretch:normal;text-align:start;line-height:125%;writing-mode:lr-tb;text-anchor:start;color:#000000;fill:url(#radialGradient2731);fill-opacity:1;fill-rule:nonzero;stroke:url(#radialGradient2733);stroke-width:0.58596718;stroke-linecap:butt;stroke-linejoin:miter;marker:none;marker-start:none;marker-mid:none;marker-end:none;stroke-miterlimit:4;stroke-dashoffset:0;stroke-opacity:1;visibility:visible;display:inline;overflow:visible;font-family:Seaweed Fire AOE"
       d="M -15.425274,-8.2807608 C -15.953425,-6.5907148 -16.217486,-4.6014548 -16.217458,-2.3129741 C -16.217486,-1.3270973 -16.14707,0.18685296 -16.006209,2.2288812 C -15.865405,4.2709982 -15.794988,5.8025523 -15.79496,6.8235483 C -15.794988,7.5981674 -15.830197,8.3199344 -15.900585,8.9888524 C -16.323111,10.11555 -16.992065,10.802109 -17.907451,11.04853 C -18.963722,10.978149 -19.843925,10.097946 -20.548064,8.4079174 C -21.252251,6.7179643 -21.93881,5.8729683 -22.607743,5.8729283 C -23.100679,5.8729683 -23.699217,6.1370293 -24.40336,6.6651123 C -24.579421,6.9468173 -24.667441,7.2460864 -24.667421,7.5629204 C -24.667441,8.2671224 -24.385776,8.6192044 -23.822425,8.6191664 C -23.575989,8.6192044 -23.276719,8.4959754 -22.924617,8.2494804 C -24.368172,11.523876 -24.96671,16.136143 -24.720234,22.086295 C -24.579421,22.684858 -24.262547,22.984127 -23.769613,22.984103 C -22.537348,22.843294 -21.956414,22.367984 -22.026808,21.558172 C -22.660577,18.143007 -22.132455,16.224163 -20.44244,15.801635 C -20.759337,16.435412 -20.917774,17.104367 -20.91775,17.808501 C -20.917774,18.477484 -20.724129,19.463312 -20.336815,20.765988 C -19.94955,22.033507 -19.755905,22.984127 -19.75588,23.617851 C -19.755905,24.286828 -19.896737,24.902971 -20.178378,25.46628 C -20.42486,25.783174 -21.498708,26.15286 -23.399927,26.575338 C -25.547645,27.068272 -27.624925,27.314729 -29.631775,27.31471 C -31.744278,27.314729 -33.451873,26.997855 -34.754565,26.364089 C -35.317905,25.800779 -35.59957,25.20224 -35.599562,24.568472 C -35.59957,23.899539 -35.229885,23.072147 -34.490504,22.086295 C -33.539894,20.783618 -32.994167,19.956226 -32.853323,19.604118 C -32.818127,19.040815 -32.730106,18.495088 -32.589262,17.966938 C -32.483649,18.45988 -32.57167,19.005606 -32.853323,19.604118 C -32.923751,20.589973 -32.818127,21.346948 -32.53645,21.875046 C -31.656258,22.720066 -30.934491,22.984127 -30.371147,22.66723 C -29.561373,22.279964 -29.138876,21.540593 -29.103652,20.449114 C -29.068459,19.392896 -29.508561,17.966966 -30.423959,16.17132 C -31.304176,14.375735 -31.744278,13.020222 -31.744266,12.104776 C -31.744278,11.259814 -31.480217,10.432423 -30.952082,9.6225994 C -31.022511,9.9043014 -30.916887,10.59086 -30.635208,11.682277 C -30.28314,12.949805 -29.895851,13.583552 -29.473338,13.583519 C -29.297312,13.583552 -29.121271,13.477928 -28.945215,13.266646 C -28.100235,11.999186 -27.677738,10.485235 -27.677721,8.7247904 C -27.677738,6.7531723 -28.311484,5.2744303 -29.578963,4.2885602 C -30.705638,4.0069372 -33.029376,3.8837082 -36.550182,3.9188742 C -39.507674,3.9541242 -41.743392,3.6020432 -43.257341,2.8626284 C -43.926297,2.4401743 -44.348794,1.7008032 -44.524835,0.64451296 C -44.419211,-0.41168554 -43.961505,-1.7143869 -43.151716,-3.263595 C -42.060265,-5.1999932 -41.461726,-6.2914458 -41.356099,-6.5379558 C -41.039229,-6.2210298 -40.880792,-5.8337399 -40.880789,-5.3760858 C -40.880792,-5.1647851 -40.933604,-4.8303077 -41.039225,-4.3726527 C -41.109645,-3.9501041 -41.144853,-3.6332308 -41.14485,-3.4220318 C -41.144853,-3.0346923 -41.004021,-2.7002149 -40.722352,-2.4185987 C -40.229441,-2.5593823 -39.824548,-2.9818801 -39.50767,-3.6860932 C -39.120385,-4.5310385 -38.785907,-5.0591607 -38.504236,-5.2704613 C -36.919876,-6.5731108 -35.916444,-8.9320568 -35.493937,-12.347306 C -35.03624,-15.938478 -34.244057,-18.350236 -33.117385,-19.582587 C -33.504686,-18.350236 -33.69833,-17.205971 -33.69832,-16.149789 C -33.69833,-15.163899 -33.504686,-14.424528 -33.117385,-13.931674 C -32.976563,-13.825989 -32.835731,-13.773177 -32.694887,-13.773237 C -32.2724,-13.773177 -31.779486,-14.266091 -31.216143,-15.251981 C -30.441577,-16.519412 -29.948663,-17.276387 -29.737399,-17.522908 C -28.68117,-18.473464 -27.871382,-20.145851 -27.308035,-22.540074 C -26.674305,-25.074991 -25.970142,-26.817795 -25.195544,-27.768489 C -25.899726,-26.078424 -26.251808,-24.63489 -26.25179,-23.437883 C -26.251808,-22.980107 -26.198995,-22.575213 -26.093353,-22.2232 C -25.494833,-21.659801 -25.142751,-21.501365 -25.037107,-21.74789 C -24.649837,-22.487193 -24.244943,-23.244168 -23.822425,-24.018818 C -23.36474,-24.828534 -22.819013,-25.339053 -22.185245,-25.550373 C -23.135887,-23.86031 -23.752029,-21.39574 -24.033674,-18.156656 C -24.280151,-15.797645 -24.350568,-12.769745 -24.244923,-9.0729448 C -24.139319,-3.0522964 -24.086507,-0.44689364 -24.086487,-1.2567287 C -23.84005,-0.37647734 -23.417552,0.27487336 -22.818992,0.69732526 C -22.079642,1.0846607 -21.445896,0.76778736 -20.91775,-0.25329564 C -20.847357,-0.71095474 -20.812149,-1.2214728 -20.812126,-1.7848514 C -20.812149,-2.242509 -20.847357,-2.9466719 -20.91775,-3.8973422 C -20.98819,-4.8831199 -21.023398,-5.6048869 -21.023375,-6.0626458 C -21.023398,-8.1750818 -20.477672,-9.7946558 -19.386194,-10.921374 L -19.333382,-7.0132658 C -19.192574,-6.6259228 -18.840493,-6.1682168 -18.277137,-5.6401472 C -17.819457,-5.6400951 -16.868837,-6.5202988 -15.425274,-8.2807608 M -27.20241,-13.086678 C -27.378468,-13.403491 -27.589717,-13.561928 -27.836158,-13.561988 C -28.29388,-13.561928 -28.751586,-13.192242 -29.209277,-12.45293 C -30.864075,-10.234758 -32.501253,-8.0166448 -34.120818,-5.798584 C -36.092484,-3.1227127 -37.043104,-1.3799095 -36.972681,-0.57016924 C -36.867063,-0.14762444 -36.497378,0.16924886 -35.863623,0.38045166 C -34.877803,0.66216296 -33.786351,0.27487336 -32.589262,-0.78141834 C -32.201984,-1.7319909 -31.339385,-2.9114638 -30.001461,-4.3198404 C -30.318348,-3.1579208 -30.318348,-2.1016764 -30.001461,-1.1511042 C -29.684602,-0.41168554 -29.279708,-0.077208136 -28.786779,-0.14767104 C -27.836174,-1.027828 -27.360864,-2.1368846 -27.360847,-3.4748441 C -27.360864,-4.0733326 -27.501697,-4.9711403 -27.783345,-6.1682698 C -28.029819,-7.3652938 -28.153047,-8.2807058 -28.153031,-8.9145078 C -28.153047,-9.3721588 -28.100235,-9.7946558 -27.994595,-10.182003 C -27.748154,-10.815693 -27.484093,-11.783917 -27.20241,-13.086678 M 39.499486,33.229684 C 38.055901,35.44781 35.661747,38.616543 32.317018,42.735893 C 31.084688,43.510476 29.570738,44.918801 27.775162,46.960874 C 27.141376,48.333992 25.926695,48.809302 24.131116,48.386806 C 23.074835,47.5066 22.546713,46.362335 22.546747,44.954008 C 22.546713,44.249847 22.687545,43.264019 22.969246,41.996521 C 23.321292,40.552991 23.514937,39.567163 23.550181,39.039034 C 23.26848,38.018005 23.092439,36.891344 23.022058,35.659048 C 23.514937,36.574471 23.690977,37.701132 23.550181,39.039034 C 23.937434,40.306534 24.430349,41.186738 25.028924,41.679647 C 25.697842,41.961317 26.137944,41.62684 26.349231,40.676214 C 26.067527,36.521659 24.447953,31.416478 21.490502,25.360656 C 17.828821,17.966966 15.645916,13.002618 14.94178,10.467595 L 14.096784,10.626032 C 13.357387,12.10481 11.473751,14.498964 8.4458709,17.808501 C 5.8052403,20.695597 4.2032692,23.21298 3.6399547,25.360656 C 3.3230656,25.924007 2.1788008,27.244312 0.20715709,29.321576 C -1.3068055,30.90596 -2.0637807,32.314285 -2.0637706,33.546558 C -2.0637807,34.285942 -1.8173236,35.060521 -1.3243988,35.870297 C -0.47941411,35.659059 -0.039312309,34.937292 -0.0040920093,33.704994 C -0.0041042093,32.331889 0.27756099,31.434082 0.84090429,31.011569 C 1.0169321,32.666367 1.5802624,34.919688 2.530897,37.771539 C 2.9181719,40.236118 2.7245271,41.71486 1.949962,42.20777 C 1.5978664,42.383815 1.245785,42.471835 0.89371659,42.471831 C 0.013499891,42.471835 -0.86670371,41.961317 -1.746897,40.940275 C -2.4862784,40.095286 -3.2080454,39.25029 -3.9122001,38.405286 C -9.5103039,32.631159 -12.309351,27.930871 -12.309351,24.30441 C -12.309351,23.001731 -12.04529,21.69903 -11.517167,20.396302 C -11.411543,20.009039 -11.358731,19.586541 -11.35873,19.128808 C -11.358731,18.635921 -11.464356,17.80853 -11.675604,16.646631 C -11.851645,15.484792 -11.939666,14.604588 -11.939665,14.006017 C -11.939666,13.372303 -11.869249,12.773765 -11.728416,12.2104 C -10.848213,14.815837 -9.9328009,18.84717 -8.9821779,24.30441 C -8.5596839,25.149428 -7.8907288,25.818383 -6.9753118,26.311276 C -5.9190726,26.487337 -5.0740771,26.205672 -4.4403228,25.46628 C -3.9826246,24.621306 -3.6305431,22.948919 -3.3840773,20.449114 C -3.1728372,18.195819 -2.6095069,16.55864 -1.6940847,15.537573 C -2.0813847,17.579677 -2.2750295,18.741545 -2.2750197,19.023183 C -2.2750295,20.079455 -1.905344,20.959659 -1.165962,21.663797 C -0.56743451,21.69903 -0.039312309,21.470177 0.41840609,20.977237 C 0.87609949,20.484349 1.3162013,20.009039 1.7387129,19.551306 C 3.675147,17.051554 5.3651383,12.808973 6.8086913,6.8235483 C 6.9495043,6.2602583 7.1079413,5.7145323 7.2840013,5.1863683 L 6.8086913,6.8235483 C 6.4213823,8.4431634 6.6678393,9.6226364 7.5480623,10.361971 C 8.3578299,10.080342 9.0091809,9.4113874 9.5021159,8.3551044 C 9.8893839,7.4749394 10.276674,6.5771313 10.663986,5.6616793 C 10.804796,3.4083982 10.241466,1.2078892 8.9739939,-0.93985514 C 8.1993929,-2.242509 6.7734643,-4.0205204 4.6962001,-6.2738948 C 2.6189027,-8.5623708 1.2105769,-10.322779 0.47121839,-11.555122 C 0.96411979,-10.886109 1.4218257,-10.322779 1.8443375,-9.8651288 C 2.935776,-8.7032038 3.904,-8.0870608 4.7490124,-8.0166998 C 5.2419093,-8.1926858 5.3651383,-8.7912238 5.1186983,-9.8123168 C 2.9005678,-14.741401 0.17193659,-17.41722 -3.0672037,-17.839782 C -4.6515793,-17.910134 -6.2535498,-17.98055 -7.8731208,-18.051031 C -9.6335319,-18.297424 -10.760193,-19.160023 -11.253106,-20.638832 C -11.534772,-21.30772 -11.675605,-21.994279 -11.675604,-22.698511 C -11.675605,-23.930727 -11.217899,-25.339053 -10.302485,-26.923493 C -9.5631159,-28.120496 -8.8237449,-29.299969 -8.0843699,-30.461915 C -7.9083328,-30.144964 -7.8203128,-29.810487 -7.8203078,-29.458482 C -7.8203128,-29.035908 -7.9963529,-28.419765 -8.3484309,-27.610052 C -8.6653079,-26.800191 -8.8237449,-26.184048 -8.8237409,-25.761623 C -8.8237449,-25.19822 -8.6300999,-24.687702 -8.2428059,-24.230067 C -7.3626068,-23.701874 -6.4295908,-23.596249 -5.4437559,-23.913193 C -3.4016902,-24.828534 -1.3420137,-26.729774 0.73527979,-29.616918 C 2.9181719,-32.644743 4.9250362,-34.669211 6.7558783,-35.690329 C 5.1362853,-33.894632 4.3264977,-32.363078 4.3265142,-31.095662 C 4.3264977,-30.884335 4.3441018,-30.690691 4.3793265,-30.514727 C 4.625767,-29.95132 5.2067013,-29.634446 6.1221313,-29.564106 C 7.4600223,-30.162568 8.3754339,-31.55329 8.8683689,-33.736275 C 9.3964699,-36.200765 10.065425,-37.785132 10.875236,-38.48938 C 10.593547,-37.961173 10.276674,-37.186593 9.9246149,-36.16564 C 9.5725109,-35.179729 9.5196989,-33.982652 9.7661779,-32.574405 C 10.083029,-30.60267 10.241466,-29.47601 10.241488,-29.19442 C 10.241466,-28.278933 10.030217,-27.469145 9.6077409,-26.765056 C 9.3964699,-26.342485 8.4810589,-25.28624 6.8615033,-23.596319 C 5.6291993,-22.328756 5.0130563,-21.166887 5.0130733,-20.11071 C 5.0130563,-19.723353 5.0834733,-19.31846 5.2243233,-18.896027 C 6.0340933,-16.4666 7.4952313,-12.980994 9.6077409,-8.4391978 C 10.100633,-8.0518528 10.505527,-7.9462288 10.822423,-8.1223238 C 10.892817,-8.3687268 10.928025,-8.6327878 10.928048,-8.9145078 C 10.928025,-9.3017418 10.769588,-9.9002808 10.452737,-10.710125 C 10.17105,-11.555064 10.030217,-12.18881 10.030239,-12.611367 C 10.030217,-12.963389 10.083029,-13.280263 10.188676,-13.561988 C 8.7451199,-11.942353 7.7064793,-10.868505 7.0727523,-10.340439 C 7.1783573,-10.58684 7.2839823,-10.850901 7.3896263,-11.132624 C 8.3050179,-12.224018 9.7309479,-13.790781 11.66742,-15.832916 C 11.456147,-15.12869 11.350522,-14.354111 11.350546,-13.509176 C 11.350522,-11.889541 11.77302,-9.7242398 12.61804,-7.0132658 C 13.322179,-4.7950996 14.026342,-2.5593823 14.730531,-0.30610784 C 15.434667,0.046020364 15.927581,0.063624464 16.209275,-0.25329564 C 17.406324,-1.6263665 18.216111,-3.9325 18.638639,-7.1717028 C 19.061106,-10.551632 19.747665,-12.857765 20.698318,-14.090111 C 20.768701,-13.737969 20.751097,-13.209847 20.645506,-12.505743 C 20.50464,-11.62548 20.434224,-11.044546 20.434257,-10.762938 C 20.434224,-9.9530928 20.663077,-9.3369508 21.120816,-8.9145078 C 22.810774,-9.6186158 23.655769,-11.343815 23.655805,-14.090111 C 23.655769,-15.498376 23.180459,-17.434824 22.229874,-19.899461 C 21.279219,-22.399172 20.80391,-24.300412 20.803942,-25.603186 C 20.80391,-26.377693 20.909534,-27.134668 21.120816,-27.874113 C 21.296824,-28.930283 21.631301,-30.497046 22.124249,-32.574405 C 22.018591,-27.046648 23.162855,-23.789894 25.557047,-22.804135 C 26.402005,-22.416777 27.070959,-22.311152 27.563913,-22.487262 C 28.162412,-23.050523 28.479285,-24.053955 28.514534,-25.497561 C 28.58491,-26.941023 28.76095,-27.786019 29.042657,-28.03255 C 28.972199,-26.588942 29.218656,-24.705306 29.782029,-22.381637 C 30.521358,-19.459292 30.943855,-17.575657 31.049523,-16.730724 C 32.457806,-14.442132 34.006964,-13.297867 35.697003,-13.297927 C 35.97862,-13.685156 36.119453,-14.142862 36.119501,-14.671046 C 36.119453,-14.987858 36.031432,-15.498376 35.85544,-16.202602 C 35.714559,-16.906702 35.644143,-17.434824 35.644191,-17.78697 C 35.644143,-18.209403 35.714559,-18.596693 35.85544,-18.94884 C 37.651007,-15.005462 38.548815,-11.695896 38.548865,-9.0201328 C 38.548815,-8.1398738 38.44319,-7.3828978 38.231992,-6.7492048 C 37.668611,-5.9393643 36.858824,-5.5344706 35.802627,-5.5345226 C 34.957584,-5.5344706 34.253421,-5.7809276 33.690137,-6.2738948 C 32.246557,-7.5413348 31.155104,-8.1750818 30.415776,-8.1751358 C 30.09886,-8.1750818 29.781987,-8.1222698 29.465155,-8.0166998 C 27.704706,-7.3828978 26.261172,-5.9393643 25.134549,-3.6860932 C 23.514937,-0.41168554 22.564317,1.401534 22.282686,1.7535707 C 21.508072,3.9013122 21.120783,6.2426543 21.120816,8.7776034 C 21.120783,12.509704 21.912966,16.523432 23.497368,20.8188 C 23.708582,21.135699 24.183891,21.294136 24.9233,21.294111 C 25.310552,20.871638 25.557009,20.325912 25.662671,19.65693 C 25.521801,18.213423 25.486593,16.875514 25.557047,15.643198 C 25.557009,18.811962 25.592217,20.149871 25.662671,19.65693 C 26.29638,27.226708 28.67293,31.592518 32.792328,32.754374 C 34.165401,32.824804 35.028,32.543138 35.380129,31.909377 C 36.225077,30.958772 36.647575,29.796903 36.647624,28.423767 C 36.647575,27.790039 36.524346,26.839419 36.277938,25.571905 C 36.066641,24.269224 35.961016,23.301 35.961064,22.66723 C 35.961016,21.258928 36.401118,20.079455 37.281371,19.128808 C 39.041729,23.459437 39.921932,27.173896 39.921985,30.272197 C 39.921932,31.398874 39.7811,32.384702 39.499486,33.229684 M 30.415776,-10.762938 C 30.556566,-11.185378 30.398129,-11.396627 29.940465,-11.396685 C 29.940423,-10.76288 30.09886,-10.551632 30.415776,-10.762938 M 26.507668,-15.304793 C 26.542837,-15.797645 26.331588,-16.044102 25.87392,-16.044165 C 25.099303,-16.044102 24.852846,-15.709625 25.134549,-15.040732 C 25.204928,-14.406923 25.557009,-14.09005 26.190794,-14.090111 C 26.472421,-14.442132 26.578045,-14.847025 26.507668,-15.304793 M 2.7421461,-28.666297 C 2.7421312,-29.405593 2.4076538,-29.704863 1.7387129,-29.564106 C 1.1049524,-28.930283 0.85849539,-28.155704 0.99934109,-27.240366 C 1.2105769,-27.205084 1.5274502,-27.134668 1.949962,-27.029117 C 2.0907805,-27.09946 2.3548416,-27.645186 2.7421461,-28.666297 M -0.42659021,-20.216334 C -1.1307648,-21.202095 -1.8525318,-21.589385 -2.5918933,-21.378204 C -2.9087762,-21.30772 -3.0672128,-20.92043 -3.0672037,-20.216334 C -2.8911721,-20.005019 -2.5742988,-19.79377 -2.1165828,-19.582587 C -1.6236788,-19.40648 -1.2363893,-19.336064 -0.95471291,-19.371338 C -0.46181011,-19.40648 -0.28576931,-19.688145 -0.42659021,-20.216334 M 19.325199,7.0876104 C 19.606833,6.3130703 19.360376,5.9257803 18.585827,5.9257403 C 18.339339,5.9257803 18.163299,6.1018213 18.057704,6.4538633 C 17.811217,7.2988984 17.864029,7.9150414 18.216141,8.3022924 C 18.356943,8.4079554 18.497776,8.4607674 18.638639,8.4607294 C 18.99069,8.4607674 19.219543,8.0030614 19.325199,7.0876104 M 32.158581,35.025301 C 32.158536,34.602815 31.894475,34.356358 31.366397,34.285929 C 30.838231,34.180317 30.57417,34.338754 30.574213,34.76124 C 30.715002,35.078125 31.014272,35.342186 31.472021,35.553424 C 31.929683,35.694267 32.158536,35.518227 32.158581,35.025301 M -5.2853191,28.95189 C -5.3205341,28.670242 -5.531783,28.547014 -5.9190663,28.582204 C -6.3415708,28.61743 -6.5352148,28.793471 -6.5000018,29.110327 C -6.3943828,29.56805 -6.1303218,29.726487 -5.7078173,29.585637 C -5.4261585,29.163156 -5.285326,28.951908 -5.2853191,28.95189"
       id="text2718" />
  </g>
</svg>
