<?xml version="1.0" encoding="UTF-8" standalone="no"?>
<!-- Created with Inkscape (http://www.inkscape.org/) -->
<svg
   xmlns:dc="http://purl.org/dc/elements/1.1/"
   xmlns:cc="http://web.resource.org/cc/"
   xmlns:rdf="http://www.w3.org/1999/02/22-rdf-syntax-ns#"
   xmlns:svg="http://www.w3.org/2000/svg"
   xmlns="http://www.w3.org/2000/svg"
   xmlns:sodipodi="http://sodipodi.sourceforge.net/DTD/sodipodi-0.dtd"
   xmlns:inkscape="http://www.inkscape.org/namespaces/inkscape"
   width="210mm"
   height="297mm"
   id="svg1901"
   sodipodi:version="0.32"
   inkscape:version="0.45"
   sodipodi:docname="loading.svg"
   sodipodi:docbase="/home/skyostil/proj/keyboardhero/trunk/data"
   inkscape:output_extension="org.inkscape.output.svg.inkscape"
   sodipodi:modified="true">
  <defs
     id="defs1903" />
  <sodipodi:namedview
     id="base"
     pagecolor="#ffffff"
     bordercolor="#666666"
     borderopacity="1.0"
     inkscape:pageopacity="0.0"
     inkscape:pageshadow="2"
     inkscape:zoom="2"
     inkscape:cx="77.776458"
     inkscape:cy="1026.5478"
     inkscape:document-units="px"
     inkscape:current-layer="layer1"
     gridtolerance="10000"
     inkscape:window-width="877"
     inkscape:window-height="739"
     inkscape:window-x="1642"
     inkscape:window-y="198" />
  <metadata
     id="metadata1906">
    <rdf:RDF>
      <cc:Work
         rdf:about="">
        <dc:format>image/svg+xml</dc:format>
        <dc:type
           rdf:resource="http://purl.org/dc/dcmitype/StillImage" />
      </cc:Work>
    </rdf:RDF>
  </metadata>
  <g
     inkscape:label="Taso 1"
     inkscape:groupmode="layer"
     id="layer1"
     style="opacity:1">
    <path
       style="opacity:1;color:#000000;fill:#000000;fill-opacity:1;fill-rule:evenodd;stroke:#929200;stroke-width:2;stroke-linecap:butt;stroke-linejoin:miter;marker:none;marker-start:none;marker-mid:none;marker-end:none;stroke-miterlimit:4;stroke-dasharray:none;stroke-dashoffset:0;stroke-opacity:1;visibility:visible;display:inline;overflow:visible;enable-background:accumulate"
       d="M -51.967273,37.018591 C -54.167578,44.970992 -50.48596,57.409024 -54.660942,64.687522 C -58.715271,70.101299 -66.021142,71.005165 -72.179663,72.433664 C -93.373788,75.339715 -105.4163,68.901413 -109.6207,75.99442 C -112.41497,81.01027 -109.51438,87.645807 -104.4363,89.913735 C -98.263135,93.190986 -91.589733,96.189541 -84.56229,96.789014 C -79.212749,97.116164 -85.445295,97.285547 -71.145147,89.556194 C -63.678187,83.347771 -60.752936,73.491936 -54.247283,66.492076 C -46.886492,59.739914 -36.470623,58.10917 -26.847462,57.710282 C -16.213771,58.452481 -5.7270671,60.582212 4.7620856,62.334061 C 9.4787781,63.493074 14.195477,64.652094 18.91217,65.811115 C 5.3373783,66.92549 -8.1713827,64.770819 -21.506561,62.462924 C -26.280036,62.475437 -32.517284,60.573547 -37.067221,62.017257 C -42.657615,63.551239 -46.269677,65.853614 -49.033941,70.994672 C -54.071356,78.103035 -57.476065,87.299035 -65.717641,91.362857 C -71.421443,93.044686 -77.489689,97.531532 -81.562788,98.595218 C -88.381321,99.917315 -91.317004,100.0094 -100.81666,98.373759 C -106.87788,96.361646 -113.16836,93.990114 -117.86561,89.541905 C -121.74676,84.798275 -121.42183,76.75645 -115.84073,73.409441 C -111.16608,70.525052 -105.22749,69.71198 -99.770013,69.413318 C -90.357908,68.811129 -80.613118,72.747866 -71.491498,70.350683 C -67.111737,69.089187 -63.118504,65.837527 -62.037566,61.222901 C -60.082067,55.161054 -59.38648,46.601174 -58.187021,40.355628 C -54.902787,39.760012 -55.251503,37.614217 -51.967273,37.018591 z "
       id="path10712"
       sodipodi:nodetypes="cccccccccccccccccccccccc" />
    <path
       style="opacity:1;color:#000000;fill:#ffff80;fill-opacity:1;fill-rule:evenodd;stroke:none;stroke-width:23.20284081;stroke-linecap:butt;stroke-linejoin:miter;marker:none;marker-start:none;marker-mid:none;marker-end:none;stroke-miterlimit:4;stroke-dasharray:none;stroke-dashoffset:0;stroke-opacity:1;visibility:visible;display:inline;overflow:visible;enable-background:accumulate"
       d="M -72.418396,-89.220621 L -99.967396,-3.6804891 L 74.971818,52.660322 L 102.52082,-32.879808 L -72.418396,-89.220621 z M -48.322656,-41.70771 L 53.078437,-9.405474 L 46.897005,13.094209 L -55.686835,-19.943878 L -48.322656,-41.70771 z "
       id="rect9884"
       sodipodi:nodetypes="cccccccccc" />
    <path
       style="fill:#000000;stroke:#8c8c00;stroke-opacity:1;stroke-width:2;stroke-miterlimit:4;stroke-dasharray:none"
       d="M 15.20636,-68.622063 C -74.67345,-97.568695 -76.472903,-98.110653 -78.600169,-97.43578 L -80.770177,-96.759279 L -98.078214,-44.257359 C -116.70945,12.282939 -118.36749,17.970435 -117.12219,20.729323 L -116.32986,22.47079 L -24.116958,52.168817 L 68.116047,81.873318 L 70.108922,80.851389 C 71.937518,79.913699 72.352615,79.125815 75.26058,71.330099 C 77.003653,66.657282 85.338682,40.670082 93.770581,13.580696 L 109.09523,-35.655716 L 107.96905,-37.393784 C 106.87569,-39.067031 104.46231,-39.876355 15.20636,-68.622063 z M 105.86687,-38.581028 C 106.02459,-38.537729 106.14678,-38.466641 106.24943,-38.391272 C 106.61475,-38.123045 105.85412,-37.746708 104.53521,-37.545797 C 103.2163,-37.344886 102.21498,-37.436067 102.31617,-37.750243 C 102.53559,-38.431555 104.76284,-38.884097 105.86687,-38.581028 z M -74.840703,-95.47077 C -74.219913,-95.276818 -73.801911,-94.838971 -73.915838,-94.485226 C -74.16846,-93.700825 -74.241002,-93.724188 -75.202151,-94.8995 C -75.855018,-95.697835 -75.805288,-95.772127 -74.840703,-95.47077 z M -64.194682,-84.788154 L -31.330564,-73.937753 C -13.263578,-67.972462 21.066799,-56.83175 44.946778,-49.10572 C 74.880997,-39.420926 88.373627,-35.097514 88.373627,-35.097514 L 91.058574,-29.796123 C 93.477779,-25.026092 93.674052,-24.188562 92.972205,-21.54873 C 92.542918,-19.93405 87.412316,-3.9545903 81.554553,13.972172 L 70.901745,46.567174 L 57.058842,41.953652 C 49.45425,39.411105 43.193997,37.231916 43.133507,37.113935 C 43.072997,36.995945 11.927908,26.87499 -26.068408,14.62716 C -64.064724,2.3793297 -95.737234,-8.0216369 -96.465338,-8.4884988 C -97.369946,-9.0685463 -97.634858,-9.8164695 -97.297513,-10.863931 C -95.404144,-16.678622 -95.022346,-17.837109 -93.484926,-22.702074 L -84.455119,-50.739779 L -75.42532,-78.777484 L -69.799949,-81.779581 L -64.194682,-84.788154 z M 0.8879557,-31.395549 C -19.961043,-38.070662 -38.175377,-43.577621 -40.828819,-44.032226 C -46.756881,-45.047888 -50.761841,-43.904428 -54.717565,-40.031168 C -61.034081,-33.846303 -61.08415,-22.912783 -54.804298,-16.4116 C -52.777241,-14.313105 -51.4464,-13.739036 -38.229716,-9.1214618 C -16.517435,-1.5357373 -6.641527,1.6636813 16.761047,8.655378 C 16.761047,8.655378 32.965894,13.460156 38.174366,15.041519 C 45.185797,17.170293 52.063215,9.195567 53.588851,-0.4471936 C 55.843037,-7.9650532 50.837092,-14.995635 46.355328,-16.353056 C 38.455844,-19.102361 17.923008,-25.946563 0.8879557,-31.395549 z M -39.038765,-39.396159 C -37.329873,-38.8116 -36.42122,-38.086943 -35.002707,-36.499105 C -32.354406,-33.534718 -31.512165,-30.477034 -33.068268,-29.487283 C -33.627766,-29.131396 -34.383954,-27.689016 -34.745062,-26.278317 C -35.271099,-24.223357 -35.584943,-23.824196 -36.380273,-24.231676 C -36.949018,-24.523044 -37.696042,-24.233109 -38.12957,-23.552783 C -38.623386,-22.777839 -38.577836,-22.25523 -37.987551,-22.065124 C -36.568908,-21.608237 -37.250327,-20.714892 -40.089137,-19.259167 C -43.000476,-17.766264 -43.725765,-17.768902 -43.80879,-19.281396 C -43.883546,-20.643127 -46.485316,-20.76664 -46.801814,-19.424542 C -47.132038,-18.02431 -48.089191,-18.148197 -50.459456,-19.914834 C -51.851536,-20.952379 -52.337487,-21.798053 -52.050267,-22.689877 C -51.822904,-23.395825 -51.765471,-24.442061 -51.920423,-25.021683 C -52.157623,-25.908993 -52.34531,-25.969438 -53.066051,-25.390642 C -53.757059,-24.835719 -54.009829,-25.013724 -54.450466,-26.257992 C -55.401037,-28.942211 -54.587883,-32.223056 -52.024755,-35.925146 C -48.985161,-40.315423 -46.387659,-41.258117 -41.05443,-39.95659 C -40.257736,-39.762164 -39.608396,-39.591016 -39.038765,-39.396159 z M 40.86146,-13.552628 C 42.504219,-13.072571 44.019199,-12.203998 45.375128,-10.967606 C 48.688781,-7.9460805 49.510715,-5.081141 48.19385,-1.0533499 C 47.226716,1.9047876 47.029057,2.1036109 45.755697,1.4889294 C 44.72099,0.9894551 44.267528,1.1503752 43.959048,2.1082056 C 43.732401,2.8119718 43.951047,3.6209643 44.444788,3.9062135 C 45.200118,4.3425809 45.036465,4.6866061 43.378815,6.1139967 C 41.147442,8.0354215 39.219951,8.3987094 38.866772,6.9679244 C 38.480118,5.401521 35.76965,5.7357071 35.678877,7.3609703 C 35.636782,8.1146822 35.511644,8.669102 35.397465,8.57916 C 35.283294,8.4892142 34.497907,8.0660743 33.658423,7.6419674 C 29.85258,5.719275 29.338637,5.2478014 30.059101,4.3531654 C 31.060712,3.1094467 30.175248,1.0680307 28.862429,1.5941427 C 27.414617,2.1743639 26.790229,0.1854267 27.385441,-3.1185625 C 27.788617,-5.3566114 28.017241,-5.736047 28.713377,-5.1754296 C 29.258332,-4.7365676 29.847614,-4.9136932 30.344122,-5.6928521 C 30.926971,-6.6075026 30.80796,-7.0075733 29.866897,-7.3106517 C 26.687982,-8.3344514 29.259154,-12.153544 34.03091,-13.489764 C 36.435173,-14.163027 38.749348,-14.169846 40.86146,-13.552628 z M -20.092505,-32.651022 L 0.2695336,-25.893586 L 20.638043,-19.156249 L 20.039812,-17.574244 C 19.708635,-16.704833 18.634262,-13.616855 17.652316,-10.71207 L 15.863054,-5.4319009 L -4.3964495,-11.956664 L -24.655955,-18.481428 L -22.377466,-25.556174 L -20.092505,-32.651022 z M -36.236651,-33.080963 C -36.314826,-33.09528 -36.415978,-33.056125 -36.52962,-32.99785 C -36.950954,-32.781805 -37.212028,-32.244525 -37.098206,-31.783416 C -36.78814,-30.527342 -36.438693,-30.638585 -36.086444,-32.100887 C -35.946036,-32.683736 -36.00212,-33.038021 -36.236651,-33.080963 z M -51.399006,-34.148598 C -51.632573,-34.231211 -52.016732,-34.105066 -52.377046,-33.798083 C -52.935118,-33.322592 -53.02187,-32.793115 -52.629166,-32.326441 C -51.976087,-31.550355 -50.729571,-33.039465 -51.223912,-34.003473 C -51.262445,-34.078622 -51.321149,-34.12106 -51.399006,-34.148598 z M -47.910784,30.374967 C -46.573019,30.872875 -45.447096,31.734784 -45.216908,32.617925 C -44.846229,34.040023 -46.131594,37.416063 -47.25894,37.994155 C -48.579,38.671082 -52.752332,37.327007 -53.429246,36.00695 C -53.717026,35.445769 -53.586578,33.87804 -53.150848,32.525085 C -52.479935,30.441908 -52.049817,30.038679 -50.392474,29.952834 C -49.583225,29.910915 -48.713443,30.076221 -47.910784,30.374967 z M 6.0389235,48.21583 C 7.1724784,48.580898 8.215012,49.187262 8.552948,49.846279 C 9.195764,51.0998 8.47323,53.568518 7.0423492,54.949988 C 5.6676104,56.277242 1.0370612,54.969557 0.941532,53.229186 C 0.8381269,51.345332 1.9366675,48.62471 3.025801,48.066212 C 3.6848215,47.72827 4.9053687,47.850753 6.0389235,48.21583 z M 24.437376,56.248641 C 26.419834,56.887115 28.086471,60.209459 27.436396,62.227951 C 26.223544,65.993902 20.646028,66.611726 19.085467,63.154352 C 17.615382,59.897461 21.243718,55.220096 24.437376,56.248641 z M -68.431634,26.383677 C -67.271172,26.770362 -66.253433,27.49848 -65.846761,28.414063 C -64.168221,32.193108 -67.676817,36.520567 -71.439175,35.308867 C -72.323514,35.024057 -73.43949,34.025763 -73.919116,33.090439 C -75.032519,30.919172 -73.952265,27.326547 -71.897152,26.398928 C -70.902926,25.950162 -69.592092,25.996991 -68.431634,26.383677 z M -112.35658,14.610862 C -111.01823,15.087761 -109.55768,16.183352 -109.75025,16.781259 C -109.86787,17.146483 -110.50333,16.900666 -111.30568,16.1694 C -112.3423,15.224583 -112.95738,15.059317 -113.91068,15.441352 C -114.79819,15.797023 -115.08507,15.712729 -114.91494,15.184472 C -114.78349,14.776317 -114.19124,14.422507 -113.59419,14.389745 C -113.2419,14.370405 -112.8027,14.451895 -112.35658,14.610862 z M 69.651236,73.93805 C 70.106274,74.069308 70.510492,74.259448 70.785275,74.480744 C 71.251002,74.8558 71.525455,75.488706 71.393998,75.896877 C 71.223867,76.425147 70.941712,76.326164 70.428584,75.519402 C 69.877396,74.652837 69.281477,74.428073 67.888312,74.590369 C 66.810002,74.715972 66.150528,74.544713 66.268146,74.179501 C 66.460705,73.581602 68.286118,73.54427 69.651236,73.93805 z "
       id="path9498"
       sodipodi:nodetypes="cccccccccscccccsssccsscccsccscccszscccccccsssscsccccssssssssssssssssccsssssssssssssssssccccccccccccsssccsssccsssssccssssccssccssssccsssssccsssssc" />
    <path
       style="opacity:1;fill:none;stroke:none;stroke-opacity:1"
       d="M 31.37855,-86.40694 C -58.50126,-115.35357 -60.300713,-115.89553 -62.427979,-115.22066 L -64.597987,-114.54416 L -81.906024,-62.042237 C -100.53726,-5.501939 -102.1953,0.18555703 -100.95,2.944445 L -100.15767,4.685912 L -7.9447701,34.383939 L 84.28824,64.08844 L 86.28111,63.066511 C 88.10971,62.128821 88.5248,61.340937 91.43277,53.545221 C 93.17584,48.872404 101.51087,22.885204 109.94277,-4.204182 L 125.26742,-53.440594 L 124.14124,-55.178662 C 123.04788,-56.851909 120.6345,-57.661233 31.37855,-86.40694 z M 122.03906,-56.365906 C 122.19678,-56.322607 122.31897,-56.251519 122.42162,-56.17615 C 122.78694,-55.907923 122.02631,-55.531586 120.7074,-55.330675 C 119.38849,-55.129764 118.38717,-55.220945 118.48836,-55.535121 C 118.70778,-56.216433 120.93503,-56.668975 122.03906,-56.365906 z M -58.668513,-113.25565 C -58.047723,-113.0617 -57.629721,-112.62385 -57.743648,-112.2701 C -57.99627,-111.4857 -58.068812,-111.50907 -59.029961,-112.68438 C -59.682828,-113.48271 -59.633098,-113.557 -58.668513,-113.25565 z M -48.022492,-102.57303 L -15.15837,-91.72263 C 2.9086099,-85.75734 37.23899,-74.616628 61.11897,-66.890598 C 91.05319,-57.205804 104.54582,-52.882392 104.54582,-52.882392 L 107.23076,-47.581001 C 109.64997,-42.81097 109.84624,-41.97344 109.14439,-39.333608 C 108.71511,-37.718928 103.58451,-21.739468 97.72674,-3.812706 L 87.07393,28.782296 L 73.23103,24.168774 C 65.62644,21.626227 59.36619,19.447038 59.3057,19.329057 C 59.24519,19.211067 28.1001,9.090112 -9.8962201,-3.157718 C -47.892534,-15.405548 -79.565044,-25.806515 -80.293148,-26.273377 C -81.197756,-26.853424 -81.462668,-27.601347 -81.125323,-28.648809 C -79.231954,-34.4635 -78.850156,-35.621987 -77.312736,-40.486952 L -68.282929,-68.524657 L -59.25313,-96.56236 L -53.627759,-99.56446 L -48.022492,-102.57303 z M 17.06015,-49.180427 C -3.7888501,-55.85554 -22.003187,-61.362499 -24.656629,-61.817104 C -30.584691,-62.832766 -34.589651,-61.689306 -38.545375,-57.816046 C -44.861891,-51.631181 -44.91196,-40.697661 -38.632108,-34.196478 C -36.605051,-32.097983 -35.27421,-31.523914 -22.057526,-26.90634 C -0.34525013,-19.320615 9.5306599,-16.121197 32.93324,-9.1295 C 32.93324,-9.1295 49.13808,-4.324722 54.34656,-2.743359 C 61.35799,-0.61458497 68.2354,-8.589311 69.76104,-18.232072 C 72.01523,-25.749931 67.00928,-32.780513 62.52752,-34.137934 C 54.62803,-36.887239 34.0952,-43.731441 17.06015,-49.180427 z M -22.866575,-57.181037 C -21.157683,-56.596478 -20.24903,-55.871821 -18.83052,-54.283983 C -16.18222,-51.319596 -15.33998,-48.261912 -16.89608,-47.272161 C -17.45558,-46.916274 -18.21176,-45.473894 -18.57287,-44.063195 C -19.09891,-42.008235 -19.41275,-41.609074 -20.20808,-42.016554 C -20.776828,-42.307922 -21.523852,-42.017987 -21.95738,-41.337661 C -22.451196,-40.562717 -22.405646,-40.040108 -21.815361,-39.850002 C -20.39672,-39.393115 -21.078137,-38.49977 -23.916947,-37.044045 C -26.828286,-35.551142 -27.553575,-35.55378 -27.6366,-37.066274 C -27.711356,-38.428005 -30.313126,-38.551518 -30.629624,-37.20942 C -30.959848,-35.809188 -31.917001,-35.933075 -34.287266,-37.699712 C -35.679346,-38.737257 -36.165297,-39.582931 -35.878077,-40.474755 C -35.650714,-41.180703 -35.593281,-42.226939 -35.748233,-42.806561 C -35.985433,-43.693871 -36.17312,-43.754316 -36.893861,-43.17552 C -37.584869,-42.620597 -37.837639,-42.798602 -38.278276,-44.04287 C -39.228847,-46.727089 -38.415693,-50.007934 -35.852565,-53.710024 C -32.812971,-58.100301 -30.215469,-59.042995 -24.88224,-57.741468 C -24.085546,-57.547042 -23.436206,-57.375894 -22.866575,-57.181037 z M 57.03365,-31.337506 C 58.67641,-30.857449 60.19139,-29.988876 61.54732,-28.752484 C 64.86097,-25.730958 65.6829,-22.866019 64.36604,-18.838228 C 63.39891,-15.88009 63.20125,-15.681267 61.92789,-16.295949 C 60.89318,-16.795423 60.43972,-16.634503 60.13124,-15.676672 C 59.90459,-14.972906 60.12324,-14.163914 60.61698,-13.878664 C 61.37231,-13.442297 61.20865,-13.098272 59.551,-11.670881 C 57.31963,-9.749456 55.39214,-9.386169 55.03896,-10.816954 C 54.65231,-12.383357 51.94184,-12.049171 51.85107,-10.423908 C 51.80897,-9.670196 51.68383,-9.115776 51.56965,-9.205718 C 51.45548,-9.295664 50.6701,-9.718804 49.83061,-10.142911 C 46.02477,-12.065603 45.51083,-12.537077 46.23129,-13.431713 C 47.2329,-14.675431 46.34744,-16.716847 45.03462,-16.190735 C 43.58681,-15.610514 42.96242,-17.599451 43.55763,-20.90344 C 43.96081,-23.141489 44.18943,-23.520925 44.88557,-22.960308 C 45.43052,-22.521446 46.0198,-22.698571 46.51631,-23.47773 C 47.09916,-24.392381 46.98015,-24.792451 46.03909,-25.09553 C 42.86017,-26.119329 45.43134,-29.938422 50.2031,-31.274642 C 52.60736,-31.947905 54.92154,-31.954724 57.03365,-31.337506 z M -3.9203201,-50.4359 L 16.44172,-43.678464 L 36.81023,-36.941127 L 36.212,-35.359122 C 35.88082,-34.489711 34.80645,-31.401733 33.82451,-28.496948 L 32.03524,-23.216779 L 11.77574,-29.741542 L -8.4837701,-36.266306 L -6.2052801,-43.341052 L -3.9203201,-50.4359 z M -20.06446,-50.865841 C -20.14264,-50.880158 -20.24379,-50.841003 -20.35743,-50.782728 C -20.778764,-50.566683 -21.039838,-50.029403 -20.926016,-49.568294 C -20.61595,-48.31222 -20.2665,-48.423463 -19.91425,-49.885765 C -19.77385,-50.468614 -19.82993,-50.822899 -20.06446,-50.865841 z M -35.226816,-51.933476 C -35.460383,-52.016089 -35.844542,-51.889944 -36.204856,-51.582961 C -36.762928,-51.10747 -36.84968,-50.577993 -36.456976,-50.111319 C -35.803897,-49.335233 -34.557381,-50.824343 -35.051722,-51.788351 C -35.090255,-51.8635 -35.148959,-51.905938 -35.226816,-51.933476 z M -31.738594,12.590089 C -30.400829,13.087997 -29.274906,13.949906 -29.044718,14.833047 C -28.674039,16.255145 -29.959404,19.631185 -31.08675,20.209277 C -32.40681,20.886204 -36.580142,19.542129 -37.257056,18.222072 C -37.544836,17.660891 -37.414388,16.093162 -36.978658,14.740207 C -36.307745,12.65703 -35.877627,12.253801 -34.220284,12.167956 C -33.411035,12.126037 -32.541253,12.291343 -31.738594,12.590089 z M 22.21111,30.430952 C 23.34467,30.79602 24.3872,31.402384 24.72514,32.061401 C 25.36795,33.314922 24.64542,35.78364 23.21454,37.16511 C 21.8398,38.492364 17.20925,37.184679 17.11372,35.444308 C 17.01032,33.560454 18.10886,30.839832 19.19799,30.281334 C 19.85701,29.943392 21.07756,30.065875 22.21111,30.430952 z M 40.60957,38.463763 C 42.59202,39.102237 44.25866,42.424581 43.60859,44.443073 C 42.39573,48.209024 36.81822,48.826848 35.25766,45.369474 C 33.78757,42.112583 37.41591,37.435218 40.60957,38.463763 z M -52.259444,8.598799 C -51.098982,8.985484 -50.081243,9.713602 -49.674571,10.629185 C -47.996031,14.40823 -51.504627,18.735689 -55.266985,17.523989 C -56.151324,17.239179 -57.2673,16.240885 -57.746926,15.305561 C -58.860329,13.134294 -57.780075,9.541669 -55.724962,8.61405 C -54.730736,8.165284 -53.419902,8.212113 -52.259444,8.598799 z M -96.18439,-3.174016 C -94.84604,-2.697117 -93.38549,-1.601526 -93.57806,-1.003619 C -93.69568,-0.63839497 -94.33114,-0.88421197 -95.13349,-1.615478 C -96.17011,-2.560295 -96.78519,-2.725561 -97.73849,-2.343526 C -98.626,-1.987855 -98.91288,-2.072149 -98.74275,-2.600406 C -98.6113,-3.008561 -98.01905,-3.362371 -97.422,-3.395133 C -97.06971,-3.414473 -96.63051,-3.332983 -96.18439,-3.174016 z M 85.82343,56.153172 C 86.27846,56.28443 86.68268,56.47457 86.95746,56.695866 C 87.42319,57.070922 87.69764,57.703828 87.56619,58.111999 C 87.39606,58.640269 87.1139,58.541286 86.60077,57.734524 C 86.04959,56.867959 85.45367,56.643195 84.0605,56.805491 C 82.98219,56.931094 82.32272,56.759835 82.44034,56.394623 C 82.63289,55.796724 84.45831,55.759392 85.82343,56.153172 z "
       id="path3264"
       sodipodi:nodetypes="cccccccccscccccsssccsscccsccscccszscccccccsssscsccccssssssssssssssssccsssssssssssssssssccccccccccccsssccsssccsssssccssssccssccssssccsssssccsssssc" />
  </g>
</svg>
