<?xml version="1.0" encoding="UTF-8" standalone="no"?>
<!-- Created with Inkscape (http://www.inkscape.org/) -->
<svg
   xmlns:dc="http://purl.org/dc/elements/1.1/"
   xmlns:cc="http://web.resource.org/cc/"
   xmlns:rdf="http://www.w3.org/1999/02/22-rdf-syntax-ns#"
   xmlns:svg="http://www.w3.org/2000/svg"
   xmlns="http://www.w3.org/2000/svg"
   xmlns:sodipodi="http://sodipodi.sourceforge.net/DTD/sodipodi-0.dtd"
   xmlns:inkscape="http://www.inkscape.org/namespaces/inkscape"
   width="744.09448819"
   height="1052.3622047"
   id="svg3249"
   sodipodi:version="0.32"
   inkscape:version="0.44+devel"
   sodipodi:docbase="D:\FretsonFire\FretsOnFire-svn\trunk\data"
   sodipodi:docname="stage_audience1.svg"
   inkscape:output_extension="org.inkscape.output.svg.inkscape">
  <defs
     id="defs3251" />
  <sodipodi:namedview
     id="base"
     pagecolor="#ffffff"
     bordercolor="#666666"
     borderopacity="1.0"
     gridtolerance="10000"
     guidetolerance="10"
     objecttolerance="10"
     inkscape:pageopacity="0.0"
     inkscape:pageshadow="2"
     inkscape:zoom="0.35"
     inkscape:cx="194.91167"
     inkscape:cy="786.2608"
     inkscape:document-units="px"
     inkscape:current-layer="layer1"
     inkscape:window-width="853"
     inkscape:window-height="619"
     inkscape:window-x="427"
     inkscape:window-y="288" />
  <metadata
     id="metadata3254">
    <rdf:RDF>
      <cc:Work
         rdf:about="">
        <dc:format>image/svg+xml</dc:format>
        <dc:type
           rdf:resource="http://purl.org/dc/dcmitype/StillImage" />
      </cc:Work>
    </rdf:RDF>
  </metadata>
  <g
     inkscape:label="Layer 1"
     inkscape:groupmode="layer"
     id="layer1">
    <g
       id="yleiso1"
       transform="matrix(0.7844778,0,0,0.7844778,-1023.124,-443.46103)"
       style="fill:#000000"
       inkscape:export-filename="H:\new\rect2273.png"
       inkscape:export-xdpi="90"
       inkscape:export-ydpi="90">
      <path
         style="fill:#000000;fill-opacity:1"
         d="M 1181.224,723.79257 C 1199.0901,718.60987 1185.0396,697.72457 1187.3691,684.83127 C 1184.688,666.26335 1171.3704,651.43231 1166.9813,633.26001 C 1160.1207,617.38632 1158.849,599.92929 1153.3602,583.77252 C 1148.7636,571.05526 1143.9694,558.30454 1136.8115,547.14829 C 1128.5489,534.23416 1123.5923,519.2203 1129.3182,503.92685 C 1132.0217,485.7828 1137.0229,468.14408 1139.758,449.9947 C 1147.1751,438.85268 1133.8906,413.77294 1144.9766,408.88718 C 1142.6569,431.31121 1149.9781,411.49517 1156.9042,420.49538 C 1163.9095,414.90467 1162.3914,422.35289 1165.1341,424.4142 C 1171.0661,408.35972 1174.8698,420.56041 1167.9972,429.41733 C 1158.1154,441.97928 1151.3706,461.5574 1152.7012,478.30944 C 1151.2265,485.96869 1154.1129,504.61879 1156.3028,486.18395 C 1158.9392,478.09567 1160.2787,493.25406 1162.4626,493.72715 C 1149.4183,507.35899 1182.8488,491.53847 1169.1093,504.67272 C 1166.0703,513.41577 1149.4599,518.83806 1158.526,528.3426 C 1168.2568,540.01484 1174.4634,555.0484 1186.5999,564.4929 C 1190.7679,563.86303 1203.8036,554.27654 1201.5915,549.09252 C 1197.8442,536.68637 1191.1228,521.94383 1205.0553,510.09744 C 1216.4312,504.07671 1232.7978,494.0759 1243.5494,504.55673 C 1246.6613,520.95199 1254.265,537.76964 1250.3939,554.72426 C 1248.4661,561.95805 1240.3264,580.70989 1254.9838,573.2705 C 1271.4972,566.56068 1275.1832,552.0784 1276.7458,535.84879 C 1279.4894,520.74532 1287.8045,503.8597 1279.1376,489.28238 C 1273.8191,481.68486 1274.1639,470.71136 1281.5231,482.34879 C 1286.0476,477.77342 1287.1139,449.21899 1289.5758,468.75447 C 1291.0788,472.96237 1296.3003,457.53592 1296.8529,471.34617 C 1308.9366,483.16143 1297.2902,498.12169 1298.4281,512.20436 C 1298.4145,519.98988 1293.6444,543.41817 1305.982,528.27346 C 1317.9778,518.59866 1320.579,502.46967 1329.3504,490.31893 C 1337.7237,474.96976 1345.9566,457.63035 1345.2772,439.88738 C 1347.1841,429.39723 1338.239,408.68409 1351.9681,419.34584 C 1351.7099,408.58687 1372.1739,403.35257 1358.9283,415.91499 C 1352.3722,431.19226 1379.9442,395.69031 1370.6096,417.32897 C 1363.9548,422.72554 1365.2976,432.86515 1376.385,420.28147 C 1382.8759,422.22298 1366.3058,440.99887 1364.4973,449.02262 C 1353.2056,469.14576 1350.0496,492.5316 1342.1625,513.96454 C 1336.3527,529.75235 1328.4691,543.59904 1319.8074,557.94366 C 1310.2192,573.82279 1300.026,589.53545 1288.6205,604.10045 C 1279.6747,615.09562 1303.4822,605.24803 1309.6406,610.88682 C 1322.1586,603.01307 1339.0256,609.81366 1341.3848,624.79192 C 1349.9202,631.66381 1338.4258,651.99891 1346.2108,653.04492 C 1353.1707,644.68823 1376.9006,642.82214 1362.6019,629.38502 C 1357.722,615.77507 1349.112,596.42578 1365.5608,586.80732 C 1384.541,575.74506 1394.6894,599.25542 1400.1051,611.32032 C 1398.9907,617.63272 1389.1106,635.48514 1401.404,634.41192 C 1413.3743,639.52316 1418.5455,631.84517 1411.1806,621.42007 C 1405.5681,613.80634 1409.1866,605.72051 1413.6207,617.53459 C 1418.9418,625.96867 1410.3211,591.87473 1418.5981,610.56244 C 1419.8123,609.90142 1423.3305,600.47095 1423.688,611.9527 C 1425.0173,622.38725 1428.2675,619.37152 1430.9161,612.17672 C 1434.0491,621.97072 1430.2978,634.12309 1434.7731,643.22177 C 1449.9279,660.26567 1469.4341,673.70517 1481.0786,693.61147 C 1483.1005,704.21417 1478.731,717.48727 1471.0841,724.34877 C 1374.4648,724.20307 1277.8372,724.75587 1181.224,723.79257 z M 1455.1965,693.09877 C 1449.7389,685.43527 1439.2771,687.73167 1451.6474,693.45447 C 1452.1444,694.17817 1455.238,694.94177 1455.1965,693.09877 z M 1318.1514,671.71397 C 1326.34,655.59568 1302.2616,649.4392 1304.2731,633.07932 C 1303.9936,626.0403 1303.0497,612.64652 1295.8858,625.46256 C 1287.107,632.2499 1304.5643,642.48038 1298.2368,652.57004 C 1300.012,661.49008 1290.9202,673.70597 1306.224,672.69467 C 1310.013,673.91017 1315.3324,675.81437 1318.1514,671.71397 z "
         id="path2504"
         sodipodi:nodetypes="ccccccccccccccccccccccccccccccccccccsscccccccccccccccccccccccccc" />
    </g>
  </g>
</svg>
